<?xml version="1.0" encoding="utf-8"?>
<svg xmlns="http://www.w3.org/2000/svg" id="Layer_1" style="enable-background:new 0 0 160 60;" version="1.1" viewBox="0 0 160 60" x="0px" y="0px">
<style type="text/css">
	.st0{fill:#A7A8AB;}
	.st1{fill:#211E1F;}
	.st2{fill:#020202;}
	.st3{fill:url(#SVGID_1_);}
	.st4{fill:url(#SVGID_2_);}
	.st5{fill:url(#SVGID_3_);}
	.st6{fill:url(#SVGID_4_);}
	.st7{fill:url(#SVGID_5_);}
	.st8{fill:url(#SVGID_6_);}
	.st9{fill:url(#SVGID_7_);}
	.st10{fill:url(#SVGID_8_);}
	.st11{fill:url(#SVGID_9_);}
	.st12{fill:url(#SVGID_10_);}
	.st13{fill:url(#SVGID_11_);}
	.st14{fill:url(#SVGID_12_);}
	.st15{fill:url(#SVGID_13_);}
	.st16{fill:url(#SVGID_14_);}
	.st17{fill:url(#SVGID_15_);}
	.st18{fill:url(#SVGID_16_);}
	.st19{fill:url(#SVGID_17_);}
	.st20{fill:url(#SVGID_18_);}
	.st21{fill:url(#SVGID_19_);}
	.st22{fill:url(#SVGID_20_);}
	.st23{fill:url(#SVGID_21_);}
	.st24{fill:url(#SVGID_22_);}
	.st25{fill:url(#SVGID_23_);}
	.st26{fill:url(#SVGID_24_);}
	.st27{fill:url(#SVGID_25_);}
	.st28{fill:url(#SVGID_26_);}
	.st29{fill:url(#SVGID_27_);}
	.st30{fill:url(#SVGID_28_);}
	.st31{fill:url(#SVGID_29_);}
	.st32{fill:url(#SVGID_30_);}
	.st33{fill:url(#SVGID_31_);}
	.st34{fill:url(#SVGID_32_);}
	.st35{fill:url(#SVGID_33_);}
	.st36{fill:url(#SVGID_34_);}
	.st37{fill:url(#SVGID_35_);}
	.st38{fill:url(#SVGID_36_);}
	.st39{fill:url(#SVGID_37_);}
	.st40{fill:url(#SVGID_38_);}
	.st41{fill:url(#SVGID_39_);}
	.st42{fill:url(#SVGID_40_);}
	.st43{fill:url(#SVGID_41_);}
	.st44{fill:url(#SVGID_42_);}
	.st45{fill:url(#SVGID_43_);}
	.st46{fill:url(#SVGID_44_);}
	.st47{fill:url(#SVGID_45_);}
	.st48{fill:url(#SVGID_46_);}
	.st49{fill:url(#SVGID_47_);}
	.st50{fill:url(#SVGID_48_);}
	.st51{fill:url(#SVGID_49_);}
</style>
<title>Asset 24</title>
<g id="Layer_2_2_">
	<g id="SVGs_1_">
		<g id="Layer_2-2">
			<g id="Layer_1-2_2_">
				<g>
					<path class="st0" d="M142.1,20.1h-5.4l1.2,1.3v4.7l-4.2-6c0,0-18.1,0-18.9,0.1c0.5,0.4,0.8,1.1,0.7,1.7c0,0,0,4.6-0.1,5&#xA;						c-0.2,0.3-0.5,0.2-1.1,0.3c-0.6,0.1-4.4,0-4.4,0s0-4.6,0.1-5.7c0.2-0.5,0.5-1,0.9-1.3c0,0-7,0-7.3,0c0.4,0.3,0.7,0.7,0.7,1.2&#xA;						c0,0,0,5.4,0,6.2c0.1,1.1-0.3,1.1-0.3,1.1s-1.6-2.3-1.9-3c1.2-0.1,1.4-1.5,1.4-1.5s0-1,0-2.4c-0.3-1.1-1.3-1.9-2.5-1.8H89&#xA;						c0.5,0.3,0.8,0.8,1,1.4c0,0,0,5.1,0,5.9c0,0.8-0.2,1-0.2,1l-4.7-8.3h-6.7l0.8,0.8l-2.2,3.4c-1.2,1.8-2.5,3.6-4,5.2h5.7&#xA;						c0,0-0.6-0.7-0.8-1c-0.2-0.3,0-0.5,0-0.5l0.7-0.9l4.6,0.1c0.1,0.2,0.2,0.4,0.4,0.7c0.2,0.2,0.3,0.5,0.2,0.7l0,0l-0.5,0.9h13.4&#xA;						c-0.4-0.4-0.7-0.9-1-1.4v-2.3h0.7l2.2,3.7h32.4l-1-1.1v-4.7l4.1,5.8h7c0,0,0-7.2,0-7.9C141.2,21.1,141.6,20.6,142.1,20.1z&#xA;						 M80,24.9l0.9-1.5l0.8,1.5H80z M97.8,23.3h-2.3v-1h2.3V23.3z M126.8,26.9c-0.5,0.2-1,0.2-1.5,0.2c-0.7,0-4.1,0-4.1,0V26h3.2&#xA;						c0,0,1.1,0.2,2.1,0.4c0-0.2,0-3.2,0-3.2c-0.5,0.2-1,0.2-1.5,0.2c-0.8,0-3.8,0-3.8,0v-1h4.1l1.5,0.3L126.8,26.9z"/>
					<path class="st0" d="M122.1,34.9c-0.2-1.6-2.3-1.8-2.3-1.8l-4.8-0.1v-0.2c0,0,5.1,0,5.7,0.1c0.5,0.1,1.1,0.2,1.6,0.4l-0.5-2.7&#xA;						h-9.6c-3-0.1-2.7,1.8-2.7,1.8s0,1.7,0,2.8c0.2,2,2.4,1.9,2.4,1.9h4.8v0.4h-5.7c-0.6-0.2-1.1-0.3-1.7-0.6c-0.2,0.4-2,0.6-2,0.6&#xA;						l-4.1-0.1v-1.2h4c0.5,0,1,0.1,1.4,0.4v-3.1l-1.4,0.2l-4-0.1v-0.9h4.2l1.7,0.3l-0.6-2.6H92.5c0,0,0.3,0.2,0.6,0.6&#xA;						c0.2,0.1,0.2,0.2,0.3,0.5v4.9l-3.9-5.9h-8.3l0.9,0.9v7.3l-1.3,1.3h5.6l-1.3-1.3v-4.6l4.4,5.9h6.7c0,0,0-7.8,0-8.2&#xA;						c0.2-0.3,0.5-0.7,0.7-0.9c0.2,0,0.4,0.7,0.4,0.7s0,6.4-0.1,7c-0.2,0.5-0.5,1-0.7,1.4h12.2l0.5-2.4l0.6,2.4c0,0,6.4,0,9.7,0&#xA;						c1.2,0.2,2.4-0.7,2.6-2.1c0-0.1,0-0.2,0-0.2C122.1,37.7,122.2,36.1,122.1,34.9z M132.1,33.1h-4.2v-0.3h5.7l1.7,0.5l-0.7-2.8&#xA;						c0,0-8,0-9.6,0c-2.9,0.2-2.6,2.5-2.6,2.5s-0.1,0.5-0.1,2c-0.2,2.2,2.4,2.3,2.4,2.3h4.9v0.4c0,0-5.4,0.1-6-0.1&#xA;						c-0.5-0.2-1-0.3-1.4-0.5l0.7,3c0,0,6.7,0.1,9.4,0s3-2.2,3-2.2v-2.7C134.8,33,132.1,33.1,132.1,33.1z"/>
					<path class="st1" d="M88.8,28l-4.1-7.5h-5.3l0.5,0.5c0,0-4.1,6.5-4.6,7c-0.3,0.4-0.7,0.7-1,1.1c0,0,2.6,0,3.2,0&#xA;						c-0.3-0.2-0.3-0.7-0.1-1l0.8-1.3h5.1c0,0,0.3,0.7,0.5,0.9c0.4,0.3,0.4,0.9,0.2,1.2L84,29c0,0,6,0,5.8,0&#xA;						C89.6,29,88.8,28,88.8,28z M79.2,25.4l1.7-2.8l1.7,2.8H79.2z M103.3,28.5c-0.2-0.3-2-3.1-2-3.1c0.3,0,0.7-0.1,1-0.2&#xA;						c0.4-0.1,0.7-0.4,0.8-0.8c0,0,0-1.6,0-2.6c-0.4-0.9-1.4-1.5-2.4-1.3H90c0.2,0.2,0.4,0.6,0.4,1c0,0,0,5.7,0,6.5&#xA;						c-0.1,0.3-0.2,0.7-0.4,1h5.3c-0.2-0.1-0.2-0.6-0.2-0.6v-3h1.4l2.1,3.6h5.1C103.6,28.9,103.4,28.7,103.3,28.5z M97.9,23.7H95V22&#xA;						h2.9c0.6,0,0.5,0.7,0.5,0.7v0.7C98.4,23.6,98.1,23.7,97.9,23.7z M114,27.8c-0.4,0.1-4.5,0-4.5,0s0-5.6,0-6.5&#xA;						c0-0.3,0.2-0.7,0.4-0.9h-5.3c0.2,0.2,0.2,0.5,0.3,0.7c0,0,0,6.2,0,6.8c0,0.3-0.1,0.7-0.3,1h10.4l0.4-1.5&#xA;						C114.9,27.7,114.4,27.8,114,27.8L114,27.8z M125.5,27.6c-0.6,0-4.8,0-4.8,0v-2c0,0,3.3,0,4.1,0l1.4,0.2v-2.3&#xA;						c-0.6,0.2-1.2,0.2-1.8,0.2h-3.6V22h4.6c0.4,0.1,1.3,0.2,1.3,0.2l-0.3-1.9c0,0-10.1,0-10.5,0c0.4,0.5,0.3,1.7,0.3,1.7&#xA;						s0,5.1,0,5.6c0,0.4-0.2,0.8-0.3,1.2h10.8l0.6-1.7C126.5,27.4,126,27.5,125.5,27.6L125.5,27.6z M137.6,20.6&#xA;						c0.2,0.2,0.5,0.6,0.5,0.9v5.6l-4.9-6.5c0,0-6,0-6.5,0c0.2,0.3,0.4,0.7,0.4,1.2c0,0,0,6,0,6.4c0,0.4-0.2,0.7-0.4,1h2.9&#xA;						c-0.2-0.1-0.4-0.3-0.4-0.6v-6.2l5,6.8h6.2c0,0,0.1-7.1,0.1-7.5c0.1-0.3,0.2-0.7,0.5-1L137.6,20.6L137.6,20.6z"/>
					<path class="st1" d="M93.5,31c0.2,0.2,0.4,0.5,0.4,0.7V38l-4.8-7c0,0-5.6,0-6.7-0.1c0.3,0.2,0.4,0.6,0.4,1c0,0,0,6.5,0,6.7&#xA;						l-0.6,0.8h3.1c-0.2-0.2-0.4-0.5-0.6-0.7v-6.2l5.3,7h5.8v-7.9c0.1-0.2,0.2-0.5,0.3-0.7C96.1,30.9,93.8,31,93.5,31z M102.5,38&#xA;						v-2.2c0,0,2.9,0,3.7,0c0.6,0,1.2,0.2,1.7,0.3v-2.1c-0.4,0.2-0.8,0.2-1.2,0.2c-0.7,0.1-4.2,0-4.2,0v-2c0,0,2.9,0,4.4,0&#xA;						c0.6,0.1,1.1,0.2,1.6,0.4l-0.5-1.7H97.6c0.2,0.1,0.2,1,0.2,1v6.5c0,0.3-0.1,0.7-0.3,1h10.6l0.7-1.9l-1.9,0.3L102.5,38z&#xA;						 M134.7,35.2c-0.3-1-1.2-1.7-2.3-1.7l-4.3-0.1c-0.7,0.1-0.6-0.2-0.6-0.5c-0.1-0.5,0.7-0.5,0.7-0.5h5.3c0.4,0.1,1.2,0.3,1.2,0.3&#xA;						l-0.4-1.7H125c-1.2-0.1-2.1,0.8-2.2,1.9l0,0v2.2c-0.1,1.8,2,1.7,2,1.7h4.8c0.4,0,0.5,0.5,0.4,0.9c-0.1,0.4-0.6,0.3-0.6,0.3&#xA;						s-4.4,0.1-5.2,0c-0.7-0.1-1.5-0.2-1.5-0.2l0.3,1.6c0,0,6.1,0,8.9,0c2.5,0.1,2.5-1.7,2.5-1.7S134.7,36.6,134.7,35.2L134.7,35.2z&#xA;						 M121.6,35.1c-0.1-1.5-2.3-1.7-2.3-1.7h-4.3c-0.4,0-0.7,0-0.7-0.7c0-0.7,0.7-0.4,0.7-0.4h5.1c0.4,0.1,1.2,0.2,1.2,0.2L121,31&#xA;						h-9.2c-1.1-0.1-2.1,0.7-2.2,1.8l0,0V35c-0.1,1.8,2,1.7,2,1.7h4.8c0.6,0.1,0.4,0.2,0.5,0.9c0.1,0.7-0.6,0.4-0.6,0.4&#xA;						s-4.5,0.1-5.2,0c-0.5-0.1-1-0.1-1.4-0.2l0.4,1.7c0,0,6.1,0.1,8.9,0c2.7-0.1,2.5-1.9,2.5-1.9S121.6,36.3,121.6,35.1L121.6,35.1z"/>
				</g>
				<g>
					<path class="st2" d="M51.5,35.7c-4.1,3.2-9.9,3.2-13.9,0c-1.8-1.4-2.9-3.6-2.9-5.9s1.1-4.4,2.9-5.8c4.1-3.2,9.9-3.2,13.9,0&#xA;						c1.8,1.4,2.9,3.6,2.9,5.8C54.4,32.2,53.3,34.2,51.5,35.7z"/>
					
						<linearGradient gradientTransform="matrix(1 0 0 -1 0 -1382)" gradientUnits="userSpaceOnUse" id="SVGID_1_" x1="36.397" x2="52.7522" y1="-1416.217" y2="-1407.5162">
						<stop offset="0" style="stop-color:#F4EB44"/>
						<stop offset="1" style="stop-color:#CC912B"/>
					</linearGradient>
					<path class="st3" d="M44.6,37.8c2.5,0.1,4.9-0.7,6.8-2.3c1.7-1.3,2.7-3.4,2.8-5.6c0-2.2-1.1-4.2-2.8-5.6c-4-3.1-9.6-3.1-13.6,0&#xA;						C36,25.5,35,27.6,35,29.8c0.1,2.2,1.1,4.2,2.8,5.6C39.8,37.1,42.2,37.9,44.6,37.8L44.6,37.8z"/>
					<path class="st2" d="M44.6,37.3c2.3,0,4.6-0.7,6.5-2.2c1.7-1.2,2.6-3.1,2.6-5.2c-0.1-2.1-1.1-4-2.6-5.2&#xA;						c-3.8-2.9-9.1-2.9-12.8,0c-1.7,1.2-2.6,3.1-2.6,5.2c0.1,2.1,1,4,2.6,5.2C39.9,36.6,42.2,37.3,44.6,37.3z M51.2,35.3&#xA;						c-3.9,3-9.4,3-13.2,0c-1.7-1.3-2.7-3.3-2.7-5.5c0.1-2.2,1.1-4.1,2.7-5.5c3.9-3,9.4-3,13.2,0c1.7,1.3,2.7,3.3,2.7,5.5&#xA;						S52.9,34,51.2,35.3L51.2,35.3z"/>
					<path class="st2" d="M38.2,32.1c-0.4,0.2-1.6,0.6-1.9-0.2c-0.6,0.4-1.4,0.3-1.9-0.2c-0.7,0.2-1.7,0.6-2-0.3&#xA;						c-0.7,0.2-2.4,0.6-2.6-0.5c-1,0.2-2.5,0.2-2.7-0.8c-0.9,0-2.4-0.2-2.4-1.2c-0.9,0-2.4-0.6-2.2-1.3c-0.7-0.1-1.8-0.9-1.8-1.5&#xA;						c-0.7-0.2-1.7-0.8-1.5-1.7c-0.5-0.3-1.2-0.7-1.2-1.1c0-0.4,0.3-0.8,0.7-0.8c0.4,0,2,0.2,2.6,0.2s7.3-0.2,8.9-0.1&#xA;						c1.5,0.1,3.1,0.1,4.6-0.1c1-0.1,5.1-0.3,5.7,0.8c0.4,0.8,0.1,1.2-0.2,1.4c-1.1,0.6-1.7,1.7-1.7,2.9&#xA;						C38.3,29.8,38.6,30.8,38.2,32.1L38.2,32.1z"/>
					
						<linearGradient gradientTransform="matrix(1 0 0 -1 0 -1382)" gradientUnits="userSpaceOnUse" id="SVGID_2_" x1="25.095" x2="24.6104" y1="-1407.162" y2="-1404.1162">
						<stop offset="0" style="stop-color:#F4EB44"/>
						<stop offset="1" style="stop-color:#CC912B"/>
					</linearGradient>
					<path class="st4" d="M19.4,23c1.4,0,4.7,0.1,5.4,0.1c2,0.2,4,0.4,6,0.7c0.3,0.1,0.4,0.4,0,0.4c-0.4,0-5.1,0.1-5.8,0.1&#xA;						s-5.5,0.1-6-0.7C18.4,23,19,23,19.4,23z"/>
					
						<linearGradient gradientTransform="matrix(1 0 0 -1 0 -1382)" gradientUnits="userSpaceOnUse" id="SVGID_3_" x1="37.2039" x2="37.0424" y1="-1411.1991" y2="-1410.153">
						<stop offset="0" style="stop-color:#F4EB44"/>
						<stop offset="1" style="stop-color:#CC912B"/>
					</linearGradient>
					<path class="st5" d="M37.5,28.1c-0.2-0.2-0.7,0.3-0.8,0.6s0,0.4,0.1,0.5c0.2,0,0.4-0.1,0.5-0.2C37.4,28.9,37.8,28.4,37.5,28.1z"/>
					
						<linearGradient gradientTransform="matrix(1 0 0 -1 0 -1382)" gradientUnits="userSpaceOnUse" id="SVGID_4_" x1="37.3566" x2="37.1259" y1="-1413.819" y2="-1412.3806">
						<stop offset="0" style="stop-color:#F4EB44"/>
						<stop offset="1" style="stop-color:#CC912B"/>
					</linearGradient>
					<path class="st6" d="M37.4,30.3c-0.3,0.4-0.6,0.7-0.7,0.9c-0.2,0.2,0,0.5,0.2,0.5c0.2,0.1,0.6,0.2,1-0.6L37.4,30.3L37.4,30.3z"/>
					
						<linearGradient gradientTransform="matrix(1 0 0 -1 0 -1382)" gradientUnits="userSpaceOnUse" id="SVGID_5_" x1="36.4301" x2="36.2455" y1="-1410.9218" y2="-1409.7758">
						<stop offset="0" style="stop-color:#F4EB44"/>
						<stop offset="1" style="stop-color:#CC912B"/>
					</linearGradient>
					<path class="st7" d="M36.1,28c-0.2,0.2-0.7,0.6-0.3,0.8c0.3,0.2,0.5,0,0.7-0.2s0.7-0.7,0.5-1C36.8,27.5,36.3,27.9,36.1,28z"/>
					
						<linearGradient gradientTransform="matrix(1 0 0 -1 0 -1382)" gradientUnits="userSpaceOnUse" id="SVGID_6_" x1="35.5029" x2="35.3569" y1="-1410.3943" y2="-1409.5021">
						<stop offset="0" style="stop-color:#F4EB44"/>
						<stop offset="1" style="stop-color:#CC912B"/>
					</linearGradient>
					<path class="st8" d="M35,27.9c-0.7,0.4,0.1,0.7,0.5,0.4c0.2-0.2,0.7-0.6,0.5-0.8C35.9,27.2,35.3,27.8,35,27.9z"/>
					
						<linearGradient gradientTransform="matrix(1 0 0 -1 0 -1382)" gradientUnits="userSpaceOnUse" id="SVGID_7_" x1="34.8536" x2="34.7075" y1="-1410.0028" y2="-1409.0951">
						<stop offset="0" style="stop-color:#F4EB44"/>
						<stop offset="1" style="stop-color:#CC912B"/>
					</linearGradient>
					<path class="st9" d="M35.1,27c-0.3,0.2-1.3,0.5-1,0.9c0.2,0.2,0.5,0,0.7-0.1c0.1-0.1,0.8-0.6,0.7-0.8&#xA;						C35.4,26.9,35.2,27,35.1,27L35.1,27z"/>
					
						<linearGradient gradientTransform="matrix(1 0 0 -1 0 -1382)" gradientUnits="userSpaceOnUse" id="SVGID_8_" x1="34.1895" x2="34.051" y1="-1409.4471" y2="-1408.5396">
						<stop offset="0" style="stop-color:#F4EB44"/>
						<stop offset="1" style="stop-color:#CC912B"/>
					</linearGradient>
					<path class="st10" d="M33.4,26.9c-0.2,0.2-0.2,0.9,0.5,0.6c0.7-0.3,1.2-0.7,1.1-0.9C34.8,26.3,34,26.5,33.4,26.9L33.4,26.9z"/>
					
						<linearGradient gradientTransform="matrix(1 0 0 -1 0 -1382)" gradientUnits="userSpaceOnUse" id="SVGID_9_" x1="33.4376" x2="33.3068" y1="-1408.6876" y2="-1407.9032">
						<stop offset="0" style="stop-color:#F4EB44"/>
						<stop offset="1" style="stop-color:#CC912B"/>
					</linearGradient>
					<path class="st11" d="M33.6,25.9c-0.2,0.1-0.6,0.2-0.8,0.4s-0.4,0.7,0.5,0.4c0.9-0.2,0.9-0.6,0.8-0.7&#xA;						C34,25.7,33.7,25.8,33.6,25.9L33.6,25.9z"/>
					
						<linearGradient gradientTransform="matrix(1 0 0 -1 0 -1382)" gradientUnits="userSpaceOnUse" id="SVGID_10_" x1="33.1175" x2="33.0098" y1="-1408.0707" y2="-1407.4015">
						<stop offset="0" style="stop-color:#F4EB44"/>
						<stop offset="1" style="stop-color:#CC912B"/>
					</linearGradient>
					<path class="st12" d="M32.5,25.5c-0.2,0-0.4,0.2-0.3,0.4c0.1,0.2,0.6,0.3,1.2,0.1s0.6-0.3,0.5-0.5&#xA;						C33.8,25.3,33.2,25.4,32.5,25.5z"/>
					
						<linearGradient gradientTransform="matrix(1 0 0 -1 0 -1382)" gradientUnits="userSpaceOnUse" id="SVGID_11_" x1="32.5576" x2="32.4576" y1="-1407.3198" y2="-1406.6814">
						<stop offset="0" style="stop-color:#F4EB44"/>
						<stop offset="1" style="stop-color:#CC912B"/>
					</linearGradient>
					<path class="st13" d="M32,24.8c-0.3,0.1-0.3,0.2-0.3,0.3s0.2,0.3,0.8,0.2s0.9-0.3,0.9-0.5S32.4,24.7,32,24.8L32,24.8z"/>
					
						<linearGradient gradientTransform="matrix(1 0 0 -1 0 -1382)" gradientUnits="userSpaceOnUse" id="SVGID_12_" x1="32.3645" x2="32.2645" y1="-1406.618" y2="-1405.9722">
						<stop offset="0" style="stop-color:#F4EB44"/>
						<stop offset="1" style="stop-color:#CC912B"/>
					</linearGradient>
					<path class="st14" d="M31.9,24c-0.6,0-0.7,0.7,0.1,0.6c0.6,0,1.2-0.2,1.2-0.3C33.2,24.1,32.4,24,31.9,24z"/>
					
						<linearGradient gradientTransform="matrix(1 0 0 -1 0 -1382)" gradientUnits="userSpaceOnUse" id="SVGID_13_" x1="36.3418" x2="35.8107" y1="-1409.2656" y2="-1405.8793">
						<stop offset="0" style="stop-color:#F4EB44"/>
						<stop offset="1" style="stop-color:#CC912B"/>
					</linearGradient>
					<path class="st15" d="M33.9,24.2c0.9,0,1.8,0,2.8,0.1c0.6,0,1.1,0.2,1.4,0.7c0.2,0.4-0.2,1-0.3,1.3c-0.3,0.3-0.6,0.7-0.9,0.9&#xA;						c-0.2,0.2-0.5-0.1-0.2-0.4c-0.4,0.2-0.9,0.2-0.7-0.3c-0.3,0.2-0.9,0.3-0.6-0.4c-0.2,0.2-0.9,0.2-0.5-0.4&#xA;						c-0.3,0.1-0.7-0.1-0.5-0.4c-0.4,0.1-0.7-0.2-0.2-0.5C33.7,24.7,33.6,24.2,33.9,24.2L33.9,24.2z"/>
					
						<linearGradient gradientTransform="matrix(1 0 0 -1 0 -1382)" gradientUnits="userSpaceOnUse" id="SVGID_14_" x1="34.9372" x2="33.9757" y1="-1410.0884" y2="-1404.0198">
						<stop offset="0" style="stop-color:#F4EB44"/>
						<stop offset="1" style="stop-color:#CC912B"/>
					</linearGradient>
					<path class="st16" d="M28.4,22.9c0.6,0,2.6,0.1,3.4,0.1c0.7,0,2.5,0,3.1-0.1c1-0.1,2-0.1,2.9,0c0.7,0.1,2.1,0.2,2.3,0.8&#xA;						c0.2,0.7-0.2,1.1-0.7,1.3c-0.9,0.5-1.5,1.5-1.5,2.5c-0.2-0.1-0.7-0.2-0.4-0.7c0.2-0.3,0.9-1.4,0.7-1.9&#xA;						c-0.2-0.5-0.7-0.9-2.2-0.9c-1.4,0-3.3,0-4-0.1c-0.7-0.1-3.2-0.8-3.8-0.8C28.2,23.1,28.2,23,28.4,22.9L28.4,22.9z"/>
					
						<linearGradient gradientTransform="matrix(1 0 0 -1 0 -1382)" gradientUnits="userSpaceOnUse" id="SVGID_15_" x1="36.1028" x2="35.8413" y1="-1413.5116" y2="-1411.8579">
						<stop offset="0" style="stop-color:#F4EB44"/>
						<stop offset="1" style="stop-color:#CC912B"/>
					</linearGradient>
					<path class="st17" d="M36.4,29.8c-0.3,0.3-0.9,1-1.3,1.3c-0.2,0.2-0.1,0.7,0.3,0.5c0.7-0.4,1.2-1,1.5-1.7&#xA;						C36.9,29.8,36.6,29.8,36.4,29.8z"/>
					
						<linearGradient gradientTransform="matrix(1 0 0 -1 0 -1382)" gradientUnits="userSpaceOnUse" id="SVGID_16_" x1="34.643" x2="34.3891" y1="-1413.2004" y2="-1411.5776">
						<stop offset="0" style="stop-color:#F4EB44"/>
						<stop offset="1" style="stop-color:#CC912B"/>
					</linearGradient>
					<path class="st18" d="M35.4,29.4c-0.6,0.4-1.9,1.3-2.2,1.5c-0.2,0.2-0.5,0.6,0.2,0.5c1.1-0.2,2-0.8,2.6-1.7&#xA;						C35.9,29.6,35.6,29.5,35.4,29.4L35.4,29.4z"/>
					
						<linearGradient gradientTransform="matrix(1 0 0 -1 0 -1382)" gradientUnits="userSpaceOnUse" id="SVGID_17_" x1="32.8901" x2="32.6209" y1="-1412.804" y2="-1411.0811">
						<stop offset="0" style="stop-color:#F4EB44"/>
						<stop offset="1" style="stop-color:#CC912B"/>
					</linearGradient>
					<path class="st19" d="M34.4,28.8c-1.2,0.7-2.4,1.2-3.6,1.7c-0.3,0.1-0.2,0.4,0.2,0.5c0.8,0.1,1.6-0.1,2.2-0.6&#xA;						c0.7-0.4,1.2-0.8,1.8-1.3C34.8,29,34.5,28.9,34.4,28.8z"/>
					
						<linearGradient gradientTransform="matrix(1 0 0 -1 0 -1382)" gradientUnits="userSpaceOnUse" id="SVGID_18_" x1="31.2265" x2="30.9496" y1="-1412.1575" y2="-1410.3961">
						<stop offset="0" style="stop-color:#F4EB44"/>
						<stop offset="1" style="stop-color:#CC912B"/>
					</linearGradient>
					<path class="st20" d="M33.4,28c-1.7,0.7-3.3,1.4-5,1.9c-0.3,0.1-0.5,0.3-0.1,0.5c0.7,0.1,1.3,0.1,2-0.1&#xA;						c0.6-0.2,2.9-0.9,3.8-1.8C33.9,28.4,33.6,28.2,33.4,28L33.4,28z"/>
					
						<linearGradient gradientTransform="matrix(1 0 0 -1 0 -1382)" gradientUnits="userSpaceOnUse" id="SVGID_19_" x1="29.4782" x2="29.2397" y1="-1411.2612" y2="-1409.7692">
						<stop offset="0" style="stop-color:#F4EB44"/>
						<stop offset="1" style="stop-color:#CC912B"/>
					</linearGradient>
					<path class="st21" d="M25.8,29c0.6-0.1,5.3-1.2,6.6-1.7c0.4-0.1,0.5,0,0.6,0.2c0.1,0.2,0.1,0.3-0.1,0.4h-0.1&#xA;						c-0.2,0.1-3.8,1.6-5.5,1.7c-0.5,0-1-0.2-1.4-0.3C25.6,29.2,25.7,29.2,25.8,29z"/>
					
						<linearGradient gradientTransform="matrix(1 0 0 -1 0 -1382)" gradientUnits="userSpaceOnUse" id="SVGID_20_" x1="27.9848" x2="27.8078" y1="-1410.0671" y2="-1408.9596">
						<stop offset="0" style="stop-color:#F4EB44"/>
						<stop offset="1" style="stop-color:#CC912B"/>
					</linearGradient>
					<path class="st22" d="M23.6,27.8c0.8-0.1,6.2-1,7.7-1.3c0.6-0.2,0.8-0.1,0.9,0.1c0.1,0.2,0.1,0.4-0.3,0.6s-5.2,1.2-6,1.3&#xA;						c-0.7,0.1-1.5-0.1-2.2-0.4C23.3,27.9,23.6,27.8,23.6,27.8L23.6,27.8z"/>
					
						<linearGradient gradientTransform="matrix(1 0 0 -1 0 -1382)" gradientUnits="userSpaceOnUse" id="SVGID_21_" x1="26.7291" x2="26.5292" y1="-1408.8495" y2="-1407.5812">
						<stop offset="0" style="stop-color:#F4EB44"/>
						<stop offset="1" style="stop-color:#CC912B"/>
					</linearGradient>
					<path class="st23" d="M21.9,26.4c0.6,0,7.5-0.5,8.9-0.8c0.5,0,0.8-0.1,0.8,0.2c0,0.2,0,0.3-0.4,0.4c-2.6,0.6-5.4,0.9-8,1.1&#xA;						C22.3,27.2,21.2,26.4,21.9,26.4z"/>
					
						<linearGradient gradientTransform="matrix(1 0 0 -1 0 -1382)" gradientUnits="userSpaceOnUse" id="SVGID_22_" x1="25.7123" x2="25.397" y1="-1407.9479" y2="-1405.9635">
						<stop offset="0" style="stop-color:#F4EB44"/>
						<stop offset="1" style="stop-color:#CC912B"/>
					</linearGradient>
					<path class="st24" d="M20.2,24.8c0.8,0,5,0,5.5,0l4.6-0.2c0.4,0,0.8,0.1,0.8,0.2s-0.1,0.2-0.6,0.3c-2.9,0.4-5.8,0.6-8.8,0.6&#xA;						c-0.7,0-1.3-0.2-1.8-0.7C19.9,24.8,20,24.8,20.2,24.8L20.2,24.8z"/>
					<path class="st2" d="M39.2,23.6c-0.2-0.1-0.2-0.2,0.1-0.2c0.2,0,0.3,0.1,0.5,0.2S40,23.9,40,24l0,0c0,0.2,0,0.2-0.1,0.3&#xA;						c-0.1,0.2-0.2,0.2-0.3,0.3c-0.1,0.1-0.2,0.1-0.2,0c-0.1-0.1-0.1-0.2,0-0.2l0,0l0,0c0.1-0.1,0.2-0.2,0.2-0.2&#xA;						c0-0.1,0.1-0.2,0-0.2c0-0.1-0.1-0.2-0.2-0.2C39.4,23.8,39.3,23.7,39.2,23.6z"/>
					<path class="st2" d="M51,32.1c0.4,0.2,1.6,0.6,1.9-0.2c0.6,0.4,1.4,0.3,1.9-0.2c0.7,0.2,1.7,0.6,2-0.3c0.7,0.2,2.4,0.6,2.6-0.5&#xA;						c1,0.2,2.5,0.2,2.6-0.8c0.9,0,2.4-0.2,2.4-1.2c0.9,0,2.4-0.6,2.2-1.3c0.7-0.1,1.8-0.9,1.8-1.5c0.7-0.2,1.7-0.8,1.5-1.7&#xA;						c0.5-0.2,1.2-0.6,1.2-1.1c0-0.4-0.3-0.8-0.7-0.8s-2,0.2-2.6,0.2s-7.3-0.2-8.9-0.1c-1.5,0.1-3,0.1-4.6-0.1&#xA;						c-1-0.1-5.1-0.3-5.7,0.8c-0.4,0.8-0.1,1.2,0.2,1.4c1,0.6,1.6,1.7,1.6,2.9C50.8,29.8,50.5,30.8,51,32.1L51,32.1z"/>
					
						<linearGradient gradientTransform="matrix(1 0 0 -1 0 -1382)" gradientUnits="userSpaceOnUse" id="SVGID_23_" x1="63.2011" x2="65.4701" y1="-1408.334" y2="-1402.9884">
						<stop offset="0" style="stop-color:#F4EB44"/>
						<stop offset="1" style="stop-color:#CC912B"/>
					</linearGradient>
					<path class="st25" d="M69.8,23c-1.5,0-4.8,0.1-5.4,0.1c-2,0.2-4,0.4-6,0.7c-0.3,0.1-0.4,0.4,0,0.4c0.4,0,5.1,0.1,5.8,0.1&#xA;						c0.7,0,5.5,0.1,6-0.7C70.8,23,70.2,23.1,69.8,23L69.8,23z"/>
					
						<linearGradient gradientTransform="matrix(1 0 0 -1 0 -1382)" gradientUnits="userSpaceOnUse" id="SVGID_24_" x1="51.7494" x2="52.1032" y1="-1411.0739" y2="-1410.2356">
						<stop offset="0" style="stop-color:#F4EB44"/>
						<stop offset="1" style="stop-color:#CC912B"/>
					</linearGradient>
					<path class="st26" d="M51.6,28.1c0.2-0.2,0.7,0.3,0.7,0.6c0.1,0.2,0,0.4-0.1,0.5c-0.2,0.1-0.4-0.1-0.5-0.2&#xA;						C51.7,28.9,51.3,28.4,51.6,28.1L51.6,28.1z"/>
					
						<linearGradient gradientTransform="matrix(1 0 0 -1 0 -1382)" gradientUnits="userSpaceOnUse" id="SVGID_25_" x1="51.7616" x2="52.2769" y1="-1413.7839" y2="-1412.561">
						<stop offset="0" style="stop-color:#F4EB44"/>
						<stop offset="1" style="stop-color:#CC912B"/>
					</linearGradient>
					<path class="st27" d="M51.8,30.3c0.3,0.4,0.6,0.7,0.7,0.9c0.2,0.2-0.1,0.5-0.2,0.5s-0.5,0.2-0.9-0.6L51.8,30.3L51.8,30.3z"/>
					
						<linearGradient gradientTransform="matrix(1 0 0 -1 0 -1382)" gradientUnits="userSpaceOnUse" id="SVGID_26_" x1="52.5624" x2="52.9315" y1="-1410.7892" y2="-1409.9125">
						<stop offset="0" style="stop-color:#F4EB44"/>
						<stop offset="1" style="stop-color:#CC912B"/>
					</linearGradient>
					<path class="st28" d="M53,28c0.2,0.2,0.7,0.6,0.3,0.8c-0.4,0.2-0.5,0-0.7-0.2s-0.7-0.7-0.5-1C52.4,27.5,52.8,27.9,53,28z"/>
					
						<linearGradient gradientTransform="matrix(1 0 0 -1 0 -1382)" gradientUnits="userSpaceOnUse" id="SVGID_27_" x1="53.5058" x2="53.7903" y1="-1410.298" y2="-1409.6287">
						<stop offset="0" style="stop-color:#F4EB44"/>
						<stop offset="1" style="stop-color:#CC912B"/>
					</linearGradient>
					<path class="st29" d="M54.1,27.9c0.7,0.4-0.1,0.7-0.5,0.4c-0.2-0.2-0.7-0.6-0.5-0.8C53.3,27.2,53.8,27.8,54.1,27.9z"/>
					
						<linearGradient gradientTransform="matrix(1 0 0 -1 0 -1382)" gradientUnits="userSpaceOnUse" id="SVGID_28_" x1="54.1758" x2="54.4375" y1="-1409.8513" y2="-1409.2279">
						<stop offset="0" style="stop-color:#F4EB44"/>
						<stop offset="1" style="stop-color:#CC912B"/>
					</linearGradient>
					<path class="st30" d="M54,27c0.3,0.2,1.3,0.5,1,0.9c-0.2,0.2-0.5,0-0.7-0.1c-0.1-0.1-0.9-0.6-0.7-0.8&#xA;						C53.7,26.9,53.9,26.9,54,27L54,27z"/>
					
						<linearGradient gradientTransform="matrix(1 0 0 -1 0 -1382)" gradientUnits="userSpaceOnUse" id="SVGID_29_" x1="54.8948" x2="55.1871" y1="-1409.3046" y2="-1408.6201">
						<stop offset="0" style="stop-color:#F4EB44"/>
						<stop offset="1" style="stop-color:#CC912B"/>
					</linearGradient>
					<path class="st31" d="M55.7,26.9c0.3,0.2,0.2,0.9-0.5,0.6c-0.7-0.3-1.2-0.7-1-0.9C54.3,26.3,55.1,26.5,55.7,26.9z"/>
					
						<linearGradient gradientTransform="matrix(1 0 0 -1 0 -1382)" gradientUnits="userSpaceOnUse" id="SVGID_30_" x1="55.629" x2="55.8906" y1="-1408.6497" y2="-1408.0266">
						<stop offset="0" style="stop-color:#F4EB44"/>
						<stop offset="1" style="stop-color:#CC912B"/>
					</linearGradient>
					<path class="st32" d="M55.5,25.9c0.2,0.1,0.6,0.2,0.8,0.4s0.4,0.7-0.5,0.4c-0.9-0.2-0.9-0.6-0.7-0.7&#xA;						C55.2,25.7,55.4,25.8,55.5,25.9L55.5,25.9z"/>
					
						<linearGradient gradientTransform="matrix(1 0 0 -1 0 -1382)" gradientUnits="userSpaceOnUse" id="SVGID_31_" x1="55.9912" x2="56.2835" y1="-1408.0391" y2="-1407.3391">
						<stop offset="0" style="stop-color:#F4EB44"/>
						<stop offset="1" style="stop-color:#CC912B"/>
					</linearGradient>
					<path class="st33" d="M56.6,25.5c0.2,0,0.4,0.2,0.4,0.4c-0.1,0.2-0.6,0.3-1.2,0.1s-0.6-0.3-0.5-0.5&#xA;						C55.3,25.3,55.9,25.4,56.6,25.5z"/>
					
						<linearGradient gradientTransform="matrix(1 0 0 -1 0 -1382)" gradientUnits="userSpaceOnUse" id="SVGID_32_" x1="56.4631" x2="56.7862" y1="-1407.3435" y2="-1406.5743">
						<stop offset="0" style="stop-color:#F4EB44"/>
						<stop offset="1" style="stop-color:#CC912B"/>
					</linearGradient>
					<path class="st34" d="M57.1,24.8c0.3,0.1,0.3,0.2,0.3,0.3s-0.2,0.3-0.8,0.2c-0.6-0.1-0.9-0.3-0.9-0.5S56.8,24.7,57.1,24.8z"/>
					
						<linearGradient gradientTransform="matrix(1 0 0 -1 0 -1382)" gradientUnits="userSpaceOnUse" id="SVGID_33_" x1="56.671" x2="57.0171" y1="-1406.6857" y2="-1405.8859">
						<stop offset="0" style="stop-color:#F4EB44"/>
						<stop offset="1" style="stop-color:#CC912B"/>
					</linearGradient>
					<path class="st35" d="M57.2,24c0.6,0,0.6,0.7-0.1,0.6c-0.5,0-1.2-0.2-1.2-0.3C56,24.1,56.8,24,57.2,24z"/>
					
						<linearGradient gradientTransform="matrix(1 0 0 -1 0 -1382)" gradientUnits="userSpaceOnUse" id="SVGID_34_" x1="52.2054" x2="53.7283" y1="-1409.1161" y2="-1405.5321">
						<stop offset="0" style="stop-color:#F4EB44"/>
						<stop offset="1" style="stop-color:#CC912B"/>
					</linearGradient>
					<path class="st36" d="M55.2,24.2c-0.9,0-1.8,0-2.8,0.1c-0.6,0-1.1,0.2-1.4,0.7c-0.2,0.4,0.2,1,0.3,1.3c0.2,0.3,0.6,0.7,0.9,0.9&#xA;						c0.2,0.2,0.5-0.1,0.2-0.4c0.4,0.2,0.9,0.2,0.7-0.3c0.3,0.2,0.9,0.3,0.6-0.4c0.2,0.2,0.9,0.2,0.5-0.4c0.3,0.1,0.7-0.1,0.5-0.4&#xA;						c0.4,0.1,0.7-0.2,0.2-0.5C55.4,24.7,55.5,24.2,55.2,24.2z"/>
					
						<linearGradient gradientTransform="matrix(1 0 0 -1 0 -1382)" gradientUnits="userSpaceOnUse" id="SVGID_35_" x1="52.8177" x2="55.9776" y1="-1410.3236" y2="-1402.8815">
						<stop offset="0" style="stop-color:#F4EB44"/>
						<stop offset="1" style="stop-color:#CC912B"/>
					</linearGradient>
					<path class="st37" d="M60.7,22.9c-0.6,0-2.6,0.1-3.4,0.1c-0.7,0-2.5,0-3.1-0.1c-1-0.1-2-0.1-2.9,0c-0.7,0.1-2.1,0.2-2.3,0.8&#xA;						c-0.2,0.7,0.3,1.1,0.7,1.3c0.9,0.5,1.4,1.5,1.4,2.5c0.2-0.1,0.7-0.2,0.4-0.7c-0.2-0.3-1-1.4-0.7-1.9c0.2-0.5,0.7-0.9,2.2-0.9&#xA;						s3.3,0,4-0.1c0.7-0.1,3.2-0.7,3.8-0.8C60.9,23.1,60.9,22.9,60.7,22.9L60.7,22.9z"/>
					
						<linearGradient gradientTransform="matrix(1 0 0 -1 0 -1382)" gradientUnits="userSpaceOnUse" id="SVGID_36_" x1="52.8945" x2="53.4021" y1="-1413.2782" y2="-1412.0784">
						<stop offset="0" style="stop-color:#F4EB44"/>
						<stop offset="1" style="stop-color:#CC912B"/>
					</linearGradient>
					<path class="st38" d="M52.7,29.8c0.3,0.3,0.9,1,1.3,1.3c0.2,0.2,0.1,0.7-0.3,0.5c-0.7-0.3-1.2-0.9-1.5-1.7&#xA;						C52.3,29.8,52.5,29.8,52.7,29.8z"/>
					
						<linearGradient gradientTransform="matrix(1 0 0 -1 0 -1382)" gradientUnits="userSpaceOnUse" id="SVGID_37_" x1="54.3789" x2="54.8175" y1="-1412.9336" y2="-1411.8948">
						<stop offset="0" style="stop-color:#F4EB44"/>
						<stop offset="1" style="stop-color:#CC912B"/>
					</linearGradient>
					<path class="st39" d="M53.7,29.4c0.6,0.4,2,1.3,2.2,1.5c0.2,0.2,0.4,0.6-0.2,0.5c-1.1-0.2-2-0.8-2.6-1.7&#xA;						C53.3,29.6,53.5,29.5,53.7,29.4z"/>
					
						<linearGradient gradientTransform="matrix(1 0 0 -1 0 -1382)" gradientUnits="userSpaceOnUse" id="SVGID_38_" x1="56.1" x2="56.5153" y1="-1412.5394" y2="-1411.5549">
						<stop offset="0" style="stop-color:#F4EB44"/>
						<stop offset="1" style="stop-color:#CC912B"/>
					</linearGradient>
					<path class="st40" d="M54.7,28.8c1.2,0.7,2.4,1.2,3.6,1.7c0.3,0.1,0.2,0.4-0.2,0.5c-0.8,0.1-1.6-0.1-2.2-0.6&#xA;						c-0.7-0.4-1.2-0.8-1.8-1.3C54.4,29,54.6,28.9,54.7,28.8L54.7,28.8z"/>
					
						<linearGradient gradientTransform="matrix(1 0 0 -1 0 -1382)" gradientUnits="userSpaceOnUse" id="SVGID_39_" x1="57.7683" x2="58.2451" y1="-1411.9412" y2="-1410.8259">
						<stop offset="0" style="stop-color:#F4EB44"/>
						<stop offset="1" style="stop-color:#CC912B"/>
					</linearGradient>
					<path class="st41" d="M55.7,28c1.7,0.7,3.3,1.4,5,1.9c0.3,0.1,0.5,0.3,0.1,0.5c-0.7,0.1-1.3,0.1-2-0.1&#xA;						c-0.6-0.2-2.9-0.9-3.8-1.8C55.3,28.4,55.5,28.2,55.7,28z"/>
					
						<linearGradient gradientTransform="matrix(1 0 0 -1 0 -1382)" gradientUnits="userSpaceOnUse" id="SVGID_40_" x1="59.4149" x2="60.1071" y1="-1411.2108" y2="-1409.5879">
						<stop offset="0" style="stop-color:#F4EB44"/>
						<stop offset="1" style="stop-color:#CC912B"/>
					</linearGradient>
					<path class="st42" d="M63.4,29c-0.6-0.1-5.3-1.2-6.6-1.7c-0.4-0.1-0.5,0-0.6,0.2c-0.1,0.2-0.1,0.3,0.1,0.4l0,0h0.1&#xA;						c0.2,0.1,3.8,1.6,5.5,1.7c0.5,0,1-0.2,1.4-0.3C63.5,29.1,63.4,29.1,63.4,29L63.4,29z"/>
					
						<linearGradient gradientTransform="matrix(1 0 0 -1 0 -1382)" gradientUnits="userSpaceOnUse" id="SVGID_41_" x1="60.822" x2="61.8372" y1="-1410.5906" y2="-1408.1908">
						<stop offset="0" style="stop-color:#F4EB44"/>
						<stop offset="1" style="stop-color:#CC912B"/>
					</linearGradient>
					<path class="st43" d="M65.6,27.8c-0.7-0.1-6.1-1-7.6-1.3c-0.6-0.2-0.8-0.1-0.9,0.1c-0.1,0.2-0.1,0.4,0.3,0.6s5.2,1.2,6,1.3&#xA;						c0.7,0.1,1.5-0.1,2.2-0.4C65.8,27.9,65.6,27.8,65.6,27.8L65.6,27.8z"/>
					
						<linearGradient gradientTransform="matrix(1 0 0 -1 0 -1382)" gradientUnits="userSpaceOnUse" id="SVGID_42_" x1="61.8172" x2="63.1632" y1="-1409.7185" y2="-1406.542">
						<stop offset="0" style="stop-color:#F4EB44"/>
						<stop offset="1" style="stop-color:#CC912B"/>
					</linearGradient>
					<path class="st44" d="M67.2,26.4c-0.6,0-7.4-0.5-8.9-0.8c-0.5,0-0.8-0.1-0.8,0.2c0,0.2,0,0.3,0.4,0.4c2.6,0.6,5.4,0.9,8,1.1&#xA;						C66.9,27.2,67.9,26.4,67.2,26.4z"/>
					
						<linearGradient gradientTransform="matrix(1 0 0 -1 0 -1382)" gradientUnits="userSpaceOnUse" id="SVGID_43_" x1="62.6265" x2="64.3879" y1="-1408.97" y2="-1404.8167">
						<stop offset="0" style="stop-color:#F4EB44"/>
						<stop offset="1" style="stop-color:#CC912B"/>
					</linearGradient>
					<path class="st45" d="M68.9,24.8c-0.8,0-5,0-5.5,0l-4.7-0.2c-0.4,0-0.8,0.1-0.8,0.2s0.1,0.2,0.6,0.3c2.9,0.4,5.8,0.6,8.8,0.6&#xA;						c0.7,0,1.3-0.2,1.8-0.7C69.3,24.8,69.1,24.8,68.9,24.8L68.9,24.8z"/>
					<path class="st2" d="M49.9,23.5c0.2,0,0.2,0.1,0.1,0.2c-0.2,0.1-0.2,0.2-0.3,0.2c-0.1,0.1-0.2,0.1-0.2,0.2l0,0&#xA;						c0,0.1,0,0.2,0,0.2c0.1,0.1,0.2,0.2,0.2,0.2c0.1,0.1,0.1,0.2,0,0.2c-0.1,0.1-0.2,0.1-0.2,0l0,0c-0.2-0.1-0.2-0.2-0.3-0.4&#xA;						c-0.1-0.1-0.1-0.2-0.1-0.4l0,0c0-0.2,0.1-0.2,0.2-0.3C49.5,23.6,49.7,23.5,49.9,23.5z"/>
					<path class="st2" d="M44.6,35.1c3.9,0,7-2.3,7-5.3c0-2.9-3.1-5.2-7-5.2s-7,2.3-7,5.2S40.7,35.1,44.6,35.1z"/>
					
						<linearGradient gradientTransform="matrix(1 0 0 -1 0 -1382)" gradientUnits="userSpaceOnUse" id="SVGID_44_" x1="39.0225" x2="50.1386" y1="-1414.8529" y2="-1408.9412">
						<stop offset="0" style="stop-color:#F4EB44"/>
						<stop offset="1" style="stop-color:#CC912B"/>
					</linearGradient>
					<path class="st46" d="M44.6,34.6c1.6,0,3.1-0.5,4.5-1.4c1.1-0.7,1.8-2,1.8-3.3c-0.1-1.3-0.7-2.6-1.8-3.2&#xA;						c-2.7-1.8-6.3-1.8-8.9,0c-1.1,0.7-1.8,2-1.8,3.2c0.1,1.3,0.7,2.6,1.8,3.3C41.4,34.1,43,34.6,44.6,34.6z M49.3,33.4&#xA;						c-2.8,1.9-6.5,1.9-9.4,0c-1.2-0.8-1.9-2.2-2-3.6c0.1-1.4,0.7-2.7,2-3.5c2.8-1.9,6.5-1.9,9.4,0c1.2,0.8,1.9,2.1,2,3.5&#xA;						C51.2,31.3,50.4,32.6,49.3,33.4L49.3,33.4z"/>
					<path class="st2" d="M45.6,33.4l-1.1,0.7l-1-0.7v6.5L42,38.5c-1.6-1.6-2.8-3.4-3.6-5.5l-0.2-0.5l0.3-0.4&#xA;						C40.7,28.9,41.9,25,42,21v-0.9h5.4l0.1,0.8c0.2,2.3,1,8.9,3.4,11.1l0.4,0.4L51,33c-1,2.6-3.6,5.2-3.6,5.4L45.8,40L45.6,33.4z"/>
					
						<linearGradient gradientTransform="matrix(1 0 0 -1 0 -1382)" gradientUnits="userSpaceOnUse" id="SVGID_45_" x1="38.497" x2="50.7494" y1="-1411.8048" y2="-1411.8048">
						<stop offset="0" style="stop-color:#F4EB44"/>
						<stop offset="1" style="stop-color:#CC912B"/>
					</linearGradient>
					<path class="st47" d="M46,32.9l-1.4,0.9L43.2,33v6.3l-1.1-1c-1.6-1.5-2.8-3.4-3.6-5.4l-0.1-0.3l0.2-0.2&#xA;						c2.2-3.4,3.5-7.3,3.6-11.3v-0.7H47v0.6c0,0.1,0.6,8.6,3.5,11.3l0.3,0.2l-0.2,0.4c-0.9,1.9-2.2,3.7-3.6,5.2l-1,1.1L46,32.9&#xA;						L46,32.9z"/>
					<path class="st2" d="M39.2,32.7c0.7,1.9,2,3.6,3.5,5.1v-6l1.9,1.2l2.1-1.2v5.9c0,0,2.6-2.6,3.5-5.1c-3.2-2.9-3.7-11.8-3.7-11.8&#xA;						h-3.6C42.7,25.1,41.5,29.3,39.2,32.7"/>
					
						<linearGradient gradientTransform="matrix(1 0 0 -1 0 -1382)" gradientUnits="userSpaceOnUse" id="SVGID_46_" x1="46.7028" x2="48.7575" y1="-1419.4313" y2="-1413.4596">
						<stop offset="0" style="stop-color:#F4EB44"/>
						<stop offset="1" style="stop-color:#CC912B"/>
					</linearGradient>
					<polygon class="st48" points="47.4,31 48.2,32.8 49.9,32.7 48.3,33.1 46.7,37.5 48,32.9"/>
					
						<linearGradient gradientTransform="matrix(1 0 0 -1 0 -1382)" gradientUnits="userSpaceOnUse" id="SVGID_47_" x1="40.3218" x2="42.2369" y1="-1418.6993" y2="-1413.1462">
						<stop offset="0" style="stop-color:#F4EB44"/>
						<stop offset="1" style="stop-color:#CC912B"/>
					</linearGradient>
					<polygon class="st49" points="41.7,31 40.9,32.8 39.3,32.7 40.8,33 42.5,37.5 41.1,32.9"/>
					
						<linearGradient gradientTransform="matrix(1 0 0 -1 0 -1382)" gradientUnits="userSpaceOnUse" id="SVGID_48_" x1="43.9909" x2="46.3" y1="-1412.9539" y2="-1406.2345">
						<stop offset="0" style="stop-color:#F4EB44"/>
						<stop offset="1" style="stop-color:#CC912B"/>
					</linearGradient>
					<path class="st50" d="M44.6,25.1c-0.7,1.5-1,3.1-1.1,4.7c0.2,0.3,0.7,0.6,1.1,0.5c0.7,0,1.2-0.2,1.2-0.6&#xA;						C45.6,28.2,45.2,26.6,44.6,25.1 M46.5,30c-0.4,0.7-1.1,1-1.8,1c-0.7-0.1-1.4-0.4-1.9-1c0-2.5,1.7-6.4,1.8-6.4&#xA;						C44.7,23.6,46.3,27.3,46.5,30"/>
					
						<linearGradient gradientTransform="matrix(1 0 0 -1 0 -1382)" gradientUnits="userSpaceOnUse" id="SVGID_49_" x1="43.7501" x2="45.2265" y1="-1407.0769" y2="-1402.7859">
						<stop offset="0" style="stop-color:#F4EB44"/>
						<stop offset="1" style="stop-color:#CC912B"/>
					</linearGradient>
					<path class="st51" d="M42.9,21.1c0.3,0.4,0.7,0.9,1.1,1.4c0,0.2-0.7,2.4-0.7,2.4s0.7-2,0.9-2.3c0.3-0.1,0.7-0.1,1,0&#xA;						c0.1,0.1,0.9,2.3,0.9,2.3s-0.8-2.3-0.8-2.4c0.3-0.5,0.7-0.9,1-1.3l-1.2,1.2c-0.3,0-0.7,0-0.9,0L42.9,21.1"/>
				</g>
			</g>
		</g>
	</g>
</g>
</svg>