<?xml version="1.0" encoding="utf-8"?>
<svg xmlns="http://www.w3.org/2000/svg" id="Layer_1" style="enable-background:new 0 0 160 60;" version="1.1" viewBox="0 0 160 60" x="0px" y="0px">
<style type="text/css">
	.st0{fill:#FFFFFF;}
	.st1{fill:#231F20;}
	.st2{fill:#AE1F24;}
</style>
<title>Asset 17</title>
<g>
	<rect height="5.3" width="99.9" x="30.1" y="39.2"/>
	<g>
		<path class="st0" d="M41.6,42.6c-0.2,0.8-0.7,1.4-1.7,1.4c-1,0-1.6-0.6-1.6-1.6c0-1.2,0.8-2.3,2.1-2.3c0.8,0,1.4,0.4,1.4,1.3h-0.5&#xA;			c0-0.6-0.4-0.9-0.9-0.9c-1,0-1.6,1-1.6,1.9c0,0.7,0.4,1.2,1.1,1.2c0.6,0,1-0.4,1.2-0.9H41.6z"/>
		<path class="st0" d="M44.1,40c1,0,1.6,0.7,1.6,1.7c0,1.2-0.8,2.3-2,2.3c-1,0-1.6-0.6-1.6-1.6C42.1,41.1,42.9,40,44.1,40z&#xA;			 M43.7,43.5c1,0,1.5-1,1.5-1.9c0-0.7-0.4-1.2-1.1-1.2c-1,0-1.6,1-1.6,1.9C42.6,43,42.9,43.5,43.7,43.5z"/>
		<path class="st0" d="M46.7,40.1h0.5l1.3,3.1h0l0.6-3.1h0.5l-0.8,3.8h-0.5L47,40.8h0l-0.6,3.1h-0.5L46.7,40.1z"/>
		<path class="st0" d="M52.4,41.2c0-0.6-0.3-0.8-0.9-0.8c-0.4,0-0.9,0.2-0.9,0.6c0,0.4,0.3,0.5,0.6,0.6l0.5,0.1&#xA;			c0.5,0.1,0.9,0.3,0.9,1c0,0.8-0.8,1.1-1.5,1.1c-0.9,0-1.5-0.4-1.5-1.3h0.5c0,0.7,0.4,0.9,1,0.9c0.5,0,0.9-0.2,0.9-0.7&#xA;			c0-0.4-0.3-0.5-0.7-0.6L51,42c-0.4-0.1-0.8-0.4-0.8-0.9c0-0.7,0.7-1.1,1.4-1.1c0.7,0,1.4,0.4,1.4,1.2H52.4z"/>
		<path class="st0" d="M56.4,40.5h-1.3l-0.7,3.3H54l0.7-3.3h-1.3l0.1-0.4h3L56.4,40.5z"/>
		<path class="st0" d="M56.9,40.1h1.4c0.6,0,1.2,0.2,1.2,1c0,0.5-0.3,0.9-0.8,1v0c0.3,0.1,0.4,0.4,0.4,0.8c0,0.3-0.1,0.7,0,1h-0.5&#xA;			c0-0.1-0.1-0.4,0-0.8c0.2-0.9-0.3-0.8-0.6-0.8H57l-0.3,1.6h-0.5L56.9,40.1z M57.1,41.8h1.1c0.8,0,0.9-0.5,0.9-0.7&#xA;			c0-0.5-0.4-0.6-0.7-0.6h-1L57.1,41.8z"/>
		<path class="st0" d="M63.1,42.3c-0.1,0.3-0.1,0.6-0.2,0.7c-0.3,0.6-0.8,0.9-1.5,0.9c-1.1,0-1.6-0.6-1.4-1.6l0.5-2.2H61l-0.5,2.3&#xA;			c-0.2,0.7,0.2,1.1,0.9,1.1c0.8,0,1-0.5,1.1-1.2l0.5-2.2h0.5L63.1,42.3z"/>
		<path class="st0" d="M67,42.6c-0.2,0.8-0.7,1.4-1.7,1.4c-1,0-1.6-0.6-1.6-1.6c0-1.2,0.8-2.3,2.1-2.3c0.8,0,1.4,0.4,1.4,1.3h-0.5&#xA;			c0-0.6-0.4-0.9-0.9-0.9c-1,0-1.6,1-1.6,1.9c0,0.7,0.4,1.2,1.1,1.2c0.6,0,1-0.4,1.2-0.9H67z"/>
		<path class="st0" d="M70.6,40.5h-1.3l-0.7,3.3h-0.5l0.7-3.3h-1.3l0.1-0.4h3L70.6,40.5z"/>
		<path class="st0" d="M72.6,40c1,0,1.6,0.7,1.6,1.7c0,1.2-0.8,2.3-2,2.3c-1,0-1.6-0.6-1.6-1.6C70.5,41.1,71.3,40,72.6,40z&#xA;			 M72.1,43.5c1,0,1.5-1,1.5-1.9c0-0.7-0.4-1.2-1.1-1.2c-1,0-1.6,1-1.6,1.9C71,43,71.4,43.5,72.1,43.5z"/>
		<path class="st0" d="M75.1,40.1h1.4c0.6,0,1.2,0.2,1.2,1c0,0.5-0.3,0.9-0.8,1v0c0.3,0.1,0.4,0.4,0.4,0.8c0,0.3-0.1,0.7,0,1h-0.5&#xA;			c0-0.1-0.1-0.4,0-0.8c0.2-0.9-0.3-0.8-0.6-0.8h-1.1l-0.3,1.6h-0.5L75.1,40.1z M75.3,41.8h1.1c0.8,0,0.9-0.5,0.9-0.7&#xA;			c0-0.5-0.4-0.6-0.7-0.6h-1L75.3,41.8z"/>
		<path class="st0" d="M80.6,41.2c0-0.6-0.3-0.8-0.9-0.8c-0.4,0-0.9,0.2-0.9,0.6c0,0.4,0.3,0.5,0.6,0.6l0.5,0.1&#xA;			c0.5,0.1,0.9,0.3,0.9,1c0,0.8-0.8,1.1-1.5,1.1c-0.9,0-1.5-0.4-1.5-1.3h0.5c0,0.7,0.4,0.9,1,0.9c0.5,0,0.9-0.2,0.9-0.7&#xA;			c0-0.4-0.3-0.5-0.7-0.6L79.3,42c-0.4-0.1-0.8-0.4-0.8-0.9c0-0.7,0.7-1.1,1.4-1.1c0.7,0,1.4,0.4,1.4,1.2H80.6z"/>
		<path class="st0" d="M82.1,40.1H84c0.7,0,1.2,0.2,1.2,1c0,0.5-0.3,0.9-0.9,1v0c0.3,0.1,0.4,0.4,0.4,0.8c0,0.4,0,0.7,0.1,1h-1.1&#xA;			c0-0.1,0-0.2,0-0.4c0-0.2,0.1-0.4,0.1-0.6c0-0.2-0.1-0.3-0.5-0.3h-0.5l-0.3,1.3h-1.1L82.1,40.1z M82.9,41.7h0.6&#xA;			c0.4,0,0.6-0.2,0.6-0.4c0-0.1-0.1-0.3-0.4-0.3H83L82.9,41.7z"/>
		<path class="st0" d="M87,40.1h1.1l0.6,3.8h-1.1l-0.1-0.5h-1.2L86,43.8h-1.2L87,40.1z M86.7,42.5h0.7l-0.1-1.1h0L86.7,42.5z"/>
		<path class="st0" d="M92.8,42.4c-0.1,0.4-0.4,1.5-1.9,1.5c-1.1,0-1.6-0.7-1.6-1.7c0-1.2,0.8-2.2,2-2.2c0.8,0,1.6,0.4,1.6,1.5h-1.1&#xA;			c0-0.4-0.2-0.6-0.5-0.6c-0.6,0-0.9,0.7-0.9,1.3c0,0.3,0.1,0.8,0.6,0.8c0.4,0,0.6-0.2,0.6-0.6H92.8z"/>
		<path class="st0" d="M93.8,40.1h1.2l-0.8,3.8H93L93.8,40.1z"/>
		<path class="st0" d="M95.5,40.1h1.1l0.7,2h0l0.4-2h1.1l-0.8,3.8H97l-0.7-2.1h0l-0.4,2.1h-1.1L95.5,40.1z"/>
		<path class="st0" d="M101.5,43.5L101.5,43.5c-0.3,0.3-0.6,0.5-1,0.5c-1.3,0-1.5-1.1-1.5-1.6c0-1.2,0.7-2.4,2.1-2.4&#xA;			c0.8,0,1.5,0.4,1.6,1.4h-1.1c0-0.3-0.2-0.5-0.5-0.5c-0.6,0-0.9,0.7-0.9,1.3c0,0.4,0.2,0.7,0.7,0.7c0.3,0,0.6-0.1,0.7-0.4H101&#xA;			l0.2-0.8h1.5l-0.4,2.1h-0.7L101.5,43.5z"/>
		<path class="st0" d="M105.9,43.5c-0.3,0.3-0.7,0.5-1.1,0.5c-1,0-1.6-0.6-1.6-1.6c0-1.2,0.8-2.3,2.1-2.3c0.8,0,1.5,0.4,1.5,1.3&#xA;			h-0.5c0-0.6-0.5-0.8-1-0.8c-1,0-1.6,1-1.6,1.9c0,0.7,0.4,1.2,1.1,1.2c0.8,0,1.2-0.5,1.4-1.2h-1.2l0.1-0.4h1.6l-0.4,2h-0.3&#xA;			L105.9,43.5z"/>
		<path class="st0" d="M107.8,40.1h1.4c0.6,0,1.2,0.2,1.2,1c0,0.5-0.3,0.9-0.8,1v0c0.3,0.1,0.4,0.4,0.4,0.8c0,0.3-0.1,0.7,0,1h-0.5&#xA;			c0-0.1-0.1-0.4,0-0.8c0.2-0.9-0.3-0.8-0.6-0.8h-1.1l-0.3,1.6H107L107.8,40.1z M107.9,41.8h1.1c0.8,0,0.9-0.5,0.9-0.7&#xA;			c0-0.5-0.4-0.6-0.7-0.6h-1L107.9,41.8z"/>
		<path class="st0" d="M112.8,40c1,0,1.6,0.7,1.6,1.7c0,1.2-0.8,2.3-2,2.3c-1,0-1.6-0.6-1.6-1.6C110.7,41.1,111.5,40,112.8,40z&#xA;			 M112.4,43.5c1,0,1.5-1,1.5-1.9c0-0.7-0.4-1.2-1.1-1.2c-1,0-1.6,1-1.6,1.9C111.2,43,111.6,43.5,112.4,43.5z"/>
		<path class="st0" d="M117.9,42.3c-0.1,0.3-0.1,0.6-0.2,0.7c-0.3,0.6-0.8,0.9-1.5,0.9c-1.1,0-1.6-0.6-1.4-1.6l0.5-2.2h0.5l-0.5,2.3&#xA;			c-0.2,0.7,0.2,1.1,0.9,1.1c0.8,0,1-0.5,1.1-1.2l0.5-2.2h0.5L117.9,42.3z"/>
		<path class="st0" d="M119.2,40.1h1.5c0.7,0,1.1,0.4,1.1,1c0,0.5-0.3,1.2-1.4,1.2h-1.1l-0.3,1.5h-0.5L119.2,40.1z M119.3,41.9h1.1&#xA;			c0.5,0,0.8-0.3,0.8-0.8c0-0.5-0.3-0.6-0.6-0.6h-1.1L119.3,41.9z"/>
	</g>
	<g>
		<g>
			<path class="st0" d="M96.5,28.6L96.5,28.6L96.5,28.6C96.5,28.6,96.5,28.6,96.5,28.6z"/>
			<g>
				<path class="st1" d="M53.4,29.4c-0.3,0-6.2-0.6-10.7-5c0.2,0,12.8,0,12.8,0c1.3-0.1,3.8-1.1,3.8-4.4c0-1.3-0.4-2.3-1.2-3.1&#xA;					c-1-1-2.4-1-2.7-0.9H35.8c0,0-3.4-0.1-4.9,2.8c-1.5,2.9-0.6,4.8-0.3,5.4C30.9,25,35,30.9,42,34.4c6.6,3.3,10.6,2.8,10.8,2.8&#xA;					c0.7,0,2.9-0.6,3.6-3.1c0.1-0.4,0.2-0.7,0.2-1.1c0-0.7-0.2-1.4-0.6-2C55.2,30,54,29.5,53.4,29.4z"/>
				<path class="st1" d="M82.9,30.1L82.9,30.1c-0.1-0.2-0.5-1.4,0.1-2c0,0,3.8-3.4,3.8-3.4c0.2-0.2,1.5-1.5,1.4-3.5&#xA;					C88.1,19,86.3,16,82.7,16h-17c-1.4,0-4,0.9-4.2,4.2l0,0.1l0,0.1c0.1,1.4,1,4.1,3.9,4.1c0,0,9.1,0,9.2,0c0.1,0,0.1,0.1,0.1,0.1&#xA;					c0,0,0,0.1,0,0.1c-0.2,0.6-0.6,0.8-0.7,0.8l-11,0c-0.1,0-3.1,0.2-3.8,2.9l-1.5,5.8c-0.1,0.3-0.2,1.2,0.4,1.9&#xA;					c0.3,0.3,0.8,0.7,1.6,0.7h4c0.7,0,2-0.4,2.3-1.9c0.2-0.9,0.4-1.2,0.5-1.3c0.1,0,8,0,8,0c0,0,0.5,0,0.9,0.8l0.6,1.2&#xA;					c0.2,0.4,0.8,1.1,1.8,1.1h5.3l0.1,0c0.2,0,1.2-0.2,1.7-1.1c0.2-0.4,0.4-1.1-0.1-1.9L82.9,30.1z"/>
				<path class="st1" d="M129.4,22.7L129.4,22.7c-0.3-0.3-0.8-0.6-1.6-0.6h-18.9c-1,0-2.2,0.5-2.5,1.7l-0.3,1.3c0,0-0.2,0.9,0.4,1.7&#xA;					c0.3,0.3,0.8,0.7,1.7,0.7l0.5,0c0.1,0,0.1,0,0.2,0.1c0,0,0,0,0,0c-0.3,0.7-0.6,0.9-0.8,0.9c0,0-10.1,0-11,0&#xA;					c3.3-2.5,5.7-3.7,7.1-4.2c0.3-0.1,3-1.2,3.5-3.7c0.1-0.3,0.1-0.5,0.1-0.8c0-1.3-0.6-2.7-1.5-3.5c-1-0.9-2.4-1.1-3.9-0.6&#xA;					c-0.2,0.1-5.1,1.7-9.1,4.7c-2.6,1.9-5.8,4.6-6.7,6.1c-0.3,0.5-0.9,1.7-0.9,3.1c0,0.6,0.1,1.2,0.4,1.7l1.3,2.7&#xA;					c0.1,0.1,1.4,2.6,4.3,2.6H108c0.5,0,4.9-0.3,7.1-3.1c2.1-2.7,2.5-4.1,2.5-5.9c0-0.1,0.1-0.1,0.2-0.1h9.4c0.9,0,2.1-0.5,2.4-1.6&#xA;					c0,0,0.3-1.6,0.3-1.6c0,0,0-0.1,0-0.1C130,23.8,129.9,23.2,129.4,22.7z"/>
			</g>
		</g>
		<path class="st2" d="M55.4,17.1H35.8c0,0-2.7-0.1-4,2.2c-1.2,2.4-0.6,3.9-0.3,4.5c0.3,0.6,4.3,6.2,11,9.6&#xA;			c6.3,3.2,10.2,2.6,10.2,2.6s2,0,2.7-2.3c0.6-2.3-1.5-3.2-2-3.3c-0.5,0-6.7-0.7-11.4-5.3c-0.9-0.8-0.5-1.8,0.6-1.8&#xA;			c1.1,0,12.9,0,12.9,0s2.8-0.2,2.8-3.3C58.2,16.9,55.4,17.1,55.4,17.1z"/>
		<path class="st2" d="M62.6,20.3c0,0,0.2,3,2.8,3c2.8,0,9.5,0,9.5,0s1.2,0.4,0.8,1.6c-0.3,1.1-1.2,1.6-1.7,1.6c-0.5,0-11,0-11,0&#xA;			s-2.2,0.1-2.8,2.1c-0.5,2-1.5,5.8-1.5,5.8s-0.3,1.2,1,1.2c1.2,0,4,0,4,0s1,0,1.2-1c0.2-1,0.6-2.1,1.5-2.1c0.8,0,8,0,8,0&#xA;			s1.1-0.1,1.8,1.4c0.8,1.4,0.6,1.2,0.6,1.2s0.2,0.4,0.8,0.4c0.6,0,5.2,0,5.2,0s1.4-0.2,0.8-1.4c-0.6-1.2-1.8-3.5-1.8-3.5&#xA;			s-1-2.1,0.4-3.3c1.3-1.2,3.8-3.4,3.8-3.4s1.2-1.1,1.1-2.7c-0.1-1.6-1.4-4.2-4.4-4.2c-3,0-17,0-17,0S62.8,17.1,62.6,20.3z"/>
		<path class="st2" d="M102.7,16.7c0,0-4.9,1.6-8.8,4.6c-3.8,2.9-5.8,4.8-6.4,5.8c-0.6,1-1.1,2.5-0.5,3.8c0.6,1.3,1.3,2.6,1.3,2.6&#xA;			s1.1,2,3.3,2c2.2,0,16.1,0,16.1,0s4.2-0.2,6.2-2.7c2-2.6,2.3-3.7,2.3-5.3c0-0.3,0.3-1.2,1.3-1.2c1,0,9.5,0,9.5,0s1.1,0,1.3-0.8&#xA;			c0.2-0.7,0.3-1.5,0.3-1.5s0-1-1-1c-1.1,0-18.9,0-18.9,0s-1.2,0-1.4,0.9c-0.2,0.9-0.2,1.2-0.2,1.2s-0.2,1.2,1,1.2&#xA;			c0.8,0,0.6,0,0.6,0s1.6,0.2,1.1,1.5c-0.4,1.3-1.3,1.7-1.8,1.7c-0.5,0-11.8,0-11.8,0s-0.8,0-0.8-0.7c0-0.6,0.4-0.9,0.6-1.1&#xA;			c0.3-0.2,4-3.2,7.7-4.6c0.4-0.2,2.4-1,2.8-2.8C107,18.6,105.7,15.7,102.7,16.7z"/>
	</g>
	<g>
		<path d="M115.9,34.8h-0.6v-0.2h1.5v0.2h-0.6v1.7h-0.3V34.8z"/>
		<path d="M117,34.6h0.3l0.6,1.6l0.6-1.6h0.3v1.9h-0.2v-1.6h0l-0.6,1.6h-0.2l-0.6-1.6h0v1.6H117V34.6z"/>
	</g>
</g>
</svg>