<?xml version="1.0" encoding="utf-8"?>
<svg xmlns="http://www.w3.org/2000/svg" viewBox="0 0 160 60.17">
  <defs>
    <style>.cls-1{fill:#ce152d;}.cls-2{fill:none;}</style>
  </defs>
  <title>Asset 18</title>
  <g data-name="Layer 2" id="Layer_2">
    <g id="SVGs">
      <path class="cls-1" d="M131.17,25.38h-1.73a.39.39,0,0,0-.35.48c.14.85,1.26,7.15,1.27,7.19,0,.21.05.28.27.34l.74.19c.11,0,.19-.07.19-.2V25.81A.41.41,0,0,0,131.17,25.38Z"/>
      <path class="cls-1" d="M134.14,30.52V34a.33.33,0,0,0,.29.36,6.8,6.8,0,0,0,1.11.21,15.34,15.34,0,0,0,1.59-.36c.15,0,.16-.14.06-.26Z"/>
      <path class="cls-1" d="M144,23.6H127c-.29,0-.4.13-.33.57.21,1.21,1.8,10.36,1.81,10.42s.09.22.36.3c1.08.29,6.33,1.62,6.68,1.62s5.59-1.33,6.68-1.62c.28-.07.34-.17.36-.3s1.61-9.22,1.81-10.42C144.43,23.73,144.32,23.6,144,23.6Zm-1.32,1.64c-.38,2.4-1.42,8.23-1.42,8.28a.82.82,0,0,1-.51.49c-.26.09-4.76,1.21-5.22,1.21s-4.35-1-5.23-1.19a.7.7,0,0,1-.54-.49c0-.06-1.28-7.32-1.44-8.3,0-.26,0-.43.22-.43h5a.54.54,0,0,1,.57.52v3.36l3.19-3.62a.68.68,0,0,1,.5-.26h4.61C142.73,24.8,142.76,24.94,142.71,25.24Z"/>
      <path class="cls-1" d="M141.62,25.38h-.93c-.24,0-.43.14-.76.51l-3.28,3.71L140,33.34a.49.49,0,0,0,.76-.32c0-.23.91-5.17,1.26-7.14C142.05,25.58,142,25.38,141.62,25.38Z"/>
      <path class="cls-1" d="M27.88,34.39l-4.54-5.14,4.37-4.94a.5.5,0,0,0-.38-.79H24.41a.66.66,0,0,0-.4.18l-4,4.55V23.93a.48.48,0,0,0-.51-.43H15.62s0,0,0,.62.89.61.89,1.63v7.07c0,1-.89,1.05-.89,1.63s0,.62,0,.62h3.85a.48.48,0,0,0,.51-.43V30.25l4.12,4.66a.53.53,0,0,0,.38.14h3c.4,0,.63-.4.4-.66m14.69-8.67s0,0,0-.07V23.87c0-.31-.17-.38-.38-.38H38.26s0,0,0,.62.76.61.87,1.42h0v4.8c0,1.16-1.13,2.08-2.67,2.08s-2.63-.92-2.63-2.08V23.81a.37.37,0,0,0-.41-.31H29.51s0,0,0,.62.89.61.89,1.62v4.89c0,2.51,2.71,4.59,6.07,4.59s6.11-2.08,6.11-4.59Zm10.57,1.4a1.18,1.18,0,0,1-1.22,1.33H48.76V25.85h3.17a1.13,1.13,0,0,1,1.22,1.26m2.9-.05c0-2-1.28-3.57-3.84-3.57H44.53s0,0,0,.62.88.61.88,1.59v7.13c0,1-.88,1-.88,1.59s0,.62,0,.62h3.83c.21,0,.41-.15.41-.31v-3.8h1.69l2.63,4a.42.42,0,0,0,.34.15h2.84c.36,0,.51-.26.36-.48L53.7,30.39A3.05,3.05,0,0,0,56,27.07M69.71,24c.17-.21,0-.48-.34-.48H66.59a.42.42,0,0,0-.34.15l-3,3.38-3-3.38A.46.46,0,0,0,60,23.5H57.19c-.34,0-.51.26-.34.48l4.72,5.51v3.69h0c0,.87-.74.88-.74,1.36s0,.51,0,.51h3.7c.3,0,.39-.13.39-.37v-2h0V29.47Zm7.06,7.11H73.52l1.6-2.72h0Zm5.54,3.53-6.6-10.93a.45.45,0,0,0-.35-.18H73.24s0,0,0,.51.88.68.66,1.06L68,34.62c-.13.21,0,.43.36.43H70.7a.81.81,0,0,0,.77-.4l.77-1.32h5.81l.77,1.3a.73.73,0,0,0,.75.41h2.37c.32,0,.49-.21.36-.43M96,34.38l-4.54-5.14,4.38-5a.5.5,0,0,0-.38-.79H92.49a.67.67,0,0,0-.4.18l-4,4.56V23.92a.48.48,0,0,0-.51-.43H83.69s0,0,0,.62.72.63.89,1.63V32.8c-.17,1-.89,1.05-.89,1.63s0,.62,0,.62h3.85a.48.48,0,0,0,.51-.43V30.25l4.12,4.66a.54.54,0,0,0,.38.14h3c.4,0,.63-.4.4-.66M110.3,24c.17-.21.12-.47-.22-.47h-2.89a.43.43,0,0,0-.35.14l-3,3.38-3-3.38a.46.46,0,0,0-.34-.14H97.78c-.34,0-.51.25-.34.47l4.72,5.51V32.8h0c0,1.09-.9,1.05-.9,1.63s0,.62,0,.62h3.87a.35.35,0,0,0,.39-.38V32.92s0,0,0-.07V29.47Zm14,10.6V23.91a.41.41,0,0,0-.41-.42h-2.56c-.28,0-.41.16-.41.43v4.89l-7.08-5.32H111.8s0,0,0,.62.9.52.9,1.62V32.8c0,1-.9,1.05-.9,1.63s0,.62,0,.62h3.85c.32,0,.41-.19.41-.47V29.23l7.15,5.67a.7.7,0,0,0,.37.15h.27a.45.45,0,0,0,.48-.47"/>
      <path class="cls-1" d="M143.17,34.67v-.39h-.12a0,0,0,0,1,0,0v0a0,0,0,0,1,0,0h.32a0,0,0,0,1,0,0v0a0,0,0,0,1,0,0h-.12v.39a0,0,0,0,1,0,0h0A0,0,0,0,1,143.17,34.67Zm.29,0,.09-.45a0,0,0,0,1,0,0h0l0,0,.13.35.14-.35,0,0h0a0,0,0,0,1,0,0l.09.45a0,0,0,0,1,0,0h0a0,0,0,0,1,0,0l-.06-.27-.12.29h0l0,0-.12-.29-.06.28a0,0,0,0,1,0,0h0A0,0,0,0,1,143.46,34.67Z"/>
      <rect class="cls-2" height="60" width="160"/>
      <rect class="cls-2" height="60" width="160" y="0.17"/>
    </g>
  </g>
</svg>