<?xml version="1.0" encoding="utf-8"?>
<svg xmlns="http://www.w3.org/2000/svg" id="Layer_1" style="enable-background:new 0 0 160 60;" version="1.1" viewBox="0 0 160 60" x="0px" y="0px">
<style type="text/css">
	.st0{fill:#FFFFFF;}
	.st1{fill:#D1332A;}
	.st2{fill:none;stroke:#D1332A;stroke-width:0.3581;stroke-miterlimit:10;}
</style>
<title>Asset 17</title>
<g>
	<g>
		<path class="st0" d="M80.3,53.7c22.4,0,40.5-10.6,40.5-23.7S102.7,6.2,80.3,6.2C58,6.2,39.8,16.9,39.8,30S58,53.7,80.3,53.7"/>
		<path class="st1" d="M110.8,30c0,11.6-13.9,20.9-31.1,20.9c-17.1,0-31.1-9.4-31.1-20.9C48.7,18.4,62.6,9,79.7,9&#xA;			C96.9,9,110.8,18.4,110.8,30"/>
		<path class="st0" d="M52.3,36.7c0,0,0.8-5.2,5.5-8.2c1.1-0.7,2.3-1.2,3.4-1.8c1.4-0.7,3.7-2.7,1.3-1.7c0,0-0.3,0.7-1.4,1&#xA;			c-1.2,0.2-0.9-0.6-1.6-0.7c-0.7-0.1-1-0.1-1.2-0.7c0,0-0.6-0.1-0.9-0.6c-0.3-0.6,0.2-0.4-0.4-1.1c-0.3-0.4-0.6-0.6-0.6-1.3&#xA;			c0-0.6,0.6-0.7,0.9-0.9c0.4-0.3,3.8-3.2,5.2-4.3c1.4-1.1,1.7-1.4,2.2-2c0.5-0.6,1.5-1.3,3.3-1.3c0,0,0.1-0.9,2.1-0.8&#xA;			c1.9,0.1,3.3,0.6,5.3,1.7c1.1,0.7,1.4,0.5,2.1,0.5c1.2,0,3.7-1.3,3.7-1.3s-1.3,2.1-3.4,2.7c0,0,1.8,0.6,3.2,0.3&#xA;			c1.3-0.3,2.7-0.8,3.2-1.4c0,0,0,0.7-0.5,1.5c-0.3,0.4-0.7,0.7,0.3,0.2c1.2-0.6,3.2-1.3,5.8-1.3c4.7,0.1,7.5,0.4,11.1,1&#xA;			c3.6,0.6,5.2,0.8,8.7,0c2-0.5,5.2-2.4,5.2-2.4s-1.1,3.7-2.3,5.3c-0.7,0.9-2.2,3.2-7.5,4.7c0,0,2-0.2,3.1-0.6c0,0-2.1,2.4-6.4,3.9&#xA;			c-2.6,0.9-5.4,1.6-5.4,1.6s1.5,0,3.7-0.3c0,0-2.8,4-8.2,4.3c-5.4,0.3-5.1,0.4-9.2,2.2c-4,1.8-4.8,2.2-10,1.9&#xA;			c-3.6-0.2-7.1,0.1-12.1,0C57.7,36.8,52.3,36.7,52.3,36.7"/>
		<path d="M113.5,41.9c0.3-1,0.5-1.9,0.5-1.9l2.7-4.1h-2.1c2.1-4.7,1.6-9.7-1.3-14.2c0.7-0.7,1.2-1.4,1.6-2.2&#xA;			C120.8,26.6,120.4,35.1,113.5,41.9 M108.2,22.8c1.2,2.2,1.9,4.6,1.9,7.2c0,2-0.4,4-1.3,5.9c-0.6-0.1-2.8-0.3-4.9,1.4&#xA;			c0,0-0.7-1.9-4.1-1.4h-7.2l0.1,0.7c0,0-1-0.9-3.5-0.9c-2.5,0-3.5,0.5-3.5,0.5l-1.5-0.6l0.9-3.2l-7.1,3l-0.2,0.6h-3.7&#xA;			c0,0-1.7-0.5-3.6,0.3l0.1-0.4h-10l1.6-2.7h-8.7L53.1,34L53,33.2h-2.8c-0.2-1-0.4-2.1-0.4-3.2C49.9,18.8,63.4,9.7,80,9.7&#xA;			c9.1,0,17.2,2.7,22.7,7c2.5,0.4,4.2,0.5,7.1-0.1c2-0.5,5.1-2.3,5.1-2.3s-1.1,3.4-2.3,5.1C112.1,19.9,111,21.5,108.2,22.8&#xA;			 M59.6,44.9c0.4,0.2,0.8,0.3,1.4,0.3c0.8,0,1.3-0.1,1.3-0.1h9.7c0,0,0.8,0.2,1.8,0c1.7-0.2,2.9-1.4,2.9-1.4s0.6,1.4,2.7,1.5&#xA;			c2.1,0.1,3.6-0.9,3.6-0.9s0.9,1.2,4,0.7h13.2c-5.3,3.2-12.4,5.2-20.1,5.2C72.1,50.3,64.9,48.3,59.6,44.9 M52.4,46.4&#xA;			c-0.7-0.4-1.4-0.9-2-1.3h3.4c0.3,0.2,0.5,0.4,0.8,0.5c12.4,7.6,31.5,8.5,45.5,2.7h3.9C88.7,55.5,66.5,54.9,52.4,46.4 M44.7,33.9&#xA;			l0.2,2.7l-0.7,2.6c-6.1-8.5-3.4-18.7,8.2-25.7c15.2-9.1,39.9-9.1,55.1,0c0.6,0.4,1.2,0.8,1.8,1.2c-1.2,0.2-2.2,0.4-2.8,0.4&#xA;			c-0.4-0.3-0.8-0.5-1.2-0.8c-14-8.6-36.7-8.6-50.7,0C46,19.7,42.7,27,44.7,33.9 M115.9,16.5c0.6-2.7,0.3-5,0.3-5s-1.7,1.3-3.8,2.2&#xA;			c-0.7-0.5-1.5-1-2.3-1.5c-16.6-9.8-43.6-9.8-60.2,0c-13.8,8.1-16.2,20.5-7,30l-1.7,2.8h4.9c1.1,0.9,2.4,1.7,3.8,2.5&#xA;			c16.6,9.8,43.6,9.8,60.2,0C124.5,39.2,126.4,26.2,115.9,16.5"/>
	</g>
	<polygon class="st2" points="47.3,43.7 43.8,43.7 45.1,41.5 46.4,36.8 46.2,34.6 51.7,34.6 52.1,38.1 54.4,34.6 59.8,34.6 &#xA;		58.5,36.8 57.3,41.5 57.4,43.7 52.7,43.7 54,41.5 55.1,37.4 50.7,43.7 49.3,43.7 48.4,37.3 47.2,41.5"/>
	<polygon class="st0" points="47.3,43.7 43.8,43.7 45.1,41.5 46.4,36.8 46.2,34.6 51.7,34.6 52.1,38.1 54.4,34.6 59.8,34.6 &#xA;		58.5,36.8 57.3,41.5 57.4,43.7 52.7,43.7 54,41.5 55.1,37.4 50.7,43.7 49.3,43.7 48.4,37.3 47.2,41.5"/>
	<g>
		<path class="st2" d="M59.9,39.3l-0.2-2h4l-0.8,3c-0.1,0.5-0.2,0.9-0.1,1c0,0.2,0.2,0.3,0.5,0.3c0.4,0,0.7-0.1,1.1-0.3l0.5-2l0.4-2&#xA;			h3.4l-1.2,4.3l0.2,2h-4l0.2-0.8c-1,0.6-2,0.9-2.9,0.9c-0.6,0-1.1-0.2-1.5-0.6c-0.4-0.4-0.4-1.2-0.1-2.3L59.9,39.3z"/>
		<path class="st0" d="M59.9,39.3l-0.2-2h4l-0.8,3c-0.1,0.5-0.2,0.9-0.1,1c0,0.2,0.2,0.3,0.5,0.3c0.4,0,0.7-0.1,1.1-0.3l0.5-2l0.4-2&#xA;			h3.4l-1.2,4.3l0.2,2h-4l0.2-0.8c-1,0.6-2,0.9-2.9,0.9c-0.6,0-1.1-0.2-1.5-0.6c-0.4-0.4-0.4-1.2-0.1-2.3L59.9,39.3z"/>
		<path class="st2" d="M70.8,43.8h-2l1-2h1.4c0.3,0.5,0.8,0.8,1.4,0.8c0.6,0,0.9-0.1,1-0.4c0-0.1,0-0.2-0.1-0.3&#xA;			c-0.1-0.1-0.4-0.2-1-0.3c-0.4-0.1-0.9-0.3-1.4-0.4c-0.4-0.1-0.8-0.3-1-0.5c-0.2-0.2-0.4-0.4-0.4-0.6c-0.1-0.2,0-0.5,0-0.8&#xA;			c0.2-0.7,0.6-1.2,1.2-1.5c0.6-0.3,1.2-0.5,2-0.5c0.8,0,1.4,0.1,1.9,0.4l0.1-0.3h2l-1,1.8h-1.4c-0.3-0.4-0.8-0.7-1.5-0.7&#xA;			c-0.5,0-0.8,0.1-0.9,0.4c0,0.1,0,0.2,0.2,0.2c0.1,0,0.5,0.1,1.2,0.3c0.8,0.2,1.3,0.3,1.7,0.5c0.4,0.2,0.7,0.4,0.8,0.7&#xA;			c0.1,0.3,0.2,0.6,0.1,1c-0.2,0.7-0.6,1.3-1.2,1.6c-0.6,0.3-1.3,0.5-2.1,0.5c-0.8,0-1.4-0.1-1.9-0.4L70.8,43.8z"/>
		<path class="st0" d="M70.8,43.8h-2l1-2h1.4c0.3,0.5,0.8,0.8,1.4,0.8c0.6,0,0.9-0.1,1-0.4c0-0.1,0-0.2-0.1-0.3&#xA;			c-0.1-0.1-0.4-0.2-1-0.3c-0.4-0.1-0.9-0.3-1.4-0.4c-0.4-0.1-0.8-0.3-1-0.5c-0.2-0.2-0.4-0.4-0.4-0.6c-0.1-0.2,0-0.5,0-0.8&#xA;			c0.2-0.7,0.6-1.2,1.2-1.5c0.6-0.3,1.2-0.5,2-0.5c0.8,0,1.4,0.1,1.9,0.4l0.1-0.3h2l-1,1.8h-1.4c-0.3-0.4-0.8-0.7-1.5-0.7&#xA;			c-0.5,0-0.8,0.1-0.9,0.4c0,0.1,0,0.2,0.2,0.2c0.1,0,0.5,0.1,1.2,0.3c0.8,0.2,1.3,0.3,1.7,0.5c0.4,0.2,0.7,0.4,0.8,0.7&#xA;			c0.1,0.3,0.2,0.6,0.1,1c-0.2,0.7-0.6,1.3-1.2,1.6c-0.6,0.3-1.3,0.5-2.1,0.5c-0.8,0-1.4-0.1-1.9-0.4L70.8,43.8z"/>
		<path class="st2" d="M82.5,41.4l-0.6,2.3c0,0-1.8,0.2-2.2,0.2c-0.5,0-0.9-0.1-1.2-0.2c-0.3-0.2-0.5-0.4-0.6-0.7&#xA;			c-0.1-0.2-0.1-0.3-0.1-0.4c0-0.1,0-0.3,0-0.4c0-0.3,0.2-0.8,0.4-1.7l0.3-1.1h-0.8l0.5-2h0.8l0.3-1l3.7-1.6l-0.7,2.5h1.3l-0.5,2&#xA;			h-1.3l-0.3,1.2c-0.1,0.4-0.1,0.7-0.1,0.8c0,0.1,0.2,0.2,0.4,0.2C81.8,41.6,82.1,41.5,82.5,41.4z"/>
		<path class="st0" d="M82.5,41.4l-0.6,2.3c0,0-1.8,0.2-2.2,0.2c-0.5,0-0.9-0.1-1.2-0.2c-0.3-0.2-0.5-0.4-0.6-0.7&#xA;			c-0.1-0.2-0.1-0.3-0.1-0.4c0-0.1,0-0.3,0-0.4c0-0.3,0.2-0.8,0.4-1.7l0.3-1.1h-0.8l0.5-2h0.8l0.3-1l3.7-1.6l-0.7,2.5h1.3l-0.5,2&#xA;			h-1.3l-0.3,1.2c-0.1,0.4-0.1,0.7-0.1,0.8c0,0.1,0.2,0.2,0.4,0.2C81.8,41.6,82.1,41.5,82.5,41.4"/>
		<path class="st2" d="M88.3,42.1l0.3-1.2c-0.2-0.2-0.5-0.2-0.9-0.2c-0.3,0-0.5,0.1-0.7,0.2c-0.2,0.2-0.4,0.4-0.4,0.6&#xA;			c-0.1,0.3,0,0.5,0.1,0.6c0.1,0.2,0.3,0.2,0.5,0.2C87.7,42.4,88,42.3,88.3,42.1z M86.7,39.1l-1.4,0l-0.3-1.8l1.4,0l0.1,0.3&#xA;			c0,0,0.8-0.5,2.3-0.5c0.4,0,0.8,0,1.2,0c0.3,0,0.7,0.1,0.9,0.1c0.5,0.1,0.9,0.3,1.1,0.5c0.2,0.2,0.3,0.5,0.4,0.7&#xA;			c0,0.3,0,0.7-0.2,1.3l-0.5,1.8l0.3,2h-4.1l0.1-0.4c-0.7,0.4-1.5,0.5-2.4,0.5c-0.9,0-1.5-0.2-1.9-0.6c-0.4-0.4-0.5-0.9-0.3-1.4&#xA;			c0.2-0.6,0.6-1.1,1.2-1.5c0.7-0.4,1.4-0.6,2.3-0.6c0.8,0,1.4,0.1,1.9,0.3l0.1-0.2c0.1-0.4,0.1-0.7,0.1-0.8c0-0.2-0.1-0.3-0.3-0.4&#xA;			c-0.2-0.1-0.4-0.2-0.7-0.2C87.5,38.5,87,38.7,86.7,39.1z"/>
		<path class="st0" d="M88.3,42.1l0.3-1.2c-0.2-0.2-0.5-0.2-0.9-0.2c-0.3,0-0.5,0.1-0.7,0.2c-0.2,0.2-0.4,0.4-0.4,0.6&#xA;			c-0.1,0.3,0,0.5,0.1,0.6c0.1,0.2,0.3,0.2,0.5,0.2C87.7,42.4,88,42.3,88.3,42.1 M86.7,39.1l-1.4,0l-0.3-1.8l1.4,0l0.1,0.3&#xA;			c0,0,0.8-0.5,2.3-0.5c0.4,0,0.8,0,1.2,0c0.3,0,0.7,0.1,0.9,0.1c0.5,0.1,0.9,0.3,1.1,0.5c0.2,0.2,0.3,0.5,0.4,0.7&#xA;			c0,0.3,0,0.7-0.2,1.3l-0.5,1.8l0.3,2h-4.1l0.1-0.4c-0.7,0.4-1.5,0.5-2.4,0.5c-0.9,0-1.5-0.2-1.9-0.6c-0.4-0.4-0.5-0.9-0.3-1.4&#xA;			c0.2-0.6,0.6-1.1,1.2-1.5c0.7-0.4,1.4-0.6,2.3-0.6c0.8,0,1.4,0.1,1.9,0.3l0.1-0.2c0.1-0.4,0.1-0.7,0.1-0.8c0-0.2-0.1-0.3-0.3-0.4&#xA;			c-0.2-0.1-0.4-0.2-0.7-0.2C87.5,38.5,87,38.7,86.7,39.1"/>
		<path class="st2" d="M96.7,43.7h-4.1l1.3-2l0.6-2.3l-0.3-2h4.1l-0.2,0.8c1-0.6,1.9-0.9,2.8-0.9c0.8,0,1.4,0.2,1.6,0.7&#xA;			c0.3,0.4,0.3,1.2,0,2.2l-0.4,1.6l0.2,2h-4l0.8-2.8c0.2-0.6,0.2-1,0.2-1.2c-0.1-0.2-0.3-0.3-0.6-0.3c-0.3,0-0.6,0.1-1,0.3&#xA;			L96.7,43.7z"/>
		<path class="st0" d="M96.7,43.7h-4.1l1.3-2l0.6-2.3l-0.3-2h4.1l-0.2,0.8c1-0.6,1.9-0.9,2.8-0.9c0.8,0,1.4,0.2,1.6,0.7&#xA;			c0.3,0.4,0.3,1.2,0,2.2l-0.4,1.6l0.2,2h-4l0.8-2.8c0.2-0.6,0.2-1,0.2-1.2c-0.1-0.2-0.3-0.3-0.6-0.3c-0.3,0-0.6,0.1-1,0.3&#xA;			L96.7,43.7z"/>
		<path class="st2" d="M106.8,40.6c-0.1,0.4-0.1,0.7,0,1c0.1,0.3,0.4,0.4,0.7,0.4c0.4,0,0.7-0.1,1-0.4c0.3-0.3,0.4-0.6,0.5-1&#xA;			c0.1-0.4,0.1-0.8,0-1c-0.1-0.3-0.4-0.4-0.7-0.4c-0.4,0-0.7,0.1-1,0.4C107.1,39.8,106.9,40.2,106.8,40.6z M103.1,45&#xA;			c0,0,3.1,0.1,3.9-0.1c0.8-0.2,1-0.7,1.1-0.9c0.1-0.2,0.2-0.4,0.3-0.8c-0.7,0.3-1.5,0.5-2.3,0.5c-0.9,0-1.7-0.3-2.2-0.8&#xA;			c-0.5-0.5-0.6-1.4-0.4-2.4c0.3-1,0.8-1.8,1.7-2.4c0.8-0.6,1.7-0.9,2.7-0.9c0.8,0,1.4,0.2,1.9,0.5l0.1-0.4h4.1l-1.3,2l-0.9,3.5&#xA;			c-0.2,0.8-0.6,1.7-0.8,2.1c-0.3,0.4-0.6,0.8-1.1,1.1c-0.5,0.3-1,0.5-1.6,0.7c-0.6,0.1-1.4,0.2-2.3,0.2c-0.4,0-4.1,0-4.1,0&#xA;			L103.1,45z"/>
		<path class="st0" d="M106.8,40.6c-0.1,0.4-0.1,0.7,0,1c0.1,0.3,0.4,0.4,0.7,0.4c0.4,0,0.7-0.1,1-0.4c0.3-0.3,0.4-0.6,0.5-1&#xA;			c0.1-0.4,0.1-0.8,0-1c-0.1-0.3-0.4-0.4-0.7-0.4c-0.4,0-0.7,0.1-1,0.4C107.1,39.8,106.9,40.2,106.8,40.6 M103.1,45&#xA;			c0,0,3.1,0.1,3.9-0.1c0.8-0.2,1-0.7,1.1-0.9c0.1-0.2,0.2-0.4,0.3-0.8c-0.7,0.3-1.5,0.5-2.3,0.5c-0.9,0-1.7-0.3-2.2-0.8&#xA;			c-0.5-0.5-0.6-1.4-0.4-2.4c0.3-1,0.8-1.8,1.7-2.4c0.8-0.6,1.7-0.9,2.7-0.9c0.8,0,1.4,0.2,1.9,0.5l0.1-0.4h4.1l-1.3,2l-0.9,3.5&#xA;			c-0.2,0.8-0.6,1.7-0.8,2.1c-0.3,0.4-0.6,0.8-1.1,1.1c-0.5,0.3-1,0.5-1.6,0.7c-0.6,0.1-1.4,0.2-2.3,0.2c-0.4,0-4.1,0-4.1,0&#xA;			L103.1,45z"/>
		<path d="M60.7,32.3c1-3.3,4.7-4.5,6.5-5.5c1.5-0.9,2.6-3,2.6-3S69.4,24,69,24c-0.4,0-0.7,0-0.7,0s1.3-0.3,1.8-0.9&#xA;			c1.1-1.5,0.2-3,0.2-3c0.2,3.5-2.7,2.8-3.8,2.7c-1.3-0.1-2.7-0.1-3.3-0.1c-0.4,0-1.6,0.2-1.9,0.3c-0.7,0.2-1.7,0.4-1.7-0.2&#xA;			c0-0.1,0-0.2-0.1-0.2c0,0-0.1-0.1-0.1-0.1c-0.2-0.2-0.6-0.4-0.4-0.8c0,0,0.2-0.4,0.7,0c0.1,0.1,0.1,0.2,0.1,0.4&#xA;			c0,0.1,0.1,0.2,0.2,0.1c0.2-0.2,0.2-0.4,0.1-0.7c-0.2-0.4,0.1-0.6,0.2-0.7c0.2-0.1,4.2-2.8,5.2-3.4c0.1-0.1,0.2,0,0.2,0&#xA;			c0.1,0.4,0.4,0.5,0.8,0.6c0,0,0-0.2,0-0.4c0-0.2,0.2-0.4,0.3-0.4c0.1,0,0.2,0.2,0.2,0.4c0,0.2,0,0.4,0,0.4c0.4,0,0.6-0.2,0.7-0.6&#xA;			c0-0.1,0-0.3,0-0.4c0-0.1-0.4-0.1-0.7-0.1c-0.2,0-0.5,0.2-0.5,0.2c0.2-0.3,0.8-0.4,1.4-0.2c0.6,0.2,1.4-0.3,1.4-0.3&#xA;			s-0.9,0.3-1.5,0.1c-0.5-0.2-1.2-0.3-1.7,0.2c0,0,0.2-0.5,0.7-0.7c0.2-0.1,0.4-0.2,0.7-0.2c1.1,0,0.9-0.6,2.4-0.8&#xA;			c1.5-0.2-0.5-1.3-1.7-1.3c-2.5,0.1-2.5,1-3.4,1.7c-0.1,0-5.7,4.5-7,5.5c-0.2,0.2-0.6,0.2-0.7,0.7c0,0.5,0.8,0.9,0.9,1.6&#xA;			c0,0.7,0.6,0.9,0.9,0.7c0.3-0.2,0.6-0.2,0.8-0.2c0.5,0,0.8-0.1,1.6-0.4c0.2-0.1,0.5,0.1,0.5,0.1c-0.7,0.2-0.8,0.7-2.3,0.6&#xA;			c-0.8,0-0.4,0.5-0.3,0.5c0.2,0.1,0.4,0.1,0.5,0.1c0.2,0,0.5,0.2,0.7,0.4c0.3,0.5,0.9,0.5,1.4,0.2c0.5-0.3,0.3-0.5,0.5-0.7&#xA;			c0.2-0.2,2.5-1.1,5.1-0.8c0,0,0,0,0.1,0l-0.1,0.4c-0.6,1.8-2.1,1.2-7.6,4c-1.3,0.7-3.5,2.4-4.4,3.9L60.7,32.3z"/>
		<path d="M78.6,24.9c0,0-0.2-2.5,1.6-4.7c0.4-0.5,1.3-1.4,2.6-2.2c0.9-0.5,2.2-1,3.1-1.2c1.9-0.4,5.5-0.7,9.5-0.2&#xA;			c4,0.5,7.6,1.3,9.6,1.4c2.8,0.1,5.3,0.2,8.9-2.9c0,0-3.6,5.8-12.9,4.4c-9.3-1.4-11.9-1-13.3-0.9c-1.4,0.1-4.2,0.9-5.9,3&#xA;			c-1.1,1.3-0.9,3.1-0.8,2.9c0.8-1.2,0.9-1.8,2.4-3c3.1-2.5,7.7-2,7.7-2c-4.7,0.4-6.2,1.8-7.3,3.2c-0.6,0.8-1.4,2.2-2,3.2&#xA;			c-0.6,1-1.5,1.4-2.2,1.4c-0.3,0-1,0-1-0.7C78.6,26.6,78.6,25.9,78.6,24.9"/>
		<path d="M75.5,19c-0.2-0.8-0.5-1.4-0.8-1.7c-0.3-0.3,0.1-0.5,0.4-0.6c0.8-0.2,2.1-0.5,3.3,0c1.9,0.7,4.1,0.2,5.2-0.9&#xA;			c0,0-1.8,2.7-4.3,2.5c-1.5-0.1-2.3,0.8-2.9,1C75.7,19.6,75.5,19.3,75.5,19"/>
		<path d="M75.8,20.4c0.2,0.9,0.4,2.4,0.8,2.2c0.4-0.2,0.8-0.6,1.5-1.5c1.2-1.8,2.7-2.4,2.7-2.4s-1.7,0-2.9,1&#xA;			c-0.6,0.5-1.1,0.5-1.5,0.4C75.9,20,75.7,20.1,75.8,20.4"/>
		<path d="M76.5,23.7c0,0.7,0.1,1.8,0.7,2.7c0,0.1,0.1,0.2,0.2,0.1c0.1,0,0.7-0.2,0.5-2.4c0,0-0.6,1.3-0.7,0.3c-0.1-1,1-1,1.6-3.4&#xA;			c0,0-0.6,1.4-1.3,1.7C76.6,23,76.5,23.3,76.5,23.7"/>
		<path d="M75.1,14.5c-0.5-0.3-2.1-1.3-4.1-1.4c-1.3-0.1-2,0.1-2.2,0.2c-0.3,0.3,0.1,0.3,0.5,0.4c1.1,0.2,1.4,0.3,2.6,0.9&#xA;			c0.4,0.2,1.1,0,1.7,0c0.8,0,1.4,0.4,0.9,0.6c-0.4,0.2-0.5,0.4-0.6,0.5c-0.1,0.1-0.1,0.3-0.1,0.4c0.1,0.3,0.3,0.3,0.4,0.3&#xA;			c0,0,0.1-0.1,0.2-0.2c0.1-0.2,0.6-0.5,1.5-0.5c2.5,0.2,4.1-1.5,4.1-1.5C78,15.4,76.3,15.2,75.1,14.5"/>
		<path d="M93.6,27.3c5.4,1.1,10.8-2.5,10.8-2.5s-6.2,1.5-9.9,0.5c-6.5-1.7-10.7,3-10.7,3S87.2,26,93.6,27.3"/>
		<path d="M98.3,23.5c6.3,1.5,11.9-2.7,11.9-2.7s-5.4,2-10,0.8C93.2,19.8,89,23.4,89,23.4S92.3,22,98.3,23.5"/>
		<path d="M79.6,33.5c0,0,3.3-2,6.2-2.5c2.9-0.5,5.1,1.4,11.2-1.6c0,0-4.7,0.7-7.8-0.1C86,28.6,81.7,30.7,79.6,33.5"/>
		<path class="st0" d="M112.9,43.7c0,0-0.1,0-0.1,0h-0.1V44h0.1c0.1,0,0.1,0,0.1,0C113,43.9,113,43.9,112.9,43.7&#xA;			C113,43.8,113,43.7,112.9,43.7 M112.5,44.4v-0.8c0.1,0,0.1,0,0.2,0c0.1,0,0.2,0,0.2,0c0.1,0,0.1,0,0.2,0c0.1,0,0.1,0.1,0.1,0.2&#xA;			c0,0.1,0,0.1-0.1,0.2c0,0-0.1,0-0.1,0.1c0.1,0,0.1,0,0.1,0c0,0,0.1,0.1,0.1,0.2v0.1c0,0,0,0,0,0c0,0,0,0,0,0l0,0H113&#xA;			c0,0,0-0.1,0-0.1c0-0.1,0-0.1,0-0.1c0,0,0,0-0.1-0.1c0,0,0,0-0.1,0l0,0h0v0.3H112.5z M112.4,43.5c-0.1,0.1-0.2,0.3-0.2,0.4&#xA;			c0,0.2,0.1,0.3,0.2,0.4c0.1,0.1,0.3,0.2,0.4,0.2c0.2,0,0.3-0.1,0.4-0.2c0.1-0.1,0.2-0.3,0.2-0.4c0-0.2-0.1-0.3-0.2-0.4&#xA;			c-0.1-0.1-0.3-0.2-0.4-0.2C112.7,43.4,112.5,43.4,112.4,43.5 M113.4,44.5c-0.1,0.1-0.3,0.2-0.5,0.2c-0.2,0-0.4-0.1-0.5-0.2&#xA;			c-0.1-0.1-0.2-0.3-0.2-0.5c0-0.2,0.1-0.4,0.2-0.5c0.1-0.1,0.3-0.2,0.5-0.2c0.2,0,0.4,0.1,0.5,0.2c0.1,0.1,0.2,0.3,0.2,0.5&#xA;			C113.6,44.2,113.5,44.4,113.4,44.5"/>
	</g>
</g>
</svg>