<?xml version="1.0" encoding="utf-8"?>
<svg xmlns="http://www.w3.org/2000/svg" id="Layer_1" style="enable-background:new 0 0 160 60;" version="1.1" viewBox="0 0 160 60" x="0px" y="0px">
<style type="text/css">
	.st0{fill:#231F20;}
	.st1{fill:none;}
</style>
<title>Asset 11</title>
<g id="Layer_2">
	<g id="SVGs">
		<path class="st0" d="M26.4,32.9c-1.4,0-2.5,1.1-2.5,2.5v0.9c0,1.4-1.1,2.5-2.5,2.5h-10c-1.4,0-2.5-1.1-2.5-2.4c0,0,0,0,0,0V24.2&#xA;			c0-1.4,1.1-2.5,2.5-2.5c0,0,0,0,0,0h16.2c1.4,0,2.5,1.1,2.5,2.5v6.3c0,1.4-1.1,2.5-2.5,2.5c0,0,0,0,0,0L26.4,32.9z M20.3,30.9&#xA;			L20.3,30.9c-0.3-0.1-0.4-0.3-0.4-0.5c0-0.2,0.2-0.4,0.4-0.5l0,0c0.8-0.1,1.3-0.7,1.3-1.5c-0.1-0.7-0.6-1.2-1.3-1.3h-6.8&#xA;			c-0.3-0.1-0.4-0.4-0.4-0.7c0.1-0.2,0.2-0.3,0.4-0.4h6.8c0.8,0.1,1.4-0.5,1.5-1.3c0.1-0.8-0.5-1.4-1.3-1.5c-0.1,0-0.2,0-0.2,0H12&#xA;			c-0.8,0.1-1.3,0.7-1.3,1.5c0.1,0.7,0.6,1.2,1.3,1.3h0.1c0.3,0.1,0.4,0.4,0.4,0.7c-0.1,0.2-0.2,0.3-0.4,0.4&#xA;			c-0.8,0.1-1.3,0.7-1.3,1.5c0.1,0.7,0.6,1.2,1.3,1.3h6.8c0.2,0.1,0.4,0.3,0.4,0.5c0,0.2-0.1,0.5-0.4,0.5h-3.7&#xA;			c-0.8-0.1-1.4,0.5-1.5,1.3c-0.1,0.8,0.5,1.4,1.3,1.5c0.1,0,0.2,0,0.2,0h5.2c0.8-0.1,1.3-0.7,1.3-1.5C21.5,31.5,21,31,20.3,30.9&#xA;			L20.3,30.9z"/>
		<path class="st0" d="M41.3,35.7c-0.3-0.2-0.7-0.3-1.1-0.2h-1.6c-0.2,0-0.5,0-0.7-0.2c-0.1-0.1-0.2-0.3-0.2-0.5v-0.3&#xA;			c0-0.2,0.1-0.4,0.2-0.5c0.2-0.1,0.5-0.2,0.7-0.2h2.8c0.1,0,0.2-0.1,0.2-0.2v0v-0.3c0-0.1-0.1-0.1-0.2-0.1h-2.9&#xA;			c-0.4,0-0.8,0.1-1.1,0.3c-0.3,0.2-0.4,0.5-0.4,0.9V35c0,0.3,0.1,0.6,0.3,0.8c0.3,0.3,0.8,0.4,1.2,0.4h1.6c0.2,0,0.4,0,0.6,0.1&#xA;			c0.2,0.1,0.3,0.3,0.3,0.5v0.6c0,0.1-0.1,0.3-0.2,0.4c-0.2,0.2-0.3,0.2-0.6,0.2h-2.8c-0.1,0-0.2,0.1-0.2,0.2v0v0.3&#xA;			c0,0.1,0.1,0.2,0.2,0.2h0h2.8c0.5,0,0.8,0,1-0.3c0.2-0.2,0.3-0.5,0.4-0.8v-0.8C41.8,36.3,41.6,36,41.3,35.7z"/>
		<path class="st0" d="M64.6,35.7c-0.3-0.2-0.7-0.3-1.1-0.2h-1.6c-0.2,0-0.5,0-0.7-0.2c-0.1-0.1-0.2-0.3-0.2-0.5v-0.3&#xA;			c0-0.2,0.1-0.4,0.2-0.5c0.2-0.1,0.5-0.2,0.7-0.2h2.8c0.1,0,0.2-0.1,0.2-0.2v0v-0.3c0-0.1-0.1-0.2-0.2-0.2l0,0h-2.9&#xA;			c-0.4,0-0.8,0.1-1.1,0.3c-0.3,0.2-0.4,0.5-0.4,0.9V35c0,0.3,0.1,0.6,0.3,0.8c0.3,0.3,0.8,0.4,1.2,0.4h1.6c0.2,0,0.4,0,0.6,0.1&#xA;			c0.2,0.1,0.3,0.3,0.3,0.5v0.6c0,0.1-0.1,0.3-0.2,0.4c-0.2,0.2-0.3,0.2-0.6,0.2h-2.8c-0.1,0-0.2,0.1-0.2,0.2v0v0.3&#xA;			c0,0.1,0.1,0.2,0.2,0.2h0h2.8c0.5,0,0.7,0,1-0.3c0.2-0.2,0.3-0.5,0.4-0.8v-0.7C65,36.3,64.9,36,64.6,35.7z"/>
		<path class="st0" d="M113.8,35.7c-0.3-0.2-0.7-0.3-1.1-0.2H111c-0.2,0-0.5,0-0.7-0.2c-0.1-0.1-0.2-0.3-0.2-0.5v-0.3&#xA;			c0-0.2,0.1-0.4,0.2-0.5c0.2-0.1,0.5-0.2,0.7-0.2h2.8c0.1,0,0.2-0.1,0.2-0.2v0v-0.3c0-0.1-0.1-0.2-0.2-0.2l0,0H111&#xA;			c-0.4,0-0.8,0.1-1.1,0.3c-0.3,0.2-0.4,0.5-0.4,0.9V35c0,0.3,0.1,0.6,0.3,0.8c0.3,0.3,0.8,0.4,1.2,0.4h1.6c0.2,0,0.4,0,0.6,0.1&#xA;			c0.2,0.1,0.3,0.3,0.3,0.5v0.6c0,0.1-0.1,0.3-0.2,0.4c-0.2,0.2-0.3,0.2-0.6,0.2H110c-0.1,0-0.2,0.1-0.2,0.2v0v0.3&#xA;			c0,0.1,0.1,0.2,0.2,0.2l0,0h2.8c0.5,0,0.8,0,1-0.3c0.2-0.2,0.3-0.5,0.4-0.8v-0.7C114.2,36.3,114.1,36,113.8,35.7z"/>
		<path class="st0" d="M53.2,33.1h-0.3c-0.1,0-0.2,0.1-0.2,0.2l0,0v3.8c0,0.2,0,0.4-0.2,0.5c-0.2,0.2-0.4,0.3-0.7,0.2h-1.5&#xA;			c-0.5,0-0.7-0.1-0.8-0.4c-0.1-0.2-0.1-0.4-0.1-0.6v-3.6c0-0.1-0.1-0.2-0.2-0.2l0,0h-0.3c-0.1,0-0.2,0.1-0.2,0.2c0,0,0,0,0,0v3.5&#xA;			c0,0.4,0,0.8,0.2,1.1c0.3,0.4,0.8,0.7,1.3,0.6h1.6c0.4,0,0.8-0.1,1.1-0.4c0.2-0.2,0.4-0.6,0.4-0.9v-3.9&#xA;			C53.3,33.2,53.3,33.1,53.2,33.1z"/>
		<path class="st0" d="M76.4,33.1h-2.6c-0.4,0-0.8,0.2-1,0.6c-0.2,0.3-0.3,0.6-0.3,1v5.6c0,0.1,0.1,0.2,0.2,0.2l0,0H73&#xA;			c0.1,0,0.2-0.1,0.2-0.2v0v-2h2.6c0.6,0,1.2-0.1,1.7-0.4c0.3-0.3,0.5-0.7,0.5-1.1v-2c0.1-0.8-0.5-1.5-1.3-1.5&#xA;			C76.5,33.1,76.5,33.1,76.4,33.1L76.4,33.1z M73.2,34.6c0-0.2,0-0.3,0.1-0.4c0.1-0.2,0.3-0.3,0.5-0.3h2.7c0.4,0,0.7,0.3,0.8,0.7&#xA;			c0,0.1,0,0.1,0,0.2v2.1c0,0.3-0.1,0.5-0.3,0.7c-0.4,0.1-0.7,0.2-1.1,0.2h-2.7C73.2,37.5,73.2,34.6,73.2,34.6z"/>
		<path class="st0" d="M89.4,33.5c-0.3-0.3-0.7-0.4-1.1-0.4h-1.9c-0.4,0-0.8,0.1-1.1,0.4c-0.3,0.3-0.5,0.6-0.5,1v2.3&#xA;			c0,0.4,0.1,0.8,0.3,1.1c0.3,0.3,0.7,0.5,1.1,0.5h3.2c0.1,0,0.2-0.1,0.2-0.2v0v-0.3c0-0.1-0.1-0.2-0.2-0.2l0,0h-3.1&#xA;			c-0.3,0-0.6-0.1-0.8-0.3c-0.1-0.2-0.2-0.4-0.2-0.6v-0.8l4.2,0.1c0.1,0,0.2-0.1,0.2-0.2l0.1-1.4C89.8,34.3,89.6,33.9,89.4,33.5&#xA;			L89.4,33.5z M89.2,35.5h-3.8v-0.8c0-0.3,0.1-0.5,0.2-0.7c0.2-0.1,0.4-0.2,0.6-0.2h2.1c0.2,0,0.4,0,0.5,0.1&#xA;			c0.2,0.1,0.4,0.3,0.4,0.6L89.2,35.5z"/>
		<path class="st0" d="M100.9,33.1h-1.8c-0.5,0-1,0.2-1.3,0.6c-0.2,0.3-0.3,0.7-0.3,1.1v3.5c0,0.1,0.1,0.2,0.2,0.2l0,0H98&#xA;			c0.1,0,0.2-0.1,0.2-0.2v0v-3.6c0-0.2,0-0.5,0.1-0.7c0.1-0.2,0.4-0.3,0.9-0.3h1.8c0.3,0,0.5,0.1,0.8,0.2c0.1,0.1,0.2,0.3,0.2,0.5&#xA;			v3.8c0,0.1,0.1,0.2,0.2,0.2l0,0h0.3c0.1,0,0.2-0.1,0.2-0.2v0v-3.8c0-0.3-0.1-0.7-0.4-0.9C101.9,33.3,101.4,33.1,100.9,33.1z"/>
		<path class="st0" d="M122.1,33.2h0.3c0.1,0,0.2,0.1,0.2,0.2v4.9c0,0.1-0.1,0.2-0.2,0.2h-0.3c-0.1,0-0.2-0.1-0.2-0.2v-4.9&#xA;			C121.9,33.3,122,33.2,122.1,33.2z"/>
		<path class="st0" d="M134.1,33.1h-1.7c-0.4,0-0.8,0.1-1.1,0.4c-0.4,0.3-0.6,0.8-0.5,1.3v2.2c0,0.3,0.1,0.7,0.2,1&#xA;			c0.3,0.4,0.8,0.6,1.3,0.6h2.1c0.3,0,0.7-0.1,0.9-0.3l0.1-0.1c0.3-0.4,0.5-0.8,0.4-1.3v-2.1c0-0.4-0.1-0.8-0.4-1.1&#xA;			C135.1,33.2,134.6,33.1,134.1,33.1z M134.9,34c0.2,0.2,0.3,0.5,0.3,0.8v2.1c0,0.3,0,0.5-0.2,0.7c-0.2,0.2-0.4,0.2-0.8,0.2h-1.9&#xA;			c-0.4,0.1-0.9-0.2-0.9-0.6c0-0.1,0-0.2,0-0.2v-2.2c0-0.3,0.1-0.6,0.3-0.8c0.2-0.2,0.4-0.2,0.7-0.2h1.7&#xA;			C134.4,33.7,134.7,33.8,134.9,34L134.9,34z"/>
		<path class="st0" d="M147.8,33.6c-0.4-0.3-0.8-0.5-1.3-0.5h-1.8c-0.5,0-1,0.2-1.3,0.6c-0.2,0.3-0.3,0.7-0.3,1.1v3.6h0.6v-3.7&#xA;			c0-0.2,0-0.5,0.1-0.7c0.1-0.2,0.4-0.3,0.9-0.3h1.8c0.3,0,0.5,0.1,0.8,0.2c0.1,0.1,0.2,0.3,0.2,0.5v4h0.7v-4&#xA;			C148.2,34.2,148,33.8,147.8,33.6z"/>
		<path class="st0" d="M44.2,21.6H38c-0.6,0-1.1,0.5-1.1,1.1v5.6c0,0.6,0.5,1.1,1.1,1.1s1.1-0.5,1.1-1.1v-1c0-0.3,0.2-0.5,0.6-0.6&#xA;			h4.5c1.4,0,2.6-1.2,2.6-2.6S45.6,21.6,44.2,21.6L44.2,21.6L44.2,21.6z M43.8,25h-4.2c-0.3,0-0.6-0.3-0.6-0.6V24&#xA;			c0-0.3,0.2-0.6,0.6-0.6h4.2c0.4,0,0.8,0.3,0.8,0.8c0,0,0,0,0,0C44.6,24.7,44.3,25,43.8,25L43.8,25z"/>
		<path class="st0" d="M57.7,24.2c0-1.4-1.2-2.6-2.6-2.6h-6.1c-0.6,0-1.1,0.5-1.1,1.1v5.6c0,0.6,0.5,1.1,1.1,1.1&#xA;			c0.6,0,1-0.5,1.1-1.1v-0.9c0-0.3,0.2-0.5,0.6-0.6h2.6c0.2,0,0.4,0.1,0.5,0.2l2.3,2.1c0.5,0.3,1.1,0.2,1.5-0.2&#xA;			c0.3-0.4,0.3-0.9,0-1.3l-1.1-1.1C57.1,26.1,57.6,25.2,57.7,24.2z M54.8,25h-4.2c-0.3,0-0.6-0.2-0.6-0.6c0,0,0,0,0,0V24&#xA;			c0-0.3,0.2-0.5,0.6-0.6h4.2c0.4,0,0.8,0.3,0.8,0.8C55.5,24.7,55.2,25,54.8,25L54.8,25z"/>
		<path class="st0" d="M67.5,21.6h-6.1c-1.3,0-2.4,1-2.4,2.4c0,0,0,0,0,0v3.1c0,1.3,1.1,2.4,2.4,2.4h6.1c1.3,0,2.3-1.1,2.3-2.4V24&#xA;			C69.9,22.7,68.8,21.6,67.5,21.6z M67.8,26.7c0,0.5-0.4,0.9-1,0.9h-4.7c-0.5,0-0.9-0.4-0.9-0.9v-2.4c0-0.5,0.4-0.9,0.9-0.9&#xA;			c0,0,0,0,0,0h4.8c0.5,0,0.9,0.4,0.9,0.9L67.8,26.7z"/>
		<path class="st0" d="M80.9,24.6h-2c-0.6,0-1.1,0.4-1.1,1c0,0,0,0,0,0c0,0.6,0.5,1,1.1,0.9c0,0,0,0,0,0h1.3v0.6&#xA;			c0,0.2-0.3,0.5-0.8,0.5h-4.9c-0.5,0-0.9-0.4-1-0.9v-2.4c0-0.5,0.4-0.9,0.9-0.9h5.3c0.6,0,1.6,0.2,1.6-0.9c0-1.1-1.3-0.9-1.6-0.9&#xA;			h-5.3c-2,0-3.1,1.1-3.1,2.4v3c0,1.3,1.1,2.4,2.4,2.4h5.5c1.5,0.1,2.8-1,2.9-2.4v-1C82.3,25.2,81.7,24.6,80.9,24.6&#xA;			C80.9,24.6,80.9,24.6,80.9,24.6z"/>
		<path class="st0" d="M93.5,24.2c0-1.4-1.2-2.6-2.6-2.6h-6.1c-0.6,0-1.1,0.5-1.1,1.1v5.6c0,0.6,0.5,1.1,1.1,1.1&#xA;			c0.6,0,1-0.5,1.1-1.1v-0.9c0-0.3,0.2-0.5,0.6-0.6H89c0.2,0,0.4,0.1,0.5,0.2l2.3,2.1c0.5,0.3,1.2,0.1,1.5-0.3&#xA;			c0.2-0.4,0.2-0.8-0.1-1.2L92,26.5C92.9,26.1,93.5,25.2,93.5,24.2z M90.6,25h-4.3c-0.3,0-0.6-0.2-0.6-0.6V24c0-0.3,0.2-0.5,0.6-0.6&#xA;			h4.2c0.4,0,0.8,0.3,0.8,0.8c0,0,0,0,0,0C91.3,24.7,91,25,90.6,25L90.6,25z"/>
		<path class="st0" d="M101.4,27.6h-3.8c-0.3,0-0.6-0.3-0.6-0.6v0c0-0.3,0.2-0.5,0.6-0.6h3.3c0.6,0.1,1.1-0.4,1.1-0.9c0,0,0,0,0,0&#xA;			c0-0.6-0.6-1-1.1-1h-3.3c-0.3,0-0.6-0.3-0.6-0.6v0c0-0.3,0.2-0.5,0.6-0.6h3.6c0.6,0,1.6,0.1,1.6-0.9c0-1-1.3-0.9-1.6-0.9H96&#xA;			c-0.6,0-1.1,0.5-1.1,1.1c0,0,0,0,0,0v5.7c0,0.6,0.5,1,1,1c0,0,0,0,0,0h5.3c0.6,0,1.6,0.2,1.6-0.9&#xA;			C102.9,27.5,101.7,27.6,101.4,27.6z"/>
		<path class="st0" d="M147.4,27.6h-3.7c-0.3,0-0.6-0.3-0.6-0.6c0-0.3,0.2-0.5,0.6-0.6h3.3c0.6,0.1,1.1-0.4,1.1-0.9c0,0,0,0,0,0&#xA;			c0-0.6-0.6-1-1.1-1h-3.3c-0.3,0-0.6-0.3-0.6-0.6c0-0.3,0.2-0.5,0.6-0.6h3.6c0.6,0,1.6,0.1,1.6-0.9c0-1-1.3-0.9-1.6-0.9H142&#xA;			c-0.6,0-1.1,0.5-1.1,1.1c0,0,0,0,0,0v5.7c0,0.6,0.5,1,1,1c0,0,0,0,0,0h5.3c0.6,0,1.6,0.2,1.6-0.9&#xA;			C148.9,27.5,147.6,27.6,147.4,27.6z"/>
		<path class="st0" d="M111.4,24.6H107c-0.7,0-1-0.3-1-0.6c0-0.3,0.2-0.6,0.9-0.6h4.1c0.6,0,1.6,0.1,1.6-0.9c0-1-1.3-0.9-1.6-0.9&#xA;			h-4.8c-1.3,0-2.4,1.1-2.4,2.4c0,1.3,1.1,2.4,2.4,2.4c0,0,0,0,0,0h4.3c0.7,0,0.9,0.3,0.9,0.6s-0.2,0.6-0.9,0.6h-0.6&#xA;			c-0.6,0-1.6-0.1-1.6,0.9c0,1,1.3,0.9,1.6,0.9h1.4c1.3,0,2.4-1.1,2.4-2.4S112.7,24.6,111.4,24.6L111.4,24.6z"/>
		<path class="st0" d="M121.9,24.6h-4.6c-0.7,0-1-0.3-1-0.6c0-0.3,0.2-0.6,0.9-0.6h4.4c0.6,0,1.6,0.1,1.6-0.9c0-1-1.3-0.9-1.6-0.9&#xA;			h-5.1c-1.3,0-2.4,1.1-2.4,2.4c0,1.3,1.1,2.4,2.4,2.4c0,0,0,0,0,0h4.6c0.7,0,0.9,0.3,0.9,0.6s-0.2,0.6-0.9,0.6h-0.9&#xA;			c-0.6,0-1.6-0.1-1.6,0.9c0,1,1.3,0.9,1.6,0.9h1.6c1.3,0,2.4-1.1,2.4-2.4S123.3,24.6,121.9,24.6L121.9,24.6z"/>
		<path class="st0" d="M127.2,21.6c-0.6,0-1.1,0.5-1.1,1.1v5.6c0,0.6,0.5,1.1,1.1,1.1c0.6,0,1.1-0.5,1.1-1.1l0,0v-5.6&#xA;			C128.3,22.2,127.8,21.7,127.2,21.6C127.2,21.6,127.2,21.6,127.2,21.6z"/>
		<path class="st0" d="M138.5,21.6c-0.4,0-0.7,0.2-0.9,0.5l-2.7,4.5l-2.8-4.6c-0.2-0.3-0.5-0.4-0.9-0.4c-0.6,0-1.1,0.5-1.1,1.1&#xA;			c0,0,0,0,0,0c0,0.3,0.1,0.6,0.3,0.8l3.5,5.5c0.2,0.3,0.6,0.5,0.9,0.5c0.3,0,0.7-0.1,0.9-0.4l3.5-5.5c0.2-0.2,0.4-0.5,0.4-0.8&#xA;			C139.5,22.1,139.1,21.6,138.5,21.6z"/>
		<path class="st0" d="M150.2,21.6c0.4,0,0.8,0.4,0.8,0.8c0,0.4-0.4,0.8-0.8,0.8c-0.4,0-0.8-0.4-0.8-0.8c0,0,0,0,0,0&#xA;			C149.4,22,149.7,21.7,150.2,21.6C150.2,21.6,150.2,21.6,150.2,21.6z M150.2,21.8c-0.4,0-0.7,0.3-0.7,0.6c0,0.4,0.3,0.7,0.6,0.7&#xA;			c0.4,0,0.7-0.3,0.7-0.6c0,0,0,0,0,0C150.8,22.1,150.5,21.8,150.2,21.8C150.2,21.8,150.2,21.8,150.2,21.8z M150,22.9h-0.2V22h0.3&#xA;			c0.1,0,0.2,0,0.3,0.1c0.1,0,0.1,0.1,0.1,0.2c0,0.1-0.1,0.2-0.2,0.2l0,0c0.1,0,0.1,0.1,0.1,0.2c0,0.1,0,0.2,0.1,0.2h-0.1&#xA;			c0-0.1-0.1-0.1-0.1-0.2c0-0.1-0.1-0.2-0.2-0.2c0,0,0,0,0,0H150L150,22.9z M150,22.4h0.1c0.1,0,0.2,0,0.2-0.2&#xA;			c0-0.2-0.1-0.2-0.2-0.2H150V22.4z"/>
		<rect class="st1" height="60" width="160"/>
	</g>
</g>
</svg>