<?xml version="1.0" encoding="utf-8"?>
<svg xmlns="http://www.w3.org/2000/svg" id="Layer_1" style="enable-background:new 0 0 160 60;" version="1.1" viewBox="0 0 160 60" x="0px" y="0px">
<path d="M54,10.1v39.8h-0.6V10.1L54,10.1z"/>
<path d="M126.4,24.2c-1.5,0-3.1,0.4-4.8,1.2c-0.6-0.8-1.9-1.2-3.8-1.2c-1.7,0-3.8,0.4-6.4,1.3c-0.1,0.8-0.1,1.4-0.2,1.8L108.8,38&#xA;	h3.3l2.2-9.8c0-0.1,0.1-0.3,0.1-0.6c0.9-0.4,1.7-0.6,2.5-0.6c1.6,0,2.2,0.8,1.8,2.5l-1.9,8.5h3.3l1.9-8.7c0.2-0.7,0.2-1.2,0.2-1.6&#xA;	c1-0.4,1.9-0.7,2.6-0.7c1.6,0,2.2,0.8,1.8,2.5l-1.9,8.5h3.3l2-9.1c0.3-1.5,0.2-2.6-0.5-3.4C128.9,24.6,127.9,24.2,126.4,24.2z&#xA;	 M82.2,26.4L82.1,27L82,27.3h6.5L80.8,35c-0.8,0.8-1.1,1.5-1.1,2.2c0,0.2,0,0.5,0.1,0.8h10.9l0.6-2.8h-6.8l8.2-8.3l0.5-2.4h-8.9&#xA;	C83.1,24.5,82.6,25.1,82.2,26.4z M103.1,33.8c-0.8,1.2-1.9,1.7-3.1,1.7c-0.9,0-1.6-0.3-2-1c-0.4-0.6-0.6-1.4-0.6-2.3&#xA;	c0-1.3,0.4-2.5,1.1-3.5c0.8-1.1,1.8-1.7,3.1-1.7c0.9,0,1.6,0.3,2,1c0.4,0.6,0.6,1.4,0.6,2.3C104.2,31.6,103.8,32.8,103.1,33.8z&#xA;	 M101.7,24.2c-2.3,0-4.2,0.8-5.7,2.3c-1.6,1.6-2.3,3.5-2.3,5.7c0,1.8,0.6,3.3,1.7,4.4s2.6,1.6,4.4,1.6c2.3,0,4.2-0.8,5.7-2.3&#xA;	c1.6-1.6,2.3-3.5,2.3-5.7c0-1.8-0.6-3.3-1.7-4.4S103.6,24.2,101.7,24.2z M139.8,34.4c-0.1,0.3-0.1,0.5-0.1,0.8&#xA;	c-0.7,0.2-1.6,0.3-2.5,0.3c-1.6,0-2.3-0.5-2.3-1.4c0-0.6,0.4-1.1,1.1-1.4c0.4-0.2,1.2-0.4,2.4-0.6c1-0.2,1.7-0.5,2-0.7L139.8,34.4z&#xA;	 M142.8,25c-0.9-0.5-2-0.8-3.3-0.8c-1.6,0-3.4,0.4-5.4,1.1l0.9,2.5c1.5-0.6,2.8-0.8,4.1-0.8s2,0.4,2,1.1s-0.8,1.2-2.5,1.5&#xA;	c-2.5,0.5-4,0.9-4.7,1.2c-1.7,0.8-2.5,2-2.5,3.7c0,2.5,1.9,3.7,5.8,3.7c1.9,0,3.7-0.2,5.3-0.7l1.9-9c0-0.2,0-0.5,0-0.7&#xA;	C144.3,26.6,143.8,25.7,142.8,25z M78.9,21.9c0.6,0,1.1-0.2,1.5-0.6s0.6-0.9,0.6-1.4s-0.2-0.9-0.6-1.3c-0.4-0.3-0.8-0.5-1.3-0.5&#xA;	c-0.6,0-1.1,0.2-1.5,0.6S77,19.6,77,20.2c0,0.5,0.2,0.9,0.5,1.2C78,21.7,78.4,21.9,78.9,21.9z M74.4,24.4&#xA;	C74.4,24.4,74.4,24.4,74.4,24.4c-0.4,0-1.3,0.1-3.2,0.2c-2.9,0.1-5.1,0.4-5.6,3.5l-0.3,1.6C65,31,64.8,32,64.6,32.9L63.5,38h1.2&#xA;	c1.5,0,2.1-0.5,2.5-2v-0.1l1.5-7.3c0.2-0.3,0.5-0.4,1.1-0.6H70c0.4-0.1,0.8-0.1,1.3-0.2c1.8-0.2,2.7-2.7,2.9-3.3&#xA;	C74.4,24.5,74.4,24.4,74.4,24.4z M78.3,24.5c-1.3,0.1-1.8,0.6-2.2,2L73.6,38h1.2c1.5,0,2.1-0.5,2.5-2c0,0,0,0,0-0.1l0.2-0.9v-0.2&#xA;	l2.2-10.4h-1.4L78.3,24.5z"/>
<path d="M18.5,34.3l-2.8,13.1h3.1c4,0,5.4-1.2,6.5-5c0-0.1,0-0.2,0.1-0.3l3.9-18.4c-3.3,0.5-6.5,1.2-9.1,2.8&#xA;	C19.5,29.5,18.9,32.1,18.5,34.3z M43.6,12.6c0,0-0.1,0-0.3,0.1c-0.2,0-0.5,0.1-1,0.1c-0.8,0.1-1.9,0.1-3.5,0.2c0,0,0,0-0.1,0&#xA;	c-0.6,0-1.3,0.1-2,0.1c-0.1,0-0.2,0-0.2,0c-0.4,0-0.7,0-1.1,0.1c-0.1,0-0.2,0-0.3,0c-0.4,0-0.7,0-1.1,0.1s0,0-0.1,0&#xA;	c-6,0.4-10.7,1.4-12.5,7c-0.1,0.2-0.1,0.3-0.2,0.5c-0.1,0.4-0.2,0.9-0.3,1.4l-0.8,4.1v0.2c3.1-2.9,7.1-3.9,11.3-4.6l1.3-0.2&#xA;	c1-0.2,2.2-0.3,3.7-0.5c0.8-0.1,1.5-0.3,2.1-0.6c1.4-0.9,2.5-2.3,3.4-3.7c1-1.6,1.5-3.2,1.7-3.9C43.6,12.7,43.6,12.6,43.6,12.6z"/>
</svg>