<?xml version="1.0" encoding="utf-8"?>
<svg xmlns="http://www.w3.org/2000/svg" id="Layer_1" style="enable-background:new 0 0 160 60;" version="1.1" viewBox="0 0 160 60" x="0px" y="0px">
<style type="text/css">
	.st0{fill:#231F20;}
	.st1{fill:#FFE40F;}
	.st2{fill:#FFFFFF;}
	.st3{fill:#BBBDBF;}
</style>
<title>Asset 17</title>
<g>
	<g>
		<g>
			<g>
				<path class="st0" d="M154.2,24.9c-0.4-0.7-1.8-1.1-2.6-0.9c-1,0.2-1.7,0.4-2.8,0.5l-0.4,0l-0.2-0.2c0-0.5-0.2-1-0.5-1.6h0&#xA;					c-0.1-0.1-1.4-2.9-1.4-2.9c-0.2-0.4-0.6-0.8-1.1-0.9c-0.5-0.1-1.6-0.1-2,0.2l-3.1,1.4c-0.5,0.2-1,0.6-1.1,1l-0.1,0.7&#xA;					c0,0-1.2-1.8-1.2-1.8c-0.1-0.1-0.2-0.2-0.4-0.3c-0.3-0.2-1-0.6-2-0.5c-0.6,0.1-1.3,0.1-1.7,0.5c0,0-0.5,0.5-1.4,1.3l-0.6,0.8&#xA;					l0-0.9c0,0-0.2-0.8-0.5-1.1c-0.2-0.2-0.9-0.8-2.1-0.6v0c-0.6,0.1-4.6,0.6-4.6,0.6s-0.6,0.1-1.1,0.3l-0.9,0.4l0.3-1.6&#xA;					c-0.1-0.6-0.4-1.1-1-1.5l-0.5-0.3c0,0-0.7-0.9-0.7-0.9c-0.2-0.3-0.7-0.6-1.1-0.7c-0.9-0.3-2.1-0.5-3.2,0.3l-3.6,2.5&#xA;					c0,0-1-1.4-1-1.4c-0.6-0.8-2.1-1.3-3.6-0.7c-0.2,0.1-1.1,0.5-1.2,0.7l-2.3,1.9l-1.7-0.1c-2.8,0-8,0-12.3,0.2&#xA;					c-0.5,0-1.5-0.1-2.1,0.6c-0.1,0.2-0.4,0.5-0.5,0.7L87.8,21c-0.3-0.1-1.7,0.1-1.7,0.1s-2.5-1.6-2.5-1.6c-0.3-0.3-0.7-0.4-1.2-0.5&#xA;					c-0.7,0-16.1-1-27.1,1.4c0,0-0.3,0.1-0.3,0.1c-0.3,0.1-0.5,0.3-0.7,0.5L54,21.4l-0.3-0.1c-0.4-0.2-0.5-0.4-1.2-0.2l-0.3,0.1&#xA;					l-0.7,0.1l0.1-0.8c0-0.4-0.6-0.9-0.8-1.2c-0.2-0.3-0.3-0.5-1.2-0.9l-0.1,0l-0.1-0.1c-0.3-0.4-1.3-0.6-1.8-0.6&#xA;					c-0.8,0-19-0.7-37.4,2.5c0,0-0.2,0.1-0.2,0.1c-0.9,0.3-1.4,0.5-1.4,1.4c0,0.2,0.1,0.7,0.2,1c0.1,0.4,0.5,0.8,1,1.3&#xA;					c0.8,0.8,1.6,1.6,1.6,2.3c0,0,0,0.1,0,0.1c0,0.2-0.2,0.5-0.6,0.7C10,27.5,9.3,27.8,8.6,28c-0.8,0.3-1.6,0.6-2.5,1.2&#xA;					c-0.3,0.2-0.9,0.7-1,1.4l0,0.3c0,0.5,0.2,1,0.7,1.5c0,0,0.3,0.2,0.3,0.2l1.2,0.7l0,0c0.8,0.7,2.3,1.6,3.7,0.9l0.8-0.1&#xA;					c1,0.3,2.4-0.1,3.3-0.8l0.8-0.7L15.7,34c0,0.9,0.8,1.5,2.1,1.5h30c0.8,0,1.9,0,2.4-0.4l0.4-0.4l0.5,0.5c0,0,0.2,0.4,0.2,0.4&#xA;					c0.2,0.2,0.4,0.4,0.6,0.5c0.9,0.5,2.8,0.7,3.8-0.1c0.1-0.1,3.3-1.8,3.3-1.8c1-0.2,1.7-0.2,2.1-0.8l0.6-0.5&#xA;					c1.6-0.1,4.7-0.4,7.9-0.8l2.5-0.4L71.9,32c0,0.4,0,0.6,0,0.8c0,0.4,0.4,1,0.7,1.3c0.3,0.4,2.1,1,2.1,1s0.4,0.7,0.4,0.7&#xA;					c0,0.5-0.1,0.6,0.3,1l0,0c0,0,0.4,0.3,0.4,0.3S74.8,38,74.8,38c-0.1,0.1-0.2,0.2-0.3,0.3c-0.2,0.3-0.1,1-0.1,1.4&#xA;					c0,0.3,0.1,0.7,0.3,0.9c0.7,0.8,3.9,1.4,5.2,1.8c0.4,0.2,0.9,0.2,1.3,0c0.6-0.2,1.3-0.6,1.7-1.4l0-0.1l3.6-2.8l0.2,0&#xA;					c2.2-0.1,7.8,0,16,2.4c0.5,0.2,1.1,0.1,1.6-0.2l0.1-0.1l0.2-0.2l0.2,0c0.3,0,0.6,0,0.9,0c0.3,0,0.6-0.2,0.9-0.4l0.8-0.6l0.3-0.2&#xA;					c0,0,0.6,0.5,0.6,0.5c0.8,0.7,2.1,0.7,3,0.2l0.8-0.5c0,0,1.3,0.7,1.4,0.8l2.2,0l3.4-1c0,0,1.5,1.4,4.3,0.5l0,0l1.6-0.8&#xA;					c0,0,1,1.3,3.1,0.9c0.4-0.1,1.3-0.9,1.3-0.9l1.6,4.8c0,0,0,0.1,0,0.1c0.2,0.5,1.3,0.8,1.9,1.1c0.5,0.2,1.3,0.3,2.3-0.1l2.4-0.9&#xA;					c0,0,1.7-1,1.7-1l3.1-4.4c0,0,7.5-1.4,7.8-1.8c0,0,1.7-0.8,1.7-0.8c0.4-0.2,0.6-1,0.6-1.6c0-0.1,0-0.3,0-0.4&#xA;					c-0.4-0.8-1.5-1.5-2.7-1.7c-1.4-0.3-3.2-0.3-3.2-1.8c0-0.2,0.1-0.7,0.1-0.7c0.8-1.1,2.6-1,4.3-1.2c1.4-0.2,2.6-0.8,3.1-1.5&#xA;					c0,0,0.6-0.8,0.6-1.2C154.5,25.4,154.4,25.2,154.2,24.9z M25.5,28.9c1.2-0.5,2.5-1,3.8-1.4c0.1,0.3,0.3,0.8,0.9,1.4H25.5z"/>
			</g>
		</g>
		<g>
			<path class="st1" d="M10.6,21.9L10.6,21.9c17.6-3,35.4-2.4,35.4-2.4c0.2,0.6,0.7,0.5,0.7,0.5c0.9,0.2,0.7,0.7,0.7,0.7&#xA;				c-3.8-0.1-6.4,0.2-6.4,0.2c-14.6,3.3-25.6,9.3-25.6,9.3c-1.9,0.7-2,1.2-2,1.2c-0.7,0.7-1.3,0.3-1.3,0.3c-1.1-0.1-1.9,0.3-1.9,0.3&#xA;				c-0.8,0.5-1.7-0.4-1.7-0.4l-1.2-0.7c-0.5-0.4,0.1-0.7,0.1-0.7c17.1-7.7,28-9.1,28-9.1C28.1,21.1,22,22.4,22,22.4s3.4-0.4,4.3-0.1&#xA;				c0.9,0.2-2.4,1-2.4,1c-3.7,0-9.7,1.3-9.7,1.3c-0.6,0.3-0.9-0.1-0.9-0.1l-2.5-2C10.4,22.2,10.6,21.9,10.6,21.9z"/>
			<path class="st1" d="M60.3,24.2c-1.2,1.1-3.5,1.8-3.5,1.8l-1,1.7c-0.3,0.9-1.4,1-1.4,1c-2.3,0.1-5,0.6-5,0.6&#xA;				c-0.6,0.3-1.1,0-1.1,0l-1.7-1.8c-0.3-0.3-0.1-0.5-0.1-0.5c0.5-1.1,1.9-2,1.9-2c-0.8,0.1-1.3-0.2-1.3-0.2c-2.5,3.1-4,3.1-4,3.1&#xA;				c-1.2,0.3-1.6,0.9-1.6,0.9c-0.6,0.3-1.2,0-1.2,0c-0.3-0.7-1.1-0.9-1.1-0.9l-0.8-0.6c-0.5-0.2-0.1-0.3-0.1-0.3l0.4-0.6&#xA;				c-2.3,0.8-3.9,2.1-3.9,2.1c-0.3,0.3-0.6,0.1-0.6,0.1c-0.8-1.5-1.8-1.4-1.8-1.4c-1-0.1-0.1-0.7-0.1-0.7c2.1-2.3,4.2-3.5,4.2-3.5&#xA;				c0.8-0.5,1.1,0.1,1.1,0.1l1,0.9c0.4,0.6-0.5,0.6-0.5,0.6c-1.3,0.6-2.6,2.2-2.6,2.2C37.3,25.8,39,25,39,25l0.6-0.1l3-2.4&#xA;				c1.6,0.6,2.2,2,2.2,2c0.2,0.4-0.7,0.4-0.7,0.4c-1,0.4-1.5,1.5-1.5,1.5c1.8-0.2,2.5-1.1,2.5-1.1l1.2-1.5c0.4-0.4,0.8-0.1,0.8-0.1&#xA;				c1.3,0.7,2.6,0.4,2.6,0.4c0.4-0.3,0.9-0.3,0.9-0.3c1.2-0.8,2.3-1,2.3-1c0.4-0.1,0.8,0.1,0.8,0.1c0.7,0.4,0.9,1.1,0.9,1.1&#xA;				c1.3-0.2,1.7-0.1,1.7-0.1c0.3,0,0.5,0.3,0.5,0.3c0.2,0.3,0.4,0.8,0.4,0.8c1.1-0.3,2.1-0.9,2.3-1.1L60.3,24.2z M49.6,27&#xA;				c0,0-0.7,0.3,0,0.7L50,28l2.5-0.5c0,0,0.6,0,0.9-0.3l0.8-0.7c0,0-1.9,0.3-3.2-0.6l0,0C51.1,25.9,50.1,26.1,49.6,27z M54.5,26&#xA;				l0.4-0.6c0,0,0.6-0.3-0.4-0.9c0,0-1.3,0.4-2.1,0.9l0,0C52.5,25.4,53.2,26.3,54.5,26z"/>
			<path class="st1" d="M58.5,23.8c-1.6-0.5-2.7-1.2-2.7-1.2c-0.4-0.3,0-0.4,0-0.4c10.5-2.3,25.4-1.3,25.4-1.3l2.5,2.1&#xA;				c0.3,0.4-0.3,0.6-0.3,0.6c-3,0.7-7.7,1.1-7.7,1.1l2.2,0.3c0.5,0,0.5,0.4,0.5,0.4s0.2,0.5,0.3,1c0.1,0.5,0.1,0.7-0.3,1.4&#xA;				c-0.8,1.6-18.1,3-18.1,3l-0.9,1.1c-0.1,0.3-1.1,0.4-1.1,0.4l-2.7,1.1c-1.1,0.2-1.5,0.8-1.5,0.8c-0.5,0.4-1.1,0-1.1,0l-0.6-0.9&#xA;				c-0.5-0.3,0.1-0.7,0.1-0.7l1.3-1.2l-3.1,0.6l-1-0.6c-0.6-0.2,0.1-0.4,0.1-0.4c2.5,0,5.2-0.7,5.2-0.7l5.1-4.1c0.2-0.2,0-0.2,0-0.2&#xA;				l-0.6-0.4c-0.3-0.4,0.4-0.5,0.4-0.5l1.7-0.1l2.7-2.2c-0.9-0.1-1.9,0.4-1.9,0.4l-1.7,1.1c-0.4,0.3-0.8,0-0.8,0l-0.4-0.2L58.5,23.8&#xA;				z M68.5,22.9c0,0,0.7,0.1,0.2,0.6l-0.7,0.7c0,0,3.7,0.1,10.8-2c0,0-4.6-0.7-11,0.1l0,0L68.5,22.9z M61.8,29.5&#xA;				c0,0,7.8-0.5,13.3-2.7c0,0,1.9-0.9-0.8-1.4l-8.2,0.5L61.8,29.5z"/>
			<path class="st1" d="M78.6,26.6c0.2,0.3,0.8,0.4,0.8,0.4c0.6,0.1,0.9-0.1,0.9-0.1l5.8-4.1c0.2-0.4,0.7,0,0.7,0&#xA;				c0.7,1.3,1.8,1.8,1.8,1.8c0.4,0.1,0,0.5,0,0.5c-1,0.1-2.6,1.8-2.6,1.8l1.2,0.7l1.8-0.8c-0.4-0.7,0.2-0.8,0.2-0.8&#xA;				c2.1-2.3,3.7-2.7,3.7-2.7c1.8-0.7,3.9-0.6,3.9-0.6l0.5,0.8v0.4l0.7,0c0.3-0.3,0.5-0.1,0.5-0.1c0.6,0.2,0.7,1,0.7,1l0.9,0l3.3-2.7&#xA;				l-9.3,0.1l-3.6,0.2l-1.5-1.2C89.1,21,89.8,21,89.8,21c5.3-0.3,15.2-0.1,15.2-0.1l3.2-2.5c0.9-0.4,1.3,0.1,1.3,0.1l1.3,1.6&#xA;				c0.3,0.4,0,0.7,0,0.7l-0.8,0.4l2.3,0l4.7-3.4c0.5-0.4,1.3-0.1,1.3-0.1l1,1.3l0.7,0.4c0.5,0.3,0.1,0.7,0.1,0.7l-0.9,0.2&#xA;				c-1.4,0.6-2.8,1.8-2.8,1.8l2.6-0.8c0.5-0.1,0.9,0.2,0.9,0.2l0.7,1.8l0.4,0.3l-0.4,0.6l-1.1,0.2l-2,1.6c-0.3,0.4,0.4,0.1,0.4,0.1&#xA;				l0.7-0.2c0.7-0.3,1.2,0,1.2,0c1.6-2.2,3-3.3,3-3.3c0.5-0.6,1.5-0.8,1.5-0.8l4.7-0.6c0.5-0.1,0.4,0.2,0.4,0.2l0.2,1.5&#xA;				c0.2,1-0.8,1.3-0.8,1.3l-4.9,1.5l1.2,0.8c6.5-0.8,9.9-5.2,9.9-5.2c0.3-0.3,0.8,0,0.8,0l1.8,2.2c0.4,0.3-0.5,0.7-0.5,0.7l-2.2,1.7&#xA;				l0.6,0.4c0.2,0.2,0.5,0,0.5,0c3.7-1.7,5.5-3,5.5-3l-0.4-1.4l3.2-1.5l1.5,2.8c0.5,0.8,0.2,1.4,0.2,1.4c-0.6,0.8-2,1.3-2,1.3&#xA;				c3,0.6,8.4-0.6,8.4-0.6c-3,2.2-9.6,2.2-9.6,2.2c-3.1-0.3-4.7-1-4.7-1l-2.2,0.9c-1.2,0.6-1.9,0.1-1.9,0.1l-1.8-1.1&#xA;				c-0.4-0.3,0-0.4,0-0.4c1-0.7,1.1-1.3,1.1-1.3c-4,2.2-8.7,3.5-8.7,3.5c-1.2,0.3-2.1-0.1-2.1-0.1l-2.5-1.6l-3.3,1.1&#xA;				c-1.2,0.5-2,0.1-2,0.1l-1.1-1c-0.3-0.4,0-0.6,0-0.6l3.7-3.1c-3.5,0.1-7.6,4.9-7.6,4.9c-0.7,0.3-1.2-0.1-1.2-0.1l-0.6-0.7l0.2-1&#xA;				l-4,1.4c-0.5,0.2-0.8,0-0.8,0l-2.4-1.8c-0.4-0.4-0.9,0-0.9,0c-0.1,0.8-2.9,2.9-2.9,2.9c-0.4,0.2-1.3-0.1-1.3-0.1&#xA;				c-2.9-0.2-3.5,0.1-3.5,0.1c-1,0.3-1.4-0.2-1.4-0.2l-1-1.1l-3.1,1.3c-0.7,0.4-1.3,0-1.3,0L83,27.7c-0.5-0.2-0.1-0.5-0.1-0.5&#xA;				l0.7-1.2c-1.9,1.3-3.3,1.8-3.3,1.8c-0.7,0.2-1.8,0-2.1-0.1L78.6,26.6z M94.6,24.9L94.6,24.9c1.1,1.3,2.5,0.4,2.5,0.4l-0.2-0.8&#xA;				L94.6,24.9z M93.5,25.6L91.9,27l0.4,0.4c0,0.3,0.3,0.2,0.3,0.2l2.5-0.1l1.3-1.1C93.3,26.2,93.5,25.6,93.5,25.6z M111.1,22.2&#xA;				l-2.7-0.1l-3.9,3.1c-0.5,0.4-0.1,0.5-0.1,0.5l0.4,0.4c0.5,0.2,1-0.1,1-0.1l1.9-0.6L111.1,22.2z M127.8,23.6c0,0,0.5,0,0.6-0.4&#xA;				l0-0.4c0,0-0.3-0.4-0.6-0.1l-1.1,0.2c0,0-0.2,0-0.4,0.3l-1.5,1.4L127.8,23.6z M142,24l-2.4,1.8l0.8,0c0.4,0,0.6-0.3,0.6-0.3&#xA;				l1.5-1C142.6,23.9,142,24,142,24z"/>
			<path class="st1" d="M102.5,38.4c-10.4-3-17.1-2.3-17.1-2.3l-3.8,3.4c-0.1,0.6-0.7,0.7-0.7,0.7c-1.7-0.6-3.2-0.8-3.2-0.8&#xA;				c-1,0-0.6-0.5-0.6-0.5l3.3-2.9l-1.6,0.3c-0.4,0.1-0.5-0.1-0.5-0.1l-0.7-0.6c-0.3-0.2,0.1-0.3,0.1-0.3l4.1-0.6l3.8-2.5&#xA;				c-6.4,0.7-8,1.7-8,1.7c-0.2,0.2-0.5,0-0.5,0L75.3,33c-0.7-0.1-0.5-0.8-0.5-0.8l0,0c14.4-2.2,26.4-2.7,26.4-2.7l1.5,1.5&#xA;				c0.8,0.6-0.1,0.9-0.1,0.9c-7.5,1-15.3,2.7-15.3,2.7l-0.4,0.4c9.8,0.4,15,1.5,15,1.5L102.5,38.4z M89.9,31.4l0.9,0.7&#xA;				c0.3,0.1,0,0.4,0,0.4l-0.5,0.4c5.4-1.4,8.8-1.8,8.8-1.8c0.4-0.3-0.2-0.2-0.2-0.2C94.7,30.9,89.9,31.4,89.9,31.4z"/>
			<path class="st1" d="M101.5,36.2l-0.2-0.8c-0.5-1,0.3-1.4,0.3-1.4l5.1-2.6c0.7-0.4,1,0,1,0c0.7,0.5,0.8,1.4,0.8,1.4l1.8-1.7&#xA;				c0.1-0.3,0.3-0.1,0.3-0.1c1,0.5,1.6,1.2,1.6,1.2c0.2,0.3,0,0.4,0,0.4c-2.2,1.8-2.8,2.9-2.8,2.9c-0.2,0.4,0,0.6,0,0.6l0.6,0.3&#xA;				l1.4-1l1.5-2.7c0-0.3,0.4-0.4,0.4-0.4l5-1.6c1.6-0.3,1.6,0.2,1.6,0.2c0.1,0.6-0.1,1.2-0.1,1.2l-0.4,1.2c-0.1,0.4-0.4,0.4-0.4,0.4&#xA;				h-0.8c-0.3,0-0.3-0.2-0.3-0.2l0-0.6c0.3-0.8-0.2-0.6-0.2-0.6l-2.8,1c-0.3,0.1-0.2,0.3-0.2,0.3l0.5,2c0.4,0.8,1,0.4,1,0.4&#xA;				c4-0.9,7.6-4.8,7.6-4.8c0.3-0.3,0.9-0.1,0.9-0.1l0.9,1.3c0.3,0.3,0,0.5,0,0.5c-1.6,0.7-3.3,2.7-3.3,2.7c-0.2,0.3,0,0.4,0,0.4h0.6&#xA;				l2.8-1.4l2.7-3.8c0.4-0.2,0.7,0,0.7,0l1.3,1.3c0.2,0.1,0,0.3,0,0.3v0.4l2.3-1.3c0.5-0.3,0.7,0,0.7,0l0.9,1.2c0.2,0.3,0,0.4,0,0.4&#xA;				c-1.4,1.1-1.6,2.2-1.6,2.2l1.5-0.6c-0.1-0.3,0.1-0.5,0.1-0.5l1.8-2.4c0.1-0.5,0.6-0.4,0.6-0.4l1.9-0.5c0.5-0.1,0.7,0.1,0.7,0.1&#xA;				l1,0.8l0.7-1.2c0.1-0.5,0.5-0.1,0.5-0.1l1.9,1.5c0.4,0.2,0.2,0.5,0.2,0.5c-1.2,0.7-2.2,2.4-2.2,2.4l8.7-1.1&#xA;				c0.4,0,0.1,0.2,0.1,0.2l-0.4,0.3c-1.8,0.2-1.6,0.7-1.6,0.7c-2.4,0.1-7.7,1.4-7.7,1.4l-3.5,4.9c-0.2,0.3-0.6,0.3-0.6,0.3l-2.6,1&#xA;				c-0.9,0.3-1.1-0.2-1.1-0.2l-1.2-3.9c-0.3-0.5,0.2-0.7,0.2-0.7c1.4-0.8,3.6-1.4,3.6-1.4c-0.6-0.3-1-0.8-1-0.8l-3.3,1.8&#xA;				c-1.5-0.3-1.7-1.1-1.7-1.1l1.8-2.9l-2.1,1.1l-1.9,2.8c-0.2,0.5-0.7,0.2-0.7,0.2c-0.2-0.4-1.7-0.9-1.7-0.9c-0.2-0.2,0-0.4,0-0.4&#xA;				l-2.9,1.3c-0.8,0.5-1.3,0-1.3,0c-1-0.5-1.6-1.4-1.6-1.4l-1.5,1l-3.2,0.8c-0.4,0.2-0.6,0-0.6,0l-1.9-1.5c-1.3,1.1-2.1,1.4-2.1,1.4&#xA;				c-0.3,0.3-0.7,0-0.7,0l-1.8-1.4l-2.4,1.7c-0.8,0.1-1.3-0.2-1.3-0.2c-0.5,0.1-0.9,0.4-0.9,0.6L101.5,36.2z M104.2,34.8&#xA;				c0,0-0.3,0.3,0,0.5c0,0,0.1,0.6,0.8,0.8l0.6-0.1l1.5-0.9l0.7-1.2l-0.4-0.6L104.2,34.8z M133.9,38.5l0.4,1.8c0,0,0,0.4,0.3-0.1&#xA;				l1.7-2.8C136.4,37.5,135.1,37.8,133.9,38.5z M138.9,32.3c0,0-0.2-0.3-0.5,0.1l-1.5,2c0,0-0.3,0.2,0,0.4c0,0,0.6,0.2,0.8,0.7&#xA;				c0,0,0.7-1.5,1.9-2.7l0,0L138.9,32.3z M125.7,28.8l-0.9,0.6c-0.4,0.5-0.1,1-0.1,1c0.7,0.1,1.1,1.3,1.1,1.3&#xA;				c0.4,0.4,0.8,0.1,0.8,0.1l0.3-0.1c0.3,0.1,0.3-0.4,0.3-0.4c-0.1-1.6-0.7-2.1-0.7-2.1C126.4,28.6,125.7,28.8,125.7,28.8z"/>
		</g>
		<g>
			<path class="st2" d="M28.1,30.5h1.2v2.2c0,0.2,0,0.4-0.1,0.6c-0.1,0.2-0.2,0.4-0.3,0.5c-0.1,0.1-0.3,0.3-0.5,0.3&#xA;				c-0.2,0.1-0.5,0.1-0.8,0.1c-0.2,0-0.4,0-0.6,0c-0.2,0-0.4-0.1-0.5-0.2c-0.1-0.1-0.3-0.2-0.4-0.3c-0.1-0.1-0.2-0.3-0.2-0.4&#xA;				c-0.1-0.2-0.1-0.4-0.1-0.6v-2.2h1.2v2.3c0,0.2,0.1,0.4,0.2,0.5c0.1,0.1,0.3,0.2,0.5,0.2c0.2,0,0.4-0.1,0.5-0.2&#xA;				c0.1-0.1,0.2-0.3,0.2-0.5V30.5z"/>
			<path class="st2" d="M29.8,33.2h1.1v1h-1.1V33.2z"/>
			<path class="st2" d="M31.4,33l1.1-0.1c0,0.2,0.1,0.3,0.1,0.4c0.1,0.2,0.3,0.2,0.5,0.2c0.2,0,0.3,0,0.4-0.1&#xA;				c0.1-0.1,0.1-0.2,0.1-0.3c0-0.1,0-0.2-0.1-0.3c-0.1-0.1-0.3-0.1-0.6-0.2c-0.5-0.1-0.9-0.3-1.1-0.5c-0.2-0.2-0.3-0.4-0.3-0.7&#xA;				c0-0.2,0.1-0.4,0.2-0.5c0.1-0.2,0.3-0.3,0.5-0.4c0.2-0.1,0.5-0.1,0.9-0.1c0.5,0,0.8,0.1,1.1,0.3c0.3,0.2,0.4,0.5,0.4,0.8&#xA;				l-1.1,0.1c0-0.2-0.1-0.3-0.2-0.4c-0.1-0.1-0.2-0.1-0.4-0.1c-0.1,0-0.2,0-0.3,0.1c-0.1,0.1-0.1,0.1-0.1,0.2c0,0.1,0,0.1,0.1,0.2&#xA;				c0.1,0,0.2,0.1,0.4,0.1c0.5,0.1,0.9,0.2,1.1,0.3c0.2,0.1,0.4,0.3,0.5,0.4c0.1,0.2,0.2,0.3,0.2,0.6c0,0.2-0.1,0.5-0.2,0.7&#xA;				c-0.1,0.2-0.3,0.4-0.6,0.5c-0.2,0.1-0.5,0.2-0.9,0.2c-0.6,0-1.1-0.1-1.3-0.4C31.6,33.7,31.4,33.4,31.4,33z"/>
			<path class="st2" d="M35.3,33.2h1.1v1h-1.1V33.2z"/>
			<path class="st2" d="M39.4,33.7h-1.3l-0.2,0.6h-1.2l1.4-3.7h1.3l1.4,3.7h-1.2L39.4,33.7z M39.2,32.8l-0.4-1.3l-0.4,1.3H39.2z"/>
			<path class="st2" d="M41.1,33.2h1.1v1h-1.1V33.2z"/>
		</g>
		<g>
			<g>
				<path class="st0" d="M143.4,40.1h0.8c0.3,0,0.4,0,0.4,0c0.2,0.1,0.3,0.3,0.3,0.5c0,0.2-0.1,0.4-0.3,0.5c-0.1,0-0.1,0-0.2,0.1v0&#xA;					c0.2,0.1,0.2,0.2,0.4,0.5l0.2,0.4h-0.5l-0.3-0.4c-0.2-0.3-0.3-0.4-0.5-0.4h-0.1V42h-0.4V40.1z M143.8,40.9h0.3&#xA;					c0.1,0,0.3,0,0.3,0c0.1,0,0.1-0.2,0.1-0.2c0-0.1,0-0.1-0.1-0.2c-0.1,0-0.1,0-0.4,0h-0.3V40.9z"/>
			</g>
			<path class="st0" d="M142.4,41.1c0,1,0.8,1.8,1.8,1.8c1,0,1.8-0.8,1.8-1.8c0-1-0.8-1.8-1.8-1.8C143.2,39.4,142.4,40.2,142.4,41.1&#xA;				z M142.8,41.1c0-0.8,0.6-1.4,1.4-1.4c0.8,0,1.4,0.6,1.4,1.4c0,0.8-0.6,1.4-1.4,1.4C143.4,42.6,142.8,41.9,142.8,41.1z"/>
		</g>
		<g>
			<path class="st3" d="M115.5,16.2L115.5,16.2C115.5,16.2,115.5,16.2,115.5,16.2L115.5,16.2c0,0-2,1.5-2.6,1.9&#xA;				c-0.1-0.2-0.6-0.8-0.6-0.8c-0.9-1.1-2.8-1.7-4.8-0.9c-0.3,0.1-0.5,0.2-0.7,0.4c0,0-2,1.7-2.3,1.9c-2.9,0-9.8-0.1-14,0.2&#xA;				c-0.6,0-1.8,0.2-2.6,1.1c-0.1,0.2-0.2,0.3-0.3,0.5c-0.3,0-0.5,0-0.8,0c-0.3,0-0.6,0.1-0.9,0.3c-0.4-0.3-1.6-1.4-1.6-1.4&#xA;				c-0.5-0.4-1.1-0.6-1.8-0.7c-0.7,0-16.1-1-27.2,1.4l-0.5,0.1c-0.3,0.1-0.6,0.3-0.8,0.5c-0.5-0.2-1.2-0.3-2-0.1&#xA;				c0-0.4-0.2-0.8-0.4-1.1c-0.2-0.3-0.8-1-1.9-1.4c-0.5-0.5-1.2-0.8-1.9-0.8c-0.8,0-19-0.6-37.3,2.4l0,0l-0.3,0.1&#xA;				c-1.1,0.3-2.8,0.7-2.1,3C8.3,23.4,9,24,9.7,24.7c0.6,0.5,1.3,1.3,1.3,1.6c0,0,0,0.1-0.1,0.1c-0.6,0.3-1.2,0.6-1.9,0.8&#xA;				c-0.9,0.3-1.7,0.6-2.7,1.2c-0.4,0.3-1.2,0.9-1.4,1.9c0,0,0,0.4,0,0.4c0,0.7,0.3,1.4,0.9,2c0,0,0.4,0.3,0.4,0.3&#xA;				c0,0,1.1,0.7,1.1,0.7l-0.1,0c1.4,1.1,3.3,1.4,4.8,0.6l0,0c0,0,0.2,0,0.3,0c1,0.2,1.9,0.1,2.8-0.4c0.2,1.2,1.6,2.1,3.3,2.1h29.7&#xA;				c0.9,0,1.7-0.2,2.3-0.6c0.1,0.2,0.3,0.4,0.3,0.4c0.2,0.3,0.6,0.6,0.9,0.8c1.2,0.6,3.1,0.7,4.5-0.3c0.1-0.1,0.2-0.2,0.3-0.3&#xA;				c0.2,0,0.5-0.1,0.5-0.1s2.5-1,2.6-1c1.2-0.2,2.1-0.7,2.6-1.5l0,0c0,0,0.1-0.1,0.1-0.1c1.6-0.1,4.6-0.4,7.7-0.8&#xA;				c0,0,0.9-0.1,1.6-0.2c0,0.1,0,0.3,0,0.4c0,0.6,0.2,1.1,0.5,1.6c0.4,0.6,1.1,1,1.8,1.2l-0.1,0c0,0,0.2,0.1,0.4,0.2&#xA;				c0,0.6,0.2,1.1,0.7,1.5c-0.1,0.1-0.3,0.2-0.3,0.2c-0.2,0.1-0.3,0.3-0.4,0.5c-0.3,0.4-0.4,0.9-0.4,1.4c0,0.4,0.1,0.9,0.4,1.3&#xA;				c0.3,0.5,1.1,1.3,2.8,1.5l0,0c0.2,0,1.4,0.2,2.7,0.7c0.6,0.2,1.4,0.2,2,0.1c0.9-0.3,1.7-0.9,2.2-1.7c0.1-0.1,2.5-2.2,2.8-2.4&#xA;				c2.3-0.1,7.9,0.1,15.8,2.3c0.8,0.2,1.6,0.1,2.3-0.2c0,0,0.1,0,0.1-0.1c0.3,0,0.6,0,0.9,0c0.5-0.1,0.9-0.2,1.3-0.5&#xA;				c0,0,0.2-0.2,0.4-0.3c1.2,0.9,2.9,1,4.1,0.2c0,0,0.2-0.1,0.4-0.2c0,0,0.1,0.1,0.1,0.1l0,0c0.8,0.7,2.2,1.1,3.6,0.6l0,0l3-0.8&#xA;				c0,0,0.1,0,0.2-0.1c0.1,0.1,0.2,0.1,0.2,0.1l0,0c1,0.8,2.8,1.1,4.4,0.2l0,0c0,0,0.8-0.4,1.1-0.5c0.1,0.1,0.2,0.2,0.3,0.3&#xA;				c0.9,0.6,2,0.7,3,0.4c0.4-0.1,0.8-0.3,1.1-0.6c0.2,0.5,1.1,3.7,1.1,3.7c0,0,0,0.1,0,0.1c0.3,0.8,1,1.4,1.8,1.7&#xA;				c0.7,0.3,1.7,0.4,3.1-0.1c0,0,2.2-0.8,2.3-0.9c0.6-0.1,1.3-0.4,2-1.1c0,0,0.2-0.3,0.2-0.3c0,0,2.4-3.4,2.9-4.1c2-0.5,4.6-1,5.8-1&#xA;				c0.7,0,1.4-0.3,1.9-0.7c0.4-0.1,0.8-0.2,1.2-0.4c0,0,0.4-0.3,0.4-0.3c0,0,0.1-0.1,0.1-0.1c0.7-0.4,0.9-1.4,0.9-2.2&#xA;				c0-0.2,0-0.4-0.1-0.6l0,0l0,0c-0.5-1.2-2.1-1.5-3.4-1.8c-1.6-0.3-2.4-0.6-2.4-1.4c0-0.1,0-0.2,0-0.3c0.6-0.7,2-0.9,3.4-1.1&#xA;				c1.5-0.2,3.1-0.5,3.8-1.4l-0.1,0.1c0.5-0.5,0.8-1,0.8-1.6c0-0.4-0.1-0.8-0.3-1.1c-0.6-1-1.9-1.4-3.2-1.2&#xA;				c-0.8,0.2-1.8,0.3-2.8,0.5c-0.1-0.4-0.2-0.8-0.4-1.3c0,0,0,0,0,0l-1.4-2.8c-0.3-0.6-0.9-1.1-1.7-1.3c-0.8-0.2-1.6-0.2-2.3,0.2&#xA;				l-3.1,1.5c-0.4,0.2-0.7,0.5-1,0.8c-0.3-0.3-0.5-0.7-0.5-0.7c-0.2-0.2-0.3-0.4-0.5-0.5c-0.4-0.3-1.4-0.8-2.7-0.7&#xA;				c-0.9,0.1-1.7,0.5-2.2,1.1c0,0-0.1,0.1-0.1,0.1c0,0-0.2,0.2-0.5,0.6c-0.1-0.3-0.3-0.6-0.6-0.9c-0.3-0.3-1.3-1-2.9-0.8l0,0&#xA;				l-4.7,0.6c0,0-0.3,0.1-0.3,0.1c0,0-0.1,0-0.3,0.1c0-0.1,0-0.2,0-0.2c-0.1-0.8-0.6-1.5-1.4-2c0,0-0.2-0.1-0.3-0.2&#xA;				c-0.1-0.1-0.7-1-0.7-1c-0.3-0.4-0.8-0.7-1.3-0.9C118.6,15.2,116.9,15.2,115.5,16.2z M119.3,16.4c0.4,0.1,0.7,0.3,0.9,0.6&#xA;				c0,0,0.8,1.1,0.8,1.1l0.5,0.3c0.6,0.4,0.9,0.9,1,1.4l0,0.2c0,0.1,0,0.3-0.1,0.4l-0.2,0.9l0.9-0.4c0.5-0.2,0.8-0.3,0.9-0.3&#xA;				c0,0,0.2,0,0.2,0s4-0.5,4.6-0.5v0c1.2-0.2,1.8,0.3,2.1,0.5c0.3,0.3,0.5,0.6,0.5,1l0,0l0.2,1.1l0.7-0.6c0.9-0.7,1.3-1.3,1.3-1.3&#xA;				c0,0,0,0,0,0l0,0c0.4-0.4,0.9-0.7,1.5-0.7c1-0.1,1.7,0.3,2,0.5c0.1,0.1,0.3,0.2,0.4,0.3c0,0,1.7,2.1,1.7,2.1l0.2-1&#xA;				c0.1-0.5,0.4-0.8,0.9-1.1l3.1-1.5c0.5-0.2,1-0.3,1.5-0.1c0.5,0.1,0.9,0.5,1.1,0.9c0,0,1.3,2.7,1.4,2.8h0c0.3,0.5,0.4,1,0.5,1.5&#xA;				l0,0.4l0.5-0.1c1.1-0.1,2.4-0.3,3.3-0.5c0.8-0.2,1.7,0.1,2.1,0.8l0,0c0.1,0.2,0.2,0.5,0.2,0.7c0,0.4-0.2,0.8-0.5,1.1l0,0l0,0&#xA;				c-0.5,0.6-1.8,0.8-3.2,1c-1.6,0.2-3.3,0.5-4.1,1.5l0,0.1l0,0.1c0,0.2-0.1,0.4-0.1,0.6c0,1.5,1.7,1.9,3.1,2.1&#xA;				c1.2,0.2,2.4,0.5,2.7,1.3c0,0.1,0,0.2,0,0.3c0,0.5-0.2,1.3-0.6,1.5c0,0-0.1,0-0.1,0c0,0-0.4,0.3-0.4,0.3&#xA;				c-0.2,0.1-0.5,0.2-0.8,0.3l0,0l-0.2,0l-0.1,0.1c-0.3,0.3-0.8,0.5-1.3,0.6c-1.7,0.1-5.5,0.9-6.2,1.1l-0.2,0l-3.1,4.4&#xA;				c0,0-0.1,0.2-0.1,0.2c-0.5,0.5-1.1,0.7-1.5,0.8l0,0l-2.4,0.9c-1,0.4-1.8,0.3-2.3,0.1c-0.6-0.2-1.1-0.7-1.3-1.2c0,0,0-0.1,0-0.1&#xA;				l-1.1-3.8c0,0-0.1-0.3-0.1-0.3l-0.2-0.1l-0.7-0.4l-0.3,0.3c-0.3,0.3-0.6,0.5-1,0.6c-0.7,0.2-1.5,0.1-2.1-0.3&#xA;				c-0.1-0.1-0.2-0.2-0.3-0.3l-0.1-0.1l-0.5-0.3l-0.2,0.1l-1.3,0.6l0,0c-1.2,0.7-2.5,0.4-3.3-0.2l0,0l-0.7-0.4l-0.3,0.1l-0.1,0.1&#xA;				l-0.2,0.1c0,0-3,0.8-3,0.8l0,0c-1.1,0.4-2.1,0.1-2.6-0.4l0,0l0,0c-0.1-0.1-0.6-0.5-0.6-0.5l-0.3,0.2l-0.7,0.4&#xA;				c-0.9,0.5-2.1,0.5-2.9-0.2c0,0-0.6-0.5-0.6-0.5l-0.3,0.2l-0.8,0.5c-0.3,0.2-0.6,0.3-0.9,0.3c-0.3,0-0.6,0-0.9,0l-0.2,0l-0.2,0.2&#xA;				l-0.1,0.1c-0.5,0.2-1,0.3-1.5,0.2c-8.2-2.3-14.1-2.4-16.3-2.3l-0.2,0L83,40.5l0,0.1c-0.4,0.7-1.1,1.1-1.7,1.3&#xA;				c-0.4,0.1-0.9,0.1-1.3,0c-1.3-0.5-2.5-0.7-2.9-0.7l0,0l0,0c-1.3-0.1-1.8-0.7-2-1c-0.2-0.3-0.3-0.6-0.3-0.9c0-0.3,0.1-0.7,0.3-1&#xA;				c0.1-0.1,0.2-0.2,0.3-0.3c0,0,0.9-0.8,0.9-0.8s-0.3-0.3-0.3-0.3l0,0c-0.5-0.4-0.7-0.8-0.7-1.3c0,0,0-0.1,0-0.1l0.1-0.4L75,35&#xA;				l-0.8-0.3l0,0c-0.6-0.1-1-0.4-1.3-0.8c-0.3-0.3-0.4-0.7-0.4-1.2c0-0.4,0.1-0.6,0.1-0.8l0.2-0.6l-3.1,0.4&#xA;				c-3.2,0.4-6.3,0.7-7.9,0.8l-0.2,0L61.4,33l0,0c-0.4,0.6-1.1,0.9-2.1,1.1l-0.1,0l-2.6,1c0,0-0.4,0.1-0.4,0.1s-0.2,0.1-0.3,0.1&#xA;				c0,0-0.1,0-0.1,0c-0.1,0.1-0.3,0.3-0.3,0.4c-1,0.8-2.4,0.7-3.3,0.2c-0.3-0.1-0.5-0.3-0.6-0.5c0,0-0.5-0.7-0.5-0.7l-0.5-0.5&#xA;				l-0.4,0.4c-0.5,0.4-1.2,0.7-2,0.7H18.4c-1.3,0-2.4-0.7-2.4-1.6v-1.3l-0.8,0.6c-0.8,0.7-1.9,0.9-2.8,0.6l-0.1,0l-0.1,0&#xA;				c-0.3,0-0.5,0.1-0.6,0.1l0,0l0,0c-1.4,0.7-2.8,0.1-3.6-0.5l0,0l-1.1-0.7c0,0-0.3-0.2-0.3-0.2c-0.4-0.4-0.7-0.9-0.7-1.4l0-0.3&#xA;				c0.1-0.7,0.7-1.2,1-1.4c0.9-0.5,1.7-0.8,2.5-1.1c0.7-0.2,1.4-0.5,2.1-0.9c0.4-0.2,0.5-0.5,0.6-0.7c0,0,0-0.1,0-0.1&#xA;				c0-0.7-0.7-1.4-1.5-2.2c-0.6-0.5-1.2-1.1-1.3-1.5C9,22.3,9,22,9,21.8c0-0.8,0.7-1,1.6-1.2c0,0,0.2,0,0.2-0.1&#xA;				c18.2-3,36.3-2.4,37-2.4c0.5,0,1,0.2,1.3,0.6l0.1,0.1l0.1,0c0.9,0.3,1.3,0.8,1.5,1c0.2,0.3,0.3,0.6,0.3,1L51,21.6l0.7-0.1&#xA;				l0.4-0.1c0.8-0.1,1.4,0,1.8,0.2l0.3,0.1l0.2-0.2c0.2-0.2,0.5-0.4,0.7-0.5c0,0,0.3-0.1,0.3-0.1c11-2.3,26.3-1.4,26.9-1.4&#xA;				c0.4,0,0.8,0.2,1.2,0.4c0,0,2.2,1.8,2.2,1.8l0.3-0.2c0.3-0.2,0.5-0.2,0.8-0.3c0.3,0,0.5,0,0.8,0l0.4,0.1l0.1-0.4&#xA;				c0.1-0.2,0.2-0.4,0.3-0.6c0.6-0.7,1.4-0.8,1.9-0.8c4.3-0.2,11.3-0.2,14.2-0.2l0.2,0l2.6-2.1c0.1-0.1,0.3-0.2,0.4-0.3&#xA;				c1.5-0.6,3-0.2,3.6,0.6c0,0,1.2,1.5,1.2,1.5l3.4-2.5C117.1,16,118.5,16.1,119.3,16.4z M56.5,35.9L56.5,35.9&#xA;				C56.5,35.9,56.5,35.9,56.5,35.9C56.5,35.9,56.5,35.9,56.5,35.9z M51.9,20.6L51.9,20.6L51.9,20.6z M154.5,24.7L154.5,24.7&#xA;				L154.5,24.7L154.5,24.7z M111.6,39.9C111.6,39.9,111.6,39.9,111.6,39.9L111.6,39.9C111.6,39.9,111.6,39.9,111.6,39.9z&#xA;				 M104.7,40.7L104.7,40.7L104.7,40.7z"/>
			<path class="st3" d="M29.4,26.7c-1.8,0.6-3.6,1.3-5.3,2l0.2,0.8h7.1l0.2-0.8c-1.1-0.3-1.4-1.1-1.4-1.3L30,26.5L29.4,26.7z&#xA;				 M29.2,27.6L29.2,27.6L29.2,27.6z M29.2,27.6c0.1,0.2,0.2,0.6,0.6,1c-1.1,0-1.9,0-3.4,0C27.3,28.3,28.2,28,29.2,27.6z"/>
		</g>
	</g>
</g>
</svg>