<?xml version="1.0" encoding="utf-8"?>
<svg xmlns="http://www.w3.org/2000/svg" id="Layer_1" style="enable-background:new 0 0 160 60;" version="1.1" viewBox="0 0 160 60" x="0px" y="0px">
<style type="text/css">
	.st0{fill-rule:evenodd;clip-rule:evenodd;}
	.st1{fill:#FFFFFF;}
</style>
<title>Asset 17</title>
<g>
	<path class="st0" d="M111.7,16.7l-0.4,1l-0.1-0.1c-7.2-3-13.5-1.5-17.3,1.5l1-2.4h-9.5c0,0-0.8,1.9-1.2,2.7&#xA;		c-0.3-0.8-1.1-2.7-1.1-2.7h-9.4c0,0-1.7,4.1-2.4,5.7c-0.1-1.6-0.5-5.7-0.5-5.7l-0.3,0l-0.4,0H58.8l0,0H48.1c0,0-3,3.7-3.8,4.6&#xA;		c0-1.1-0.2-4.6-0.2-4.6l-10.5,0l0.4,14h1.5l-5.2,12.8h42.4c0,0,0.8-1.7,1.1-2.6c0.3,0.8,1,2.6,1,2.6h9l0,0H102l0.5-1.3&#xA;		c2.4,1.3,10,2.4,14.6,1.2c3.1-0.8,4.9-2.5,5.1-5l0-0.3c0-0.5-0.2-1-0.4-1.4c0.1-0.2,2.1-4.9,2.1-4.9l-0.5-0.5&#xA;		c-0.2-0.2-0.5-0.4-0.9-0.6l1.5,0l2.1-5.5c0,0,0.6-1.4,0.6-1.4l0.8-1.8c0,0,0.2-0.5,0.2-0.5c0,0,0.1-0.3,0.1-0.3&#xA;		c0,0,1.6-4.2,1.6-4.2l0.2-0.4H111.7z"/>
	<path class="st1" d="M46.4,29.6l10.1-11.7h-7.7l-5.3,6.5l-0.3-6.5h-8.3l0.4,11.7H46.4z M56.2,29.6l1.3-1.4l4.3,0l0,1.4h12&#xA;		c0,0-1.5-0.9-1.5-1.9c0-3.9,12.7-4.2,14-2.7l-1.4,2.8c-1.1-0.4-2.7-0.8-4-0.8c-3,0-3.5,1.8-0.6,1.6l-0.7,1.6c0,0-0.1,0-0.8,0&#xA;		c-2.9,0-3.7,1.5,0.1,1.6c2.3,0.1,2.6-1.3,1.6-1.6l0.8-1.6l7.8,0l4.2-10.6h-7.1l-2,4.5l-1.8-4.5h-7.9l-3.9,9.2l-0.8-9.2H58.5&#xA;		l-10,11.7H56.2z M62,22.5v2.3h-2.1L62,22.5z M106.4,28.8l1.8-3.8c-13.2,3.2-9.2-5.8,1-2.6l1.7-3.7C92.4,11.1,80.9,35.2,106.4,28.8z&#xA;		 M127,21.1l1.3-3.3h-15.7L108,29.6l15.6,0L125,26l-7,0l0.6-1.1h6.8l1.2-2.9h-7.1l0.4-0.9H127z M49,30.7l-1.8,4h-3.5l1.7-4h-8.6&#xA;		l-4.8,11.7h8.4l1.4-3.2h3.3l-1.4,3.2h8.6l4.8-11.7H49z M58.9,30.7l-4.8,11.7h8.7l5-11.7H58.9z M86.6,30.7&#xA;		c-2.1,5.5-17.5,5.4-16.3,1.1h-1.4l-4.3,10.7h7.5l1.9-4.3l1.7,4.3h7.9l5-11.7H86.6z M95.7,38.7l0.5-1.1h7.3l1.1-2.7h-7.4l0.6-1.1&#xA;		h7.2l1.2-3.1h-16l-4.6,11.7h15.8l1.6-3.8H95.7z M105.9,35.4c-0.2,2.2,4.3,2.6,4.9,2.8c0.6,0.2,0.8,0.9,0,1&#xA;		c-2.3,0.5-5.6-0.5-6.4-1.2l-1.4,3.2c0.8,1.2,17.6,4.4,18.2-2.8c0.2-2.7-4.4-2.7-5.5-2.8c-0.9-0.1-1-1,0.1-1.1&#xA;		c1.9-0.2,4.6,0.2,5.5,1l1.5-3.4C121.6,30.6,106.6,28.8,105.9,35.4z"/>
</g>
</svg>