<?xml version="1.0" encoding="utf-8"?>
<svg xmlns="http://www.w3.org/2000/svg" id="Layer_1" style="enable-background:new 0 0 160 60;" version="1.1" viewBox="0 0 160 60" x="0px" y="0px">
<style type="text/css">
	.st0{fill-rule:evenodd;clip-rule:evenodd;fill:#231F20;}
	.st1{fill-rule:evenodd;clip-rule:evenodd;fill:#EA2427;}
	.st2{fill:#EC1C24;}
</style>
<g>
	<g>
		<path class="st0" d="M64.2,22.3c0,0,3,0.1,4.3,0c0,0-0.1,1.7,0.3,2.2c0,0,0.3,0.9,2.3,0.7c0,0,1.1-0.2,2.1-1.3&#xA;			c0,0,0.7-0.8,0.7-1.4c0,0,0-1.4-2.2-1.5H69c0,0-1.4,0-1.9-0.1c0,0-2.2-0.4-2.6-2.3c0,0-0.3-1,0.6-2.4c0,0,1.1-1.9,3.7-2.2&#xA;			c0,0,2.7-0.4,5.9,0c0,0,2,0.1,2.9,1.6c0,0,0.5,0.8,0.4,2c0,0-4.5,0.3-4.6,0.3c-0.1,0,0.3-0.5,0.3-0.8c0,0,0.3-1.7-2-1.8&#xA;			c0,0-1.6-0.1-2.5,0.9c0,0-1,1-0.5,1.7c0,0,0.1,0.7,1.6,0.8c0,0,1.7,0.2,2.5,0c0,0,0.9-0.3,2,0c0,0,1.9,0.2,2.5,1.4&#xA;			c0,0,1.1,1.5,0.3,3.5c0,0-0.5,3.1-5.6,3.1l-4.6,0c0,0-2.5,0.1-3-2.2C64.4,24.5,64.2,23.5,64.2,22.3z"/>
		<path class="st0" d="M97.3,26.6c0,0,0.5-1.8,0.7-3.6l0.2-5.6c0,0,0.1-1.4-0.7-2.6c0,0-0.3-0.3-0.3-0.7l4.7-0.1l0.2,1.3&#xA;			c0,0,0,0.1,0.3-0.1c0,0,0.4-0.5,3.5-1.2c0,0,3.9-0.1,5.5,0c0,0,2.9,0,4,2.5c0,0,0.9,1.8,0.1,4.2c0,0-0.8,2.9-2.9,4&#xA;			c0,0,0,0.1,0.9-0.1c0,0,2-0.5,2.6-0.5c0,0,0,0.2-0.1,0.4c0,0-1.1,2.1-1.3,2.2h-11.4c0,0-0.5,0.1-0.6-0.1c0,0-0.3-0.1,0.4-0.3&#xA;			c0,0,4.9-1.2,7-3.7c0,0,1.9-1.5,1.6-4c0,0-0.2-2.5-2.5-3.3c0,0-2.7-0.7-4.7,1.7c0,0-2,1.6-2.6,5.3c0,0-0.3,2.1-0.2,4.4l-4,0&#xA;			C97.6,26.8,97.1,26.7,97.3,26.6z"/>
		<path class="st0" d="M117.2,26.8c0,0,0.3-1.1,0.3-1.8c0,0,0.3-5.8,0.1-7.2c0,0-0.1-2.8-1.7-3v-1.1l6.1,0.1c0,0-0.4,0.9-0.6,2&#xA;			l0,8.4c0,0,0.2,1.8,0.7,2.6L117.2,26.8z"/>
		<path class="st0" d="M114.4,11.3c0,0-0.5,0,0.1-0.2l2.9-1l1.3,0.6l4.8,2.1l-2.6,1l-6-2.2L114.4,11.3z"/>
		<g>
			<g>
				<path class="st0" d="M49.3,23.5v-2.8c0-2.4,0.3-4.2,0.3-4.2c0-1.7,0.4-2.5,0.4-2.5h-1.2l-0.3,0l-1,0.4c-1.1,0.3-1.9-0.1-1.9-0.1&#xA;					c-3.3-1.1-7.1-0.5-7.1-0.5c-5.4,1.2-6,6.8-6,6.8c-0.3,3.6,2,5,2,5c1.7,1.2,4.1,0.9,4.1,0.9c0.8-0.1,3.5-0.5,3.5-0.5&#xA;					c2.2-0.1,3.2-1,3.2-1c0.3-0.3,0.3,0,0.3,0c0.1,0.3,0.3,1.7,0.3,1.7l4-0.3L49.4,25L49.3,23.5z M45.4,19.9c0,0-1.3,4-5.1,5.1&#xA;					c0,0-0.7,0.1-1,0c0,0-2.3-0.4-2.8-2.6c0,0-0.7-2.1,0.7-4c0,0,2-3.1,5-2.9c0,0,2.1,0,3.3,2C45.4,17.5,46,18.6,45.4,19.9z"/>
			</g>
		</g>
		<g>
			<g>
				<path class="st0" d="M30.5,20.1c2.5-1.3,2.1-3.4,2.1-3.4c-0.3-2.5-2.9-3-2.9-3c-1.3-0.4-3.2,0-3.2,0L25.2,14&#xA;					c-1.2,0.1-1.5,0.3-1.5,0.3l-0.3-0.7l-0.5,0c-1.2,0-2.3,0.2-2.3,0.2h-0.5l-0.5,0.1v0.2l0.2,0.5c0.3,0.4,0.3,1.3,0.3,1.3&#xA;					c0.2,1.6-0.1,5-0.1,5c-0.2,0.7-0.2,2.8-0.2,2.8c0,0.5-0.3,1.2-0.3,1.2c-0.1,0.3-0.4,1.1-0.4,1.1L19,26.6c0.5,0,2,0.2,2,0.2&#xA;					l2.3,0l4.7-0.1c2.5-0.2,3.3-2.6,3.3-2.6c0.4-1.8-0.5-2.6-0.5-2.6c-0.2-0.3-1.2-0.8-1.2-0.8c-0.5-0.1,0-0.2,0-0.2&#xA;					C29.8,20.5,30.5,20.1,30.5,20.1z M27.5,23.5c0,0-0.5,1.5-1.7,1.8c0,0-1.3,0.3-2-0.3c0,0-0.5-0.1-0.7-0.7l0.1-1.6l0-1.1l0-0.2&#xA;					c0,0,0-0.1,0.3-0.1c0,0,2.3-0.1,3.1,0.4C26.7,21.7,27.9,22.3,27.5,23.5z M25.3,19.8c0,0-1.8,0.2-2,0c0,0-0.1-2.5,2.2-4&#xA;					c0,0,0.8-0.5,2-0.5c0,0,1.2,0.5,1,1.8C28.5,17,28.6,19.2,25.3,19.8z"/>
			</g>
		</g>
		<path class="st0" d="M49.9,22.7c0,0,3,0.1,4.3,0c0,0-0.1,1.7,0.3,2.2c0,0,0.3,0.9,2.3,0.7c0,0,1.1-0.2,2.1-1.4&#xA;			c0,0,0.7-0.8,0.7-1.4c0,0,0-1.4-2.2-1.5h-2.7c0,0-1.4,0-1.9-0.1c0,0-2.2-0.4-2.6-2.3c0,0-0.3-1,0.6-2.4c0,0,1.1-1.9,3.7-2.2&#xA;			c0,0,2.7-0.4,5.9,0c0,0,2,0.1,2.9,1.6c0,0,0.5,0.8,0.4,2c0,0-4.5,0.3-4.6,0.3c-0.1,0,0.3-0.5,0.3-0.8c0,0,0.3-1.7-2-1.8&#xA;			c0,0-1.6-0.1-2.5,0.9c0,0-1,1-0.5,1.7c0,0,0.1,0.7,1.6,0.8c0,0,1.7,0.2,2.5,0c0,0,0.9-0.3,2,0c0,0,1.9,0.2,2.5,1.4&#xA;			c0,0,1.1,1.5,0.3,3.5c0,0-0.5,3.1-5.6,3.1l-4.6,0c0,0-2.5,0.1-3-2.2C50.1,24.8,49.8,23.8,49.9,22.7z"/>
		<g>
			<g>
				<path class="st0" d="M95.6,23.4v-2.8c0-2.4,0.3-4.2,0.3-4.2c0-1.7,0.4-2.5,0.4-2.5h-1.2l-0.3,0l-1,0.4c-1.1,0.3-1.9-0.1-1.9-0.1&#xA;					c-3.3-1.1-7.1-0.5-7.1-0.5c-5.4,1.2-6,6.8-6,6.8c-0.3,3.6,2,5,2,5c1.7,1.2,4.1,0.9,4.1,0.9c0.8-0.1,3.5-0.5,3.5-0.5&#xA;					c2.2-0.1,3.2-1,3.2-1c0.3-0.3,0.3,0,0.3,0c0.1,0.3,0.3,1.7,0.3,1.7l4-0.3l-0.5-1.5L95.6,23.4z M91.7,19.7c0,0-1.3,4-5.1,5.1&#xA;					c0,0-0.7,0.1-1,0c0,0-2.3-0.4-2.8-2.6c0,0-0.7-2.1,0.7-4c0,0,2-3.1,5-2.9c0,0,2.1,0,3.3,2C91.8,17.4,92.3,18.4,91.7,19.7z"/>
			</g>
		</g>
	</g>
	<g>
		<g>
			<path class="st1" d="M140.1,23.9l-3,0.8c-0.3,0-0.3-0.3-0.3-0.3l0.3-0.2c0.8-0.4,2.5-2.3,2.5-2.3c-0.2-0.7-1.2-1.1-1.2-1.1&#xA;				c-1-0.4-2.1-0.2-2.1-0.2l-1.5,2l-2.2,3c-0.1,0.2-0.6,0.3-0.6,0.3l-3,0.7c-0.5,0.2-0.6,1.1-0.6,1.1l-0.2,0l-0.5-0.2&#xA;				c-0.5-0.3-1.3-0.5-1.3-0.5c-0.8-0.2-1.2,0.3-1.2,0.3c-0.9,0.5-3,2.6-3,2.6c-1.4,1.4-2.5,3.3-2.5,3.3c-0.4,0.1-1.4,1.2-1.4,1.2&#xA;				c-0.4,0.4-1,0.9-1,0.9c-0.7,0.4-0.4-0.3-0.4-0.3c0.6-1.4,2.1-3.1,2.1-3.1l0.5-0.5l0.5-0.7c0.3-0.3,0.6-0.8,0.6-0.8&#xA;				c0.4-0.6-1.2-0.9-1.2-0.9c-0.9,0-1.2,0.8-1.2,0.8c-0.1,0.3-1.5,2.2-1.5,2.2c-0.4,0.7-1.6,2-1.6,2c-0.2,0.1-2,2.5-2,2.5&#xA;				c-0.4,0.5-1.1,1.1-1.1,1.1c-0.3,0.2-0.4-0.1-0.4-0.1c-0.1-0.3,0.6-1.5,0.6-1.5c1.2-2.2,3.3-4.2,3.3-4.2c0.6-0.6,0.3-1,0.3-1&#xA;				c-0.5-0.6-2-0.4-2-0.4l-0.9,1.3c-0.2,0.6-1.5,2.1-1.5,2.1l-2.2,2.4l-0.4,0.6l-1,0.9c-0.3,0.1-0.3-0.1-0.3-0.1l1.1-1.9&#xA;				c1.7-2.7,2.5-3,2.5-3c0.6-0.6,0.1-1,0.1-1c-0.8-0.6-1.5-0.3-1.5-0.3c-0.3,0.1-0.7,0.7-0.7,0.7c-0.1,0.2-0.3,0.1-0.3,0.1&#xA;				c-1.7-0.6-3.2-0.5-3.2-0.5c-1.2,1-2.9,4.1-2.9,4.1c-0.2,0.7-1.3,1.5-1.3,1.5l-1.3,1L99.4,39c-0.1,0.1-0.2,0.1-0.2,0.1l-0.1-0.3&#xA;				c1-2.1,2.4-3.2,2.4-3.2l0.3-0.3c0.4-0.4-0.1-0.8-0.1-0.8l-1.1-0.9c-0.4,0-0.9,0.3-0.9,0.3c-0.2,0.1-0.8,0.7-0.8,0.7&#xA;				c-0.1,0.1-0.2,0.2-0.2,0.2c-0.3-0.1-0.4,0.4-0.4,0.4l-0.3,0.1l-0.2,0.3c-0.8,0.6-2,2.2-2,2.2c-0.3,0.4-0.2,0.1-0.2,0.1l0.3-0.9&#xA;				c0.2-0.7,1.5-2.2,1.5-2.2l2-2.5l1.1-1.3l-0.1-0.6c-0.4-0.4-1.1-0.6-1.1-0.6c-0.3-0.1-0.4,0-0.4,0c-0.8,0.4-1.2,1.9-1.2,1.9&#xA;				l-0.2,0.3c-1.3,1.8-2.1,3.5-2.2,3.8c-0.7,1.5-2,4.9-2,4.9l0.1,0.7l0.4,0.2c0.1,0.1,0.3-0.1,0.3-0.1c0.3-0.2,1.6-2.5,1.6-2.5&#xA;				c1.6-2.4,3.3-3.6,3.3-3.6c0.6-0.6,0.3-0.1,0.3-0.1c-0.5,1.1-1.8,4.6-1.8,4.6c-0.4,1.1,0.7,1,0.7,1c0.8,0.1,1.3-0.8,1.3-0.8&#xA;				c0.7-1.1,1.8-1.9,1.8-1.9c0.4,0,0.2,0.5,0.2,0.5l-0.1,0.5c0,0.7,0.7,0.7,0.7,0.7c0.2,0.1,0.6-0.2,0.6-0.2s2-2.1,2.1-2.2&#xA;				c0.1,0,1.7-2,1.7-2c0.5-0.4,0.3,0.2,0.3,0.2c-0.3,0.8-0.8,2.2-0.8,2.2c-0.1,1.3,0.5,1.3,0.5,1.3c0.5,0.1,0.9-0.2,0.9-0.2l1.7-1.7&#xA;				l1.3-1.5c0.2-0.2,0.6-0.6,0.6-0.6c0.4-0.1,0,0.8,0,0.8c-0.2,0.2-0.3,0.7-0.3,0.7l0.1,1.1c0.1,0.4,0.6,0.5,0.6,0.5l0.7-0.1&#xA;				c0.6-0.1,0.9-0.7,0.9-0.7l1.7-2l0.2,0.1l0.1,0.5c0.5,0.9,1.3,0.8,1.3,0.8c0.9,0,1.2-0.6,1.2-0.6l0.8-1.1l0.2,0l0.3-0.3&#xA;				c0.3-0.4,0.3-0.1,0.3-0.1c0.7,1.8,2,1.6,2,1.6c0.9,0,1.6-0.3,1.6-0.3l1.4-0.3c1.6-0.3,2.8-1.5,2.8-1.5c0.4-0.4-0.1-1-0.1-1&#xA;				c-1.1-1.5-3.5-1.1-3.5-1.1c-0.5,0.1-0.8-0.2-0.8-0.2c-0.2-0.3,0.2-0.5,0.2-0.5l0.9-0.9l0.4-0.1c1-1.4,2.2-1.8,2.2-1.8&#xA;				c0.4-0.3,0.2,0.1,0.2,0.1c-0.4,0.7-1.5,1.8-1.5,1.8c-0.4,0.3-0.2,0.6-0.2,0.6c1.8-0.4,3.3-1.6,3.3-1.6c0.9-0.5,0.9-1.3,0.9-1.3&#xA;				c0-0.4,0.4-0.6,0.4-0.6c0.3-0.2,1.4-0.4,1.4-0.4c0.3-0.1,0.1,0.2,0.1,0.2l-0.7,1.5c-0.9,2.2-1.5,4.3-1.5,4.3&#xA;				c-0.3,0.6,0,0.9,0,0.9c0.1,0.3,0.7,0.6,0.7,0.6c0.4,0.3,1,0.1,1,0.1c0.5-0.1,1.2-0.7,1.2-0.7c0.2-0.3,0.8-1,0.8-1l0.7-0.5&#xA;				l3.2-2.6l1.4-1.1l1.2-1c0.1-0.4-0.2-0.2-0.2-0.2l-0.9,0.8l-0.9,0.8l-1.2,0.6l-0.9,0.5l-3,2c-0.4,0.1-0.7,0.8-0.7,0.8&#xA;				c-0.2,0.3-0.5,0.4-0.5,0.4c-0.3,0.2-0.3-0.1-0.3-0.1c0.2-1.2,0.5-1.8,0.5-1.8c1.1-1.1,1-2.3,1-2.3c0-0.4,1.1-1.1,1.1-1.1&#xA;				c1.3-0.8,1.5-1.7,1.5-1.7c0.2-0.4,0.9-1,0.9-1l0.6-0.2l3.7-1.2l1.2-0.4c0.1-0.1,0.2-0.5,0.2-0.5L140.1,23.9z M106.8,34.6&#xA;				c0,0-1.6,1.8-1.9,2c0,0-1.5,1.4-1.7,1.8c0,0-0.2,0.2-0.4,0c0,0,0.4-0.8,0.5-1c0,0,1.9-2.6,3.4-4.2c0,0,0.6-0.5,0.9-0.4&#xA;				c0,0,0.6,0,0.3,0.4C108,33.1,107.8,33.8,106.8,34.6z M123,33.4c0,0,1.7-0.1,2,0.1c0,0,0,0.3,0,0.4c0,0.1-1.5,1-1.9,1.2l-2.2,0.4&#xA;				c0,0-0.9-0.1-1-0.7c0,0-0.4-0.3-0.1-0.7c0,0,0.4-0.6,0.9-0.8l0.2-0.2c0,0,0.4,0,0.8,0.1c0,0,0.1,0,0.1,0c0.4,0.1,0.9,0.3,0.9,0.3&#xA;				L123,33.4z"/>
		</g>
	</g>
	<path class="st1" d="M87,37.9l-1.5,1.4l-2.9,2.5l-2.6,2.5c0,0-1.3,1-2.3,2.6l-2,2.6c0,0-0.1,0.3-0.4,0.3c0,0-0.2-0.1-0.3,0.1&#xA;		c0,0-0.1,0.1-0.2-0.1c0,0-0.4,0.1-0.5-0.1c0,0-0.5-0.1-0.9-0.9c0,0-0.2-0.2,0.2-0.4l1.8-1.5l0.7-0.4c0,0,0.1-0.1-0.1-0.2&#xA;		c0,0-0.4,0,0.1-0.4l0.8-0.6c0,0,0-0.3,0.4-0.4l0.5-0.5l0.1-0.2c0,0,0-0.4,0.2-0.6c0,0,0.5-0.4,0.8-0.5l1.3-1l0.9-0.8&#xA;		c0,0-0.1-0.4,0.2-0.6l0.6-0.1l0.5-0.5l1-0.9l2.4-2.4l0.2,0.1l0-0.6c0,0-1-1.3-1.2-1.6c0,0-1.9-2-2.5-2.5c0,0-0.6-0.5-0.7-0.5&#xA;		c0,0-0.3,0-0.6-0.3c0,0-0.3-0.1-0.3-0.1c-0.1,0-0.2,0.2-0.3,0l-0.5-0.2c0,0-0.3-0.2,0-0.3l0.8-0.3l1-0.7c0,0,1.9-1.1,3.5-1.2&#xA;		c0,0,0.5-0.1,1.1,0.5c0,0,1.1,0.8,1.4,1.4c0,0,0.2,0.5,0.1,0.7l0.9,1.9c0,0,0.3,0.4,0.3,0.6c0,0,0.1,0.2,0.3-0.1l0.9-0.8l1.9-2l1-1&#xA;		l0.8-0.7l0.6-0.6c0,0,1-1,1.4-1.2l0.1-0.2l0.4-0.4l0.5-0.5l1-1.4c0,0-0.1-0.1,0.3,0c0,0,1.4-0.4,3,0.8l0.8,0.8l0.2,0.1l0,0.3&#xA;		l-0.2,0c0,0-0.3,0.5-0.8,1.1l-0.7,0.6l-0.1,0.2l-0.3-0.2l-1,0.6L98.3,30l-0.9,0.7L96.8,31c0,0-0.2,0.3-0.3,0.1l-0.3,0.1&#xA;		c0,0-0.5,0.7-0.9,0.9c0,0-0.8,0.4-1.1,0.5c0,0-1.2,0.8-1.8,1.4c-0.6,0.6-1,0.8-1,0.8L90.6,35c0,0-0.1,0.2,0.1,0.2l0,0.3&#xA;		c0,0-0.2,0.4,0,0.6c0,0,0.1,0.6,0.3,1c0.2,0.3,0.1,0.1,0.1,0.1s0.1,0.5,0.3,0.5c0,0,0.1,0.4,0.1,0.7c0,0,0.1,0.2,0,0.3&#xA;		c0,0-0.2,0.4,0.2,0.2L92,40l0.2,0.5l0.1,0.1c0,0,0,0.8,0.2,1.4c0,0,0.5,1.5,1.1,2.2c0,0,0.4,0.9,1.4,1.4l0.2,0.1l-0.1,0.2&#xA;		c0,0-0.3,0.1-0.5,0.5c0,0-1,0-1.2,0c0,0-0.3,0.2-0.5,0c0,0-0.6-0.3-0.2-0.5c0,0-0.3-0.4-0.4-0.6c0,0-1-0.6-1.1-1l-1-1.3l0-0.4&#xA;		l-0.9-1.1l-0.6-0.9l-0.1-0.4c0,0-0.4-0.6-0.8-0.8c0,0-0.3-0.2-0.2-0.8C87.7,38.5,87.1,37.9,87,37.9z"/>
	<g>
		<path class="st2" d="M123.3,41.4c0.5,0,1,0.1,1.4,0.3c0.4,0.2,0.8,0.5,1.2,0.8c0.3,0.3,0.6,0.7,0.8,1.2c0.2,0.4,0.3,0.9,0.3,1.4&#xA;			c0,0.5-0.1,1-0.3,1.4c-0.2,0.4-0.4,0.8-0.8,1.2c-0.3,0.3-0.7,0.6-1.2,0.8c-0.4,0.2-0.9,0.3-1.4,0.3c-0.5,0-0.9-0.1-1.4-0.3&#xA;			c-0.4-0.2-0.8-0.5-1.2-0.8c-0.3-0.3-0.6-0.7-0.8-1.2c-0.2-0.4-0.3-0.9-0.3-1.4c0-0.3,0-0.7,0.1-1c0.1-0.3,0.2-0.6,0.4-0.9&#xA;			c0.3-0.6,0.8-1,1.3-1.3C122,41.5,122.6,41.4,123.3,41.4z M123.3,42c-0.4,0-0.8,0.1-1.1,0.2c-0.4,0.1-0.7,0.4-1,0.6&#xA;			c-0.3,0.3-0.5,0.6-0.7,1c-0.2,0.4-0.2,0.8-0.2,1.2c0,0.4,0.1,0.8,0.2,1.1c0.1,0.4,0.4,0.7,0.6,1c0.3,0.3,0.6,0.5,1,0.7&#xA;			c0.4,0.2,0.8,0.2,1.2,0.2c0.4,0,0.8-0.1,1.1-0.2c0.4-0.2,0.7-0.4,1-0.7c0.3-0.3,0.5-0.6,0.7-1c0.2-0.4,0.2-0.7,0.2-1.1&#xA;			c0-0.4-0.1-0.8-0.2-1.2c-0.1-0.4-0.4-0.7-0.6-1c-0.3-0.3-0.6-0.5-1-0.7C124.1,42.1,123.7,42,123.3,42z M121.8,42.9h1.6&#xA;			c0.6,0,1,0.1,1.3,0.3c0.3,0.2,0.4,0.5,0.4,0.9c0,0.3-0.1,0.5-0.2,0.7c-0.2,0.2-0.4,0.3-0.6,0.4l0.9,1.8H124l-0.8-1.6h-0.5v1.6h-1&#xA;			V42.9z M122.7,43.5v1.2h0.5c0.3,0,0.5,0,0.6-0.1c0.1-0.1,0.2-0.2,0.2-0.4c0-0.2-0.1-0.4-0.2-0.5c-0.1-0.1-0.4-0.1-0.7-0.1H122.7z"/>
	</g>
</g>
</svg>