<?xml version="1.0" encoding="utf-8"?>
<svg xmlns="http://www.w3.org/2000/svg" id="Layer_1" style="enable-background:new 0 0 160 60;" version="1.1" viewBox="0 0 160 60" x="0px" y="0px">
<style type="text/css">
	.st0{fill-rule:evenodd;clip-rule:evenodd;fill:#231F20;stroke:#231F20;stroke-width:0.1;stroke-miterlimit:3.8637;}
	.st1{fill:#EF3E33;stroke:#EF3E33;stroke-width:0;stroke-miterlimit:3.8637;}
	.st2{fill:#231F20;stroke:#231F20;stroke-miterlimit:3.8637;}
	.st3{fill-rule:evenodd;clip-rule:evenodd;fill:#EF3E33;stroke:#EF3E33;stroke-width:0;stroke-miterlimit:3.8637;}
	.st4{fill:#FFFFFF;stroke:#FFFFFF;stroke-width:0;stroke-miterlimit:3.8637;}
	.st5{fill-rule:evenodd;clip-rule:evenodd;fill:#FFFFFF;stroke:#FFFFFF;stroke-width:0;stroke-miterlimit:3.8637;}
</style>
<title>Asset 17</title>
<path class="st0" d="M100.9,26C100.9,26,100.9,26,100.9,26c0.4-1.4,1.2-1.5,1.2-1.5s0.4-1.2,0.7-1.9c0.3-0.7,0.7-1.1,1.7-1.1&#xA;	c0.6,0,7.7,0,7.7,0s2.5-0.3,2.1,1.2c-0.3,1-0.5,1.5-0.5,1.5s0.8-0.6,3-0.6c2.8,0,6.6-0.1,6.6-0.1l0,0c0,0,4.4,0,6.4,0&#xA;	c3.7,0,3.7,1.2,3.7,1.2s0.6-3.1,3.4-3.1c0.9,0,6.4,0,6.4,0s2.7,0,2,1.8c-0.1,0.4-0.2,0.7-0.2,0.7s2.8,0,3.6,0c0.8,0,1.6,1.1,1.3,2.1&#xA;	c-0.6,1.8-1,3-1.9,3.1c1.3-0.3,1.8,1.2,1.3,2.3c-0.5,0.9-0.8,2-1.7,3.2c-0.4,0.5-1.3,1.1-2.5,1.1c-1.2,0-9,0-9.9,0&#xA;	c-0.9,0-2.9-0.1-3.5-1.1c-0.5-0.7-0.3-1.1-0.3-1.1s-1.1,1.3-1.4,1.5c-0.6,0.4-1.4,0.7-2.6,0.7c-1.3,0-11.1,0-13.6,0&#xA;	s-3.2-0.8-3.2-0.8l-0.3,0.9c0,0,0.1-0.4,0,0c-0.1,0.4-1,3-5.1,3c-3.3,0-10.6,0-11.6,0c-0.6,0-1.5-0.4-1.6-1.4&#xA;	c-0.1-1-0.2-1.6-0.2-1.6H55.5c0,0-1.5,2.8-4.4,2.8c-2.4,0-16.7,0-17.3,0c-0.3,0-0.8-0.5-0.9-1.3c-0.1-0.8-0.3-2-0.3-2&#xA;	s-0.2,0.7-4.5,0.7c-3.9,0-15.5,0-16.1,0c-0.8,0-2.1-0.8-2-2.2c0.1-1.2,1.3-1.8,1.3-1.8l0,0l2.5-7.7c0,0-0.5-0.7-0.1-1.9&#xA;	c0.4-1.1,1.4-1.5,2-1.5c0.6,0,16.3,0,16.3,0s3-0.1,4.2,0.3c1,0.4,1.5,1.3,1.8,1.7c0.2,0.3,0.2,1,0.2,1l28.9,0c0,0,1.4-0.5,2.8-0.5&#xA;	c1.4-0.1,3.2-0.2,5.2,0.1c1.1,0.2,2.2,0.5,2.5,0.7c0.3,0.2,0.8,0.5,0.8,0.5s0.4-0.4,1.2-0.8c1.2-0.5,2.7-0.5,4-0.5&#xA;	c1.6-0.1,4,0,5.9,0c1.9,0,7,0,8.4,0.3C100.1,24.3,100.5,25.4,100.9,26L100.9,26z"/>
<path class="st1" d="M16.3,23.1c0,0,13,0,15,0c2,0,3.3,0.2,3.7,0.4c0.9,0.4,1.2,1.5,1,2.3c-0.4,1.7-1,2.9-1.5,4.3&#xA;	c-0.9,2.6-2.3,3.9-5.1,3.9c-2.9,0-16.7,0-16.7,0s1-0.6,1.4-1.9c0.2-0.6,2.4-7.1,2.5-7.6C17,23.5,16.3,23.1,16.3,23.1L16.3,23.1z"/>
<path class="st2" d="M23.8,25.4c0,0,3.4,0,3.8,0c0.3,0,0.8,0.1,0.6,0.7c-0.3,1.1-1.7,5-1.9,5.5c-0.2,0.4-0.7,0.6-0.9,0.6&#xA;	c-0.2,0-3.8,0-3.8,0L23.8,25.4L23.8,25.4z"/>
<path class="st3" d="M37.2,26c0,0,0.2,0.6,0.1,1c-0.1,0.4-1.5,4.5-1.7,5c-0.1,0.6-0.1,1.8,1.4,1.9c1.4,0.1,9.1,0,9.1,0&#xA;	s0.1,1.2-2.1,1.2c-2.2,0-6.4,0-7,0c-1.4,0-2.3-0.4-2.3-0.4l0,0l0.3,2.2c0,0,13.3,0,14.6,0c1.3,0,2.4-0.9,2.8-1.3&#xA;	c0.5-0.5,1.3-2.3,1.9-4.3c0.7-2,1.3-3.8,1.4-4.2c0.1-0.4,0.7-1.1,0.7-1.1h-8.1c0,0,0.4,0.5,0.2,1.1c-0.2,0.5-1.2,3.6-1.4,4.2&#xA;	c-0.2,0.6-0.5,0.8-0.8,0.8c-0.4,0-3.3,0-3.5,0c-0.3,0-0.4-0.3-0.2-0.9c0.2-0.6,1.4-4.1,1.5-4.4c0.2-0.5,0.7-0.8,0.7-0.8H37.2&#xA;	L37.2,26z"/>
<path class="st1" d="M58.1,26c0,0,0.5,0.3,0,1.7c-0.3,0.8-1.6,4.7-1.7,5c-0.3,0.8-1,1.2-1,1.2h8.4c0,0-0.3-0.5-0.2-1&#xA;	c0.1-0.5,1.5-4.3,1.6-4.6c0.2-0.5,0.7-1,1.5-1c0.9,0,2.1,0,2.4,0c0.3,0,0.8,0.4,0.6,1c-0.2,0.5-1.3,4.1-1.5,4.6&#xA;	c-0.2,0.7-0.9,1.1-0.9,1.1h8.3c0,0-0.5-0.5-0.3-1.1c0.2-0.6,1.4-4.2,1.6-4.8c0.2-0.6-0.1-2.2-2.9-2.5c-2.8-0.3-4.7-0.1-5.4,0.1&#xA;	c-0.9,0.2-2.7,0.7-2.7,0.7l0.1-0.4H58.1L58.1,26z"/>
<polygon class="st4" points="104.1,24.9 111.4,24.9 112,23.1 104.7,23.1 104.1,24.9"/>
<path class="st1" d="M82,25.9c2.4-0.5,4.1-0.4,7.7-0.4c3.6,0,6.9,0.1,7.9,0.5c1,0.4,1.3,1.5,1,2.2c-0.3,0.9-1.1,3.1-1.4,3.9&#xA;	c-0.4,1-1.7,1.8-3.6,1.8c-1.9,0-11.4,0-13,0c-1.6,0-3.2-0.7-2.8-1.9c0.3-0.9,0.9-2.9,1.2-3.6C79.4,27.6,79.7,26.4,82,25.9L82,25.9z"/>
<path class="st2" d="M86.7,28.5c0.1-0.3,0.4-0.6,0.9-0.6c0.6,0,2.7,0,3.1,0c0.4,0,0.6,0.1,0.5,0.5c-0.1,0.4-0.9,2.8-1.1,3.1&#xA;	c-0.1,0.4-0.5,0.6-0.9,0.6s-2.8,0-3.2,0c-0.4,0-0.5-0.2-0.4-0.5C85.7,31.4,86.5,28.9,86.7,28.5L86.7,28.5z"/>
<path class="st5" d="M129.7,32l-1.9,2c0,0,0,0-1.6,0h-13c-1.6,0-3-0.7-2.7-1.6c0.3-0.9,1-3,1.3-3.8c0.2-0.7,0.4-2.1,2.8-2.7&#xA;	c2.4-0.5,4.1-0.4,7.7-0.4c3.6,0,6.9,0.1,7.9,0.5c1,0.4,1,1.5,0.8,2.2c-0.2,0.5-0.5,1.6-0.9,2.7l0,0l0,0l-11.8,0c0,0-0.2,0.5-0.2,0.6&#xA;	c0,0.2-0.1,0.3,0,0.4c0.1,0.1,0.3,0.1,0.7,0.1c0.4,0,8.1,0,8.8,0C129.2,32.2,129.7,32,129.7,32L129.7,32z"/>
<path class="st2" d="M119,28.6h4.6c0,0,0.2-0.4,0.2-0.5c0-0.1,0-0.3-0.1-0.4c-0.2-0.1-0.6-0.1-0.8-0.1c-0.2,0-2.4,0-2.6,0&#xA;	c-0.4,0-0.9,0-1.1,0.3C119.1,28.3,119,28.6,119,28.6L119,28.6z"/>
<path class="st4" d="M136.2,23.7l-0.8,2.3h-3.1l-0.5,1.4h3.1c0,0-1,3-1.4,4.1c-0.3,0.9-0.7,2.4,1.6,2.4c2.4,0,10.7,0,10.7,0l1.2-2.3&#xA;	c0,0-1.2,0.4-1.9,0.5c-0.7,0.1-4.2,0-4.6,0s-0.3-0.4-0.1-0.9c0.2-0.5,1.3-3.9,1.3-3.9h5.5l0.4-1.3h-5.6l0.8-2.3H136.2L136.2,23.7z"/>
<path class="st4" d="M103.1,26.2c0,0,0.4,0.4,0.1,1.3c-0.2,0.7-1.9,5.4-2,6c-0.3,1-0.7,1.6-1.3,1.8c-0.6,0.1-3.6,0-4,0&#xA;	c-0.5,0-2.2-0.6-2.2-0.6l0.3,2.4c0,0,9.4,0,10.5,0c1.1,0,3-0.4,3.4-1.8c0.5-1.4,3.1-9.2,3.1-9.2H103.1L103.1,26.2z"/>
</svg>