<?xml version="1.0" encoding="utf-8"?>
<svg xmlns="http://www.w3.org/2000/svg" id="Layer_1" style="enable-background:new 0 0 160 60;" version="1.1" viewBox="0 0 160 60" x="0px" y="0px">
<style type="text/css">
	.st0{fill:#2B2A29;}
	.st1{fill-rule:evenodd;clip-rule:evenodd;fill:#FFFFFF;}
	.st2{clip-path:url(#SVGID_2_);fill-rule:evenodd;clip-rule:evenodd;}
	.st3{clip-path:url(#SVGID_2_);}
	.st4{clip-path:url(#SVGID_4_);}
	.st5{clip-path:url(#SVGID_6_);fill:url(#SVGID_7_);}
	.st6{fill:none;stroke:#AAA8A9;stroke-width:0.1664;stroke-miterlimit:22.9256;}
	.st7{clip-path:url(#SVGID_9_);fill:url(#SVGID_10_);}
	.st8{clip-path:url(#SVGID_12_);}
	.st9{clip-path:url(#SVGID_14_);fill:url(#SVGID_15_);}
	.st10{fill-rule:evenodd;clip-rule:evenodd;fill:#1E1917;}
</style>
<g>
	<path class="st0" d="M107.5,15.2h0.2l-0.1-1.8h-0.3l-0.3,0.8c-0.1,0.2-0.1,0.4-0.2,0.6h0c0-0.2-0.1-0.4-0.2-0.6l-0.3-0.8h-0.3&#xA;		l-0.1,1.8h0.2l0-0.8c0-0.3,0-0.6,0-0.8h0c0,0.2,0.1,0.4,0.2,0.7l0.3,0.8h0.2l0.3-0.9c0.1-0.2,0.2-0.5,0.2-0.7h0c0,0.2,0,0.5,0,0.8&#xA;		L107.5,15.2z M105.1,15.2h0.2v-1.6h0.5v-0.2h-1.3v0.2h0.5V15.2z"/>
	<path class="st1" d="M80,10c17.7,0,32,9,32,20c0,11-14.3,20-32,20c-17.7,0-32-9-32-20C48,19,62.3,10,80,10"/>
	<g>
		<defs>
			<path d="M80,10c17.7,0,32,9,32,20c0,11-14.3,20-32,20c-17.7,0-32-9-32-20C48,19,62.3,10,80,10" id="SVGID_1_"/>
		</defs>
		<clipPath id="SVGID_2_">
			<use href="#SVGID_1_" style="overflow:visible;"/>
		</clipPath>
		<path class="st2" d="M80,10.8c17,0,30.8,8.6,30.8,19.2c0,10.6-13.8,19.2-30.8,19.2c-17,0-30.8-8.6-30.8-19.2&#xA;			C49.2,19.4,63,10.8,80,10.8"/>
		<g class="st3">
			<defs>
				<path d="M80,10.8c17,0,30.8,8.6,30.8,19.2c0,10.6-13.8,19.2-30.8,19.2c-17,0-30.8-8.6-30.8-19.2&#xA;					C49.2,19.4,63,10.8,80,10.8" id="SVGID_3_"/>
			</defs>
			<clipPath id="SVGID_4_">
				<use href="#SVGID_3_" style="overflow:visible;"/>
			</clipPath>
			<g class="st4">
				<defs>
					<path d="M53.8,40.8c-2.8-2.6-5.3-7.1-5.4-11.4C48.5,19.3,62.8,9.2,79.6,9.6c11.3,0.1,21.2,3,26.7,7.9&#xA;						c4.3,3.8,5.5,9.2,5.6,13c-1.1-0.7-4-2.4-5.2-2.9c-3.9-1.9-8-3.3-12-4.2c-2.4-0.5-5.2,0.3-7.6,0.1c-1.3-0.1-2.8,0.7-6.1,0.7&#xA;						c-3.8-0.1-6.2-1.1-9.5-0.1c-4.9,1.5-9.1,3.8-12.2,6.7C56.7,33.4,54.6,37.5,53.8,40.8" id="SVGID_5_"/>
				</defs>
				<clipPath id="SVGID_6_">
					<use href="#SVGID_5_" style="overflow:visible;"/>
				</clipPath>
				<radialGradient cx="74.8448" cy="12.625" gradientUnits="userSpaceOnUse" id="SVGID_7_" r="42.375">
					<stop offset="0" style="stop-color:#908F8E"/>
					<stop offset="1" style="stop-color:#383431"/>
				</radialGradient>
				<circle class="st5" cx="74.8" cy="12.6" r="42.4"/>
			</g>
		</g>
	</g>
	<ellipse class="st6" cx="80" cy="30" rx="32" ry="20"/>
	<g>
		<defs>
			<path d="M92.4,19.1c-3.5-1.9-10-3.3-17.3-3.4c-6.2-0.1-11.8,0.7-15.5,2c-0.2,0.1-0.5,0.1-0.7,0.2&#xA;				c5.4-3.3,12.8-5.4,21-5.5c16.4-0.2,29.7,7.6,29.7,17.5c0,9.9-13.3,18.1-29.7,18.3c-9.1,0.1-17.2-2.9-22.6-6.7&#xA;				c9,2.8,21.4,3.3,30.4,0.1c3.2-1.1,6.2-2.8,8.8-5.3c-6,0-14.4,0-20.5,0H59.7l0.4-1.9l2.6-11.8l0.3-1.3h1.3h7.6&#xA;				c1.5,0,3.1,0.2,4.4,1.1c0.8-0.9,3-1.4,4.3-1.3c1.1,0,2.9,0.8,3.7,2v0l0,0c1.4-1.1,2.7-1.4,4.2-1.9c1.3-0.4,2.8-0.5,4.2-0.5&#xA;				c1,0,2,0,2.8,0.1c0.1,0,0.2,0,0.3,0C94.8,20.3,93.7,19.6,92.4,19.1" id="SVGID_8_"/>
		</defs>
		<clipPath id="SVGID_9_">
			<use href="#SVGID_8_" style="overflow:visible;"/>
		</clipPath>
		<linearGradient gradientUnits="userSpaceOnUse" id="SVGID_10_" x1="91.3372" x2="82.8048" y1="47.2123" y2="28.9611">
			<stop offset="0" style="stop-color:#C1C0C0"/>
			<stop offset="1" style="stop-color:#FFFFFF"/>
		</linearGradient>
		<rect class="st7" height="36.1" width="52.3" x="57.2" y="12.1"/>
	</g>
	<path d="M67.5,27.9c0.1,0,0.1,0,0.2,0c0.1,0,0.2,0,0.2,0c1.1,0,3.4,0.1,3.7-1.4c0.4-1.9-2.6-1.4-3.7-1.4L67.5,27.9z M77.7,33.7&#xA;		c0.4,0,0.9-0.1,1.3-0.3c0.5-0.2,0.9-0.5,1.3-0.8l0.1-0.1l-0.6-1l-1.4-2.3c-0.6,0.3-1.1,0.7-1.5,1c-0.6,0.5-0.9,1-1,1.6&#xA;		c-0.1,0.6,0,1.1,0.3,1.4C76.6,33.5,77.1,33.7,77.7,33.7z M78.5,25.4c0,0.2,0,0.4,0.1,0.7c0.1,0.3,0.2,0.6,0.4,0.9l0.2,0.4&#xA;		c0.4-0.2,0.7-0.5,1.1-0.8c0.5-0.4,0.7-0.8,0.8-1.2c0.1-0.4,0-0.7-0.2-1c-0.2-0.2-0.5-0.4-0.9-0.4c-0.4,0-0.7,0.1-1,0.3&#xA;		C78.8,24.7,78.6,25,78.5,25.4z M90.7,30.4l0.6-2.5h7l-1.6,6.8c-2.7,0-5,0-7.6,0c-2.3,0-4.1-0.4-5-1.7c-0.4-0.6-0.7-1.3-0.9-2&#xA;		c-0.1,0.2-0.2,0.4-0.2,0.5c-0.1,0.2-0.4,0.5-0.6,0.7l1.4,2.5h-1.6l-0.9-1.3c-0.6,0.5-1.5,0.9-2.1,1.2c-0.6,0.3-1.3,0.4-2,0.4&#xA;		c-1,0-1.8-0.3-2.3-0.9c-0.2-0.2-0.3-0.4-0.4-0.6c-0.1,0.4-0.1,0.8-0.1,1.2c-1.8,0-3.7,0-5.5,0l0.8-3.5c0.1-0.4-0.2-0.7-0.6-0.7H67&#xA;		l-1.1,4.3h-0.2v0l-4,0l2.5-11.6h7.6c1.7,0,2.8,0.2,3.5,0.7c0.7,0.5,0.9,1.3,0.7,2.3c-0.2,0.7-0.2,1.4-0.8,1.8&#xA;		c-0.5,0.4-1.5,0.6-2.5,0.7l0,0.1c1,0.1,2,0.4,2.3,0.8c0.1,0.2,0.2,0.3,0.2,0.5c0.1-0.2,0.3-0.4,0.5-0.6c0.5-0.5,1.2-1,2.1-1.5&#xA;		L77.8,28c-0.3-0.4-0.5-0.9-0.6-1.3c-0.1-0.4-0.2-0.8-0.1-1.1c0.2-0.8,0.5-1.5,1.2-2c0.6-0.5,1.4-0.7,2.2-0.7c0.8,0,1.4,0.2,1.8,0.7&#xA;		c0.4,0.5,0.5,1.1,0.4,1.8c-0.1,0.5-0.5,1.1-1.1,1.7c-0.5,0.5-1,0.9-1.7,1.2l1.7,2.6l0.1,0.2l0.1-0.1c0.6-0.4,1.1-2.2,1.3-2.8h0.4&#xA;		c0.4-1.5,1.4-2.7,2.6-3.7c1.5-1.3,4-1.9,6.4-1.9c1.8,0,3.6,0.1,4.5,0.7c0.9,0.6,1.3,1,1.6,1.8c0.1,0.3,0.1,0.5,0.1,0.8&#xA;		c0,0.3,0,0.5-0.1,0.7l-4.7,0c-0.1-0.5-0.3-0.9-0.7-1.1c-0.3-0.2-0.8-0.3-1.5-0.3c-0.8,0-1.6,0.3-2.2,0.9c-0.6,0.7-1,1.4-1.3,2.2&#xA;		c0,0,0,0.1,0,0.1c0,0,0,0.1,0,0.1c-0.7,3.9,2.2,3.9,4.7,3.7l0.4-2H90.7z"/>
	<g>
		<defs>
			<path d="M67.5,27.9c0.1,0,0.1,0,0.2,0c0.1,0,0.2,0,0.2,0c1.1,0,3.4,0.1,3.7-1.4c0.4-1.9-2.6-1.4-3.7-1.4&#xA;				L67.5,27.9z M77.7,33.7c0.4,0,0.9-0.1,1.3-0.3c0.5-0.2,0.9-0.5,1.3-0.8l0.1-0.1l-0.6-1l-1.4-2.3c-0.6,0.3-1.1,0.7-1.5,1&#xA;				c-0.6,0.5-0.9,1-1,1.6c-0.1,0.6,0,1.1,0.3,1.4C76.6,33.5,77.1,33.7,77.7,33.7z M78.5,25.4c0,0.2,0,0.4,0.1,0.7&#xA;				c0.1,0.3,0.2,0.6,0.4,0.9l0.2,0.4c0.4-0.2,0.7-0.5,1.1-0.8c0.5-0.4,0.7-0.8,0.8-1.2c0.1-0.4,0-0.7-0.2-1&#xA;				c-0.2-0.2-0.5-0.4-0.9-0.4c-0.4,0-0.7,0.1-1,0.3C78.8,24.7,78.6,25,78.5,25.4z M90.7,30.4l0.6-2.5h7l-1.6,6.8c-2.7,0-5,0-7.6,0&#xA;				c-2.3,0-4.1-0.4-5-1.7c-0.4-0.6-0.7-1.3-0.9-2c-0.1,0.2-0.2,0.4-0.2,0.5c-0.1,0.2-0.4,0.5-0.6,0.7l1.4,2.5h-1.6l-0.9-1.3&#xA;				c-0.6,0.5-1.5,0.9-2.1,1.2c-0.6,0.3-1.3,0.4-2,0.4c-1,0-1.8-0.3-2.3-0.9c-0.2-0.2-0.3-0.4-0.4-0.6c-0.1,0.4-0.1,0.8-0.1,1.2&#xA;				c-1.8,0-3.7,0-5.5,0l0.8-3.5c0.1-0.4-0.2-0.7-0.6-0.7H67l-1.1,4.3h-0.2v0l-4,0l2.5-11.6h7.6c1.7,0,2.8,0.2,3.5,0.7&#xA;				c0.7,0.5,0.9,1.3,0.7,2.3c-0.2,0.7-0.2,1.4-0.8,1.8c-0.5,0.4-1.5,0.6-2.5,0.7l0,0.1c1,0.1,2,0.4,2.3,0.8c0.1,0.2,0.2,0.3,0.2,0.5&#xA;				c0.1-0.2,0.3-0.4,0.5-0.6c0.5-0.5,1.2-1,2.1-1.5L77.8,28c-0.3-0.4-0.5-0.9-0.6-1.3c-0.1-0.4-0.2-0.8-0.1-1.1&#xA;				c0.2-0.8,0.5-1.5,1.2-2c0.6-0.5,1.4-0.7,2.2-0.7c0.8,0,1.4,0.2,1.8,0.7c0.4,0.5,0.5,1.1,0.4,1.8c-0.1,0.5-0.5,1.1-1.1,1.7&#xA;				c-0.5,0.5-1,0.9-1.7,1.2l1.7,2.6l0.1,0.2l0.1-0.1c0.6-0.4,1.1-2.2,1.3-2.8h0.4c0.4-1.5,1.4-2.7,2.6-3.7c1.5-1.3,4-1.9,6.4-1.9&#xA;				c1.8,0,3.6,0.1,4.5,0.7c0.9,0.6,1.3,1,1.6,1.8c0.1,0.3,0.1,0.5,0.1,0.8c0,0.3,0,0.5-0.1,0.7l-4.7,0c-0.1-0.5-0.3-0.9-0.7-1.1&#xA;				c-0.3-0.2-0.8-0.3-1.5-0.3c-0.8,0-1.6,0.3-2.2,0.9c-0.6,0.7-1,1.4-1.3,2.2c0,0,0,0.1,0,0.1c0,0,0,0.1,0,0.1&#xA;				c-0.7,3.9,2.2,3.9,4.7,3.7l0.4-2H90.7z" id="SVGID_11_"/>
		</defs>
		<clipPath id="SVGID_12_">
			<use href="#SVGID_11_" style="overflow:visible;"/>
		</clipPath>
		<g class="st8">
			<defs>
				<path d="M51.4,42.7c-2.8-2.6-5.3-7.1-5.4-11.4c0.1-10.1,14.4-20.2,31.3-19.8c11.3,0.1,21.2,3,26.7,7.9&#xA;					c4.3,3.8,5.5,9.2,5.6,13c-1.1-0.7-4-2.4-5.2-2.9c-11.9-5.9-24.9-6.5-35.2-3.4c-4.9,1.5-9.1,3.8-12.2,6.7&#xA;					C54.4,35.3,52.2,39.4,51.4,42.7" id="SVGID_13_"/>
			</defs>
			<clipPath id="SVGID_14_">
				<use href="#SVGID_13_" style="overflow:visible;"/>
			</clipPath>
			<radialGradient cx="74.8448" cy="12.625" gradientUnits="userSpaceOnUse" id="SVGID_15_" r="42.375">
				<stop offset="0" style="stop-color:#908F8E"/>
				<stop offset="1" style="stop-color:#383431"/>
			</radialGradient>
			<circle class="st9" cx="74.8" cy="12.6" r="42.4"/>
		</g>
	</g>
	<path class="st10" d="M104.2,27.3c-1.3,0-2.3,1-2.3,2.3c0,1.3,1,2.3,2.3,2.3c1.2,0,2.3-1,2.3-2.3C106.5,28.3,105.5,27.3,104.2,27.3"/>
</g>
</svg>