<?xml version="1.0" encoding="utf-8"?>
<!-- Generator: Adobe Illustrator 28.2.0, SVG Export Plug-In . SVG Version: 6.00 Build 0)  -->
<svg version="1.1" id="Layer_1" xmlns="http://www.w3.org/2000/svg" xmlns:xlink="http://www.w3.org/1999/xlink" x="0px" y="0px"
	 viewBox="0 0 576.04 126.16" style="enable-background:new 0 0 576.04 126.16;" xml:space="preserve">
<style type="text/css">
	.st0{fill:#E82431;}
	.st1{fill:#E82230;}
	.st2{fill:#FFFFFF;}
</style>
<g>
	<g>
		<path class="st0" d="M313.99,24.6H300.6l-3.15,22.5h-8.7l-1.14,8.14h8.7l-2.5,17.84h9.25l2.52-17.84h5.43
			c11.06,0,13.78-3.62,15.2-12.8l0.58-3.81C328.22,29.46,325.37,24.6,313.99,24.6z M317.55,39.09l-0.39,2.33
			c-0.71,4.46-1.29,5.69-5.43,5.69h-4.98l2-14.29h5.04C317.87,32.82,318.32,34.56,317.55,39.09z"/>
		<path class="st0" d="M346.71,24.6h-13.39l-6.79,48.49h9.25l2.52-17.97h3.11l4.79,17.97h9.25l-4.92-18.62
			c5.5-1.42,7.44-5.11,8.41-12.03l0.52-3.81C360.68,29.46,358.03,24.6,346.71,24.6z M350.27,39.09l-0.39,2.33
			c-0.71,4.46-1.36,5.69-5.69,5.69h-4.79l2.07-14.29h4.98C350.53,32.82,351.04,34.56,350.27,39.09z"/>
		<polygon class="st0" points="388.62,33.01 389.91,24.6 366.69,24.6 359.9,73.09 384.22,73.09 384.22,64.69 370.51,64.69 
			372.32,52.34 383.31,52.34 384.48,43.68 373.48,43.68 375.03,33.01 		"/>
		<polygon class="st0" points="403.81,33.01 417.39,33.01 418.69,24.6 395.47,24.6 388.68,73.09 398.12,73.09 401.1,52.34 
			411.64,52.34 412.8,43.68 402.26,43.68 		"/>
		<polygon class="st0" points="445.98,33.01 447.27,24.6 424.05,24.6 417.26,73.09 441.58,73.09 441.58,64.69 427.87,64.69 
			429.68,52.34 440.67,52.34 441.84,43.68 430.84,43.68 432.39,33.01 		"/>
		<path class="st0" d="M466.28,24.6h-13.39l-6.79,48.49h9.25l2.52-17.97h3.11l4.79,17.97h9.25l-4.92-18.62
			c5.5-1.42,7.44-5.11,8.41-12.03l0.52-3.81C480.25,29.46,477.6,24.6,466.28,24.6z M469.84,39.09l-0.39,2.33
			c-0.71,4.46-1.36,5.69-5.69,5.69h-4.79l2.07-14.29h4.98C470.1,32.82,470.62,34.56,469.84,39.09z"/>
		<path class="st0" d="M499.72,24.6h-13.39l-6.79,48.49h9.25l2.52-17.97h3.11l4.79,17.97h9.25l-4.92-18.62
			c5.5-1.42,7.44-5.11,8.41-12.03l0.52-3.81C513.69,29.46,511.04,24.6,499.72,24.6z M503.28,39.09l-0.39,2.33
			c-0.71,4.46-1.36,5.69-5.69,5.69h-4.79l2.07-14.29h4.98C503.53,32.82,504.05,34.56,503.28,39.09z"/>
		<polygon class="st0" points="512.91,73.09 537.23,73.09 537.23,64.69 523.51,64.69 525.33,52.34 536.32,52.34 537.49,43.68 
			526.49,43.68 528.04,33.01 541.63,33.01 542.92,24.6 519.7,24.6 		"/>
		<path class="st0" d="M562.45,24.6h-12.68l-6.79,48.49h14.1c10.28,0,14.68-4.01,16.3-15.32l2.33-16.49
			C577.32,29.91,573.18,24.6,562.45,24.6z M566.2,42.06l-2.07,14.42c-0.84,6.08-1.68,8.21-6.6,8.21h-3.95l4.53-31.68h3.95
			C566.98,33.01,567.1,35.85,566.2,42.06z"/>
	</g>
	<path class="st1" d="M89.82,0l4.96,1.16L73.69,118.88c-0.89,4.98-5.78,8.2-10.71,7.05h0c-4.93-1.15-7.88-6.2-6.47-11.06L89.82,0z"
		/>
	<g>
		<path class="st2" d="M58.2,36.98c2.56-0.69,5.13-1.22,7.69-1.6l6.2-17.79c-6.32-0.04-12.75,0.76-19.14,2.49
			C14.78,30.39-7.81,69.69,2.49,107.86c0.93,3.43,2.09,6.73,3.46,9.89h5.43C2.15,82.57,23.03,46.47,58.2,36.98z"/>
	</g>
	<path class="st2" d="M101.29,73.1l6.79-48.49h13.38c11.31,0,13.96,4.85,12.74,14.03l-0.52,3.81c-0.97,6.92-2.91,10.6-8.41,12.02
		l4.91,18.62h-9.25l-4.78-17.97h-3.1l-2.52,17.97H101.29z M118.94,47.11c4.33,0,4.98-1.23,5.69-5.69l0.39-2.33
		c0.78-4.53,0.26-6.27-3.81-6.27h-4.98l-2.07,14.29H118.94z"/>
	<path class="st2" d="M141.83,24.62h9.44l-6.79,48.49h-9.44L141.83,24.62z"/>
	<path class="st2" d="M158.7,24.62h12.67c10.73,0,14.87,5.3,13.25,16.68l-2.33,16.49c-1.62,11.31-6.01,15.32-16.29,15.32h-14.09
		L158.7,24.62z M166.46,64.7c4.91,0,5.75-2.13,6.6-8.21l2.07-14.42c0.9-6.21,0.78-9.05-4.14-9.05h-3.94l-4.53,31.68H166.46z"/>
	<path class="st2" d="M192.58,24.62h23.21l-1.29,8.4h-13.58l-1.55,10.67h10.99l-1.16,8.66H198.2l-1.81,12.35h13.71v8.4h-24.31
		L192.58,24.62z"/>
	<path class="st2" d="M215.92,73.1l6.79-48.49h13.38c11.31,0,13.96,4.85,12.74,14.03l-0.52,3.81c-0.97,6.92-2.91,10.6-8.41,12.02
		l4.91,18.62h-9.25l-4.78-17.97h-3.1l-2.52,17.97H215.92z M233.56,47.11c4.33,0,4.98-1.23,5.69-5.69l0.39-2.33
		c0.78-4.53,0.26-6.27-3.81-6.27h-4.98l-2.07,14.29H233.56z"/>
	<path class="st2" d="M257.42,58.36c-0.32,5.04,0.26,7.11,4.66,7.11c3.88,0,6.01-1.36,6.01-5.11c0-7.37-15.84-9.83-15.97-21.98
		c-0.13-8.66,3.88-14.16,15.13-14.16c11.96,0,13.12,6.79,12.54,15h-9.05c0.19-4.85,0.13-7.05-4.01-7.05c-3.49,0-5.3,0.9-5.3,4.91
		c0,7.44,15.9,9.96,15.9,22.18c0,8.92-4.33,14.22-15.78,14.22c-12.15,0-13.9-6.66-13.38-15.13H257.42z"/>
	<g>
		<g>
			<path class="st2" d="M123.8,106.31V89.4l-6.61,16.91h-2.18L108.4,89.4v16.91h-4.99V82.86h7l5.69,14.66l5.69-14.66h7.03v23.45
				H123.8z"/>
			<path class="st2" d="M134.87,106.31V82.86h16.59v4.39h-11.6v4.92h11.35v4.39h-11.35v5.34h11.6v4.39H134.87z"/>
			<path class="st2" d="M177.16,106.31V89.4l-6.61,16.91h-2.18l-6.61-16.91v16.91h-4.99V82.86h7l5.69,14.66l5.69-14.66h7.03v23.45
				H177.16z"/>
			<path class="st2" d="M188.24,106.31V82.86h12.34c4.46,0,6.75,2.85,6.75,5.98c0,2.92-1.83,4.92-4.04,5.38
				c2.53,0.39,4.5,2.81,4.5,5.73c0,3.55-2.32,6.36-6.82,6.36H188.24z M202.23,89.71c0-1.44-1.05-2.46-2.74-2.46h-6.26v4.92h6.26
				C201.17,92.17,202.23,91.23,202.23,89.71z M202.69,99.24c0-1.48-1.05-2.67-2.99-2.67h-6.47v5.34h6.47
				C201.56,101.91,202.69,100.93,202.69,99.24z"/>
			<path class="st2" d="M212.95,106.31V82.86h16.59v4.39h-11.6v4.92h11.35v4.39h-11.35v5.34h11.6v4.39H212.95z"/>
			<path class="st2" d="M248.11,106.31l-4.6-8.33h-3.66v8.33h-4.99V82.86h10.97c4.89,0,7.91,3.2,7.91,7.56
				c0,4.11-2.64,6.36-5.17,6.96l5.31,8.93H248.11z M248.6,90.38c0-1.93-1.51-3.13-3.48-3.13h-5.27v6.33h5.27
				C247.09,93.58,248.6,92.39,248.6,90.38z"/>
			<path class="st2" d="M257.25,103l2.74-3.9c1.65,1.72,4.22,3.2,7.45,3.2c2.78,0,4.08-1.23,4.08-2.6c0-4.08-13.5-1.23-13.5-10.05
				c0-3.9,3.37-7.14,8.89-7.14c3.73,0,6.82,1.12,9.14,3.27l-2.78,3.73c-1.9-1.76-4.43-2.57-6.82-2.57c-2.11,0-3.3,0.91-3.3,2.32
				c0,3.69,13.46,1.2,13.46,9.95c0,4.29-3.09,7.52-9.38,7.52C262.7,106.73,259.46,105.22,257.25,103z"/>
			<path class="st2" d="M297.43,106.31v-9.88h-11.07v9.88h-4.99V82.86h4.99v9.21h11.07v-9.21h5.03v23.45H297.43z"/>
			<path class="st2" d="M308.47,106.31V82.86h4.99v23.45H308.47z"/>
			<path class="st2" d="M319.51,106.31V82.86h10.97c5.1,0,7.87,3.44,7.87,7.56c0,4.08-2.81,7.52-7.87,7.52h-5.98v8.37H319.51z
				 M333.25,90.42c0-1.97-1.51-3.16-3.48-3.16h-5.27v6.29h5.27C331.74,93.55,333.25,92.35,333.25,90.42z"/>
		</g>
	</g>
</g>
</svg>
