<?xml version="1.0" encoding="utf-8"?>
<svg xmlns="http://www.w3.org/2000/svg" viewBox="0 0 160 60.17">
  <defs>
    <style>.cls-1{fill:#010101;}.cls-1,.cls-2{fill-rule:evenodd;}.cls-2{fill:#d42027;}.cls-3{fill:none;}</style>
  </defs>
  <title>Asset 23</title>
  <g data-name="Layer 2" id="Layer_2">
    <g id="SVGs">
      <path class="cls-1" d="M128.68,34.81l.91-4.3a.8.8,0,0,1,.28-.44.72.72,0,0,1,.47-.18h2.45a.48.48,0,0,1,.4.18.49.49,0,0,1,.08.43l-.14.61h3.06l.27-1.22a1.72,1.72,0,0,0,0-.71,1.39,1.39,0,0,0-.27-.58,1.43,1.43,0,0,0-.5-.39,1.57,1.57,0,0,0-.69-.15h-6.12a2,2,0,0,0-.75.15,2.56,2.56,0,0,0-.67.39,2.45,2.45,0,0,0-.51.58,2.07,2.07,0,0,0-.29.72l-1.18,5.52a1.62,1.62,0,0,0,0,.71,1.36,1.36,0,0,0,.77,1,1.57,1.57,0,0,0,.69.15H133a2,2,0,0,0,.75-.15,2.54,2.54,0,0,0,.67-.39,2.43,2.43,0,0,0,.52-.58,2.23,2.23,0,0,0,.3-.71l.26-1.22h-3.06l-.12.61a.8.8,0,0,1-.28.43.72.72,0,0,1-.47.18h-2.45a.48.48,0,0,1-.4-.18.49.49,0,0,1-.08-.44m-4-1.23.39-1.83h-6l-.39,1.83Zm-6.74,0,.65-3.07a.8.8,0,0,1,.28-.44.72.72,0,0,1,.47-.18h6.12l.38-1.83h-8a2,2,0,0,0-.75.15,2.52,2.52,0,0,0-.67.39,2.42,2.42,0,0,0-.51.58,2,2,0,0,0-.29.72l-1.18,5.52a1.61,1.61,0,0,0,0,.71,1.39,1.39,0,0,0,.27.58,1.41,1.41,0,0,0,.5.39,1.55,1.55,0,0,0,.69.15h8l.39-1.83h-6.12a.48.48,0,0,1-.4-.18.49.49,0,0,1-.08-.44Zm-11.19,3.67h3.07l1.57-7.35h3.37l.38-1.83h-9.8l-.38,1.83h3.36ZM96.57,34.81l.9-4.3a.8.8,0,0,1,.28-.44.72.72,0,0,1,.47-.18h2.45a.48.48,0,0,1,.4.18.49.49,0,0,1,.08.44l-.91,4.3a.8.8,0,0,1-.28.44.72.72,0,0,1-.47.18H97a.47.47,0,0,1-.48-.61m-3.2.61a1.61,1.61,0,0,0,0,.71,1.39,1.39,0,0,0,.27.58,1.42,1.42,0,0,0,.5.39,1.56,1.56,0,0,0,.69.15h6.12a2,2,0,0,0,.75-.15,2.54,2.54,0,0,0,.67-.39,2.46,2.46,0,0,0,.51-.58,2.27,2.27,0,0,0,.3-.72l1.18-5.52a1.83,1.83,0,0,0,0-.72,1.38,1.38,0,0,0-.27-.58,1.42,1.42,0,0,0-.5-.39,1.56,1.56,0,0,0-.69-.15H96.77a2,2,0,0,0-.75.15,2.54,2.54,0,0,0-.67.39,2.43,2.43,0,0,0-.51.58,2,2,0,0,0-.29.72ZM82,37.26H85l1.43-6.74a.79.79,0,0,1,.28-.43.72.72,0,0,1,.47-.18h2.45a.48.48,0,0,1,.4.18.48.48,0,0,1,.08.43L88.7,37.26h3.06l1.57-7.35a1.81,1.81,0,0,0,0-.72,1.36,1.36,0,0,0-.77-1,1.57,1.57,0,0,0-.69-.15H86.52a1.92,1.92,0,0,0-.59.09,2.78,2.78,0,0,0-.56.25,1.39,1.39,0,0,0-.44-.25,1.63,1.63,0,0,0-.55-.09H79a2,2,0,0,0-.75.15,2.56,2.56,0,0,0-.67.39,2.46,2.46,0,0,0-.51.58,2.06,2.06,0,0,0-.29.72l-1.57,7.35h3.06l1.43-6.74a.79.79,0,0,1,.28-.43.72.72,0,0,1,.47-.18h2.45a.47.47,0,0,1,.48.61ZM68,33.6h6.74l.38-1.83H68.42ZM56.76,34.81a.8.8,0,0,1-.28.44.72.72,0,0,1-.47.18H53.56a.48.48,0,0,1-.4-.18.49.49,0,0,1-.08-.44l1.42-6.74H51.45l-1.55,7.35a1.63,1.63,0,0,0,0,.71,1.39,1.39,0,0,0,.27.58,1.43,1.43,0,0,0,.5.39,1.57,1.57,0,0,0,.69.15H56.7a2,2,0,0,0,.59-.09,2.39,2.39,0,0,0,.55-.25,1.54,1.54,0,0,0,.45.25,1.63,1.63,0,0,0,.56.09H64.2a2,2,0,0,0,.75-.15,2.52,2.52,0,0,0,.67-.39,2.44,2.44,0,0,0,.51-.58,2.23,2.23,0,0,0,.3-.72L68,28.07H64.92L63.5,34.81a.79.79,0,0,1-.28.44.72.72,0,0,1-.47.18H60.3a.48.48,0,0,1-.4-.18.49.49,0,0,1-.08-.44l1.42-6.74H58.18Zm-13-4.91h6.12l.38-1.83h-8a2,2,0,0,0-.75.15,2.53,2.53,0,0,0-.67.39,2.43,2.43,0,0,0-.51.58,2.07,2.07,0,0,0-.29.72l-.39,1.84a1.62,1.62,0,0,0,0,.71,1.37,1.37,0,0,0,.27.58,1.4,1.4,0,0,0,.5.39,1.58,1.58,0,0,0,.69.15h4.29a.47.47,0,0,1,.4.18.48.48,0,0,1,.08.44l-.12.62a.81.81,0,0,1-.28.44.71.71,0,0,1-.47.18H38.87l-.39,1.83h8a2,2,0,0,0,.75-.15,2.51,2.51,0,0,0,.67-.39,2.4,2.4,0,0,0,.51-.58,2.24,2.24,0,0,0,.3-.72l.39-1.84a1.73,1.73,0,0,0,0-.72,1.45,1.45,0,0,0-.26-.58,1.37,1.37,0,0,0-.5-.39,1.58,1.58,0,0,0-.69-.15H43.33a.5.5,0,0,1-.4-.18.48.48,0,0,1-.09-.44l.13-.62a.8.8,0,0,1,.28-.44.72.72,0,0,1,.47-.18m99.12,7.35h3.06l1.95-9.19h-3.06L144,31.75h-3.67l.77-3.68h-3.06l-1.95,9.19h3.06l.78-3.68h3.67Z"/>
      <path class="cls-2" d="M23.2,38.77l-.09-3.14q-.7-.37-1.38-.79A41.08,41.08,0,0,1,20,27.76a24.52,24.52,0,0,1,2.15-2.46,23.45,23.45,0,0,1-6.9-1,4,4,0,0,1-.45-.91,11.41,11.41,0,0,1,2.88-2.16,5.64,5.64,0,0,0-1-.06A16.33,16.33,0,0,0,12.15,24a12.18,12.18,0,0,0,1.09,2.53,30.21,30.21,0,0,0,4,1.59q1.19,4.66,2.82,9.19a20.44,20.44,0,0,0,3.14,1.52m1.67-3.14q.7-.37,1.38-.79a41.08,41.08,0,0,0,1.71-7.07A24.51,24.51,0,0,0,25.8,25.3a23.45,23.45,0,0,0,6.89-1,4,4,0,0,0,.45-.91,11.43,11.43,0,0,0-2.88-2.16,5.64,5.64,0,0,1,1-.06A16.33,16.33,0,0,1,35.82,24a12.18,12.18,0,0,1-1.09,2.53,30.18,30.18,0,0,1-4,1.59q-1.19,4.66-2.82,9.19a20.41,20.41,0,0,1-3.14,1.52Z"/>
      <rect class="cls-3" height="60" width="160"/>
      <rect class="cls-3" height="60" width="160" y="0.17"/>
    </g>
  </g>
</svg>