<?xml version="1.0" encoding="utf-8"?>
<svg xmlns="http://www.w3.org/2000/svg" id="Layer_1" style="enable-background:new 0 0 160 60;" version="1.1" viewBox="0 0 160 60" x="0px" y="0px">
<style type="text/css">
	.st0{fill-rule:evenodd;clip-rule:evenodd;fill:#EC2227;}
	.st1{fill-rule:evenodd;clip-rule:evenodd;}
</style>
<title>Asset 17</title>
<g>
	<path class="st0" d="M96.1,20c8.6-1.2,18.5-1.2,27.2,0.3c15.6,2.7,21.3,9.3,12.7,14.6c-8.6,5.4-28.2,7.5-43.8,4.8&#xA;		c-3.4-0.6-6.3-1.4-8.7-2.2c1.4,0.4,3,0.7,4.7,1c14.1,2.5,31.9,0.5,39.7-4.4c7.8-4.9,2.7-10.9-11.5-13.3&#xA;		C110,19.6,102.8,19.4,96.1,20"/>
	<path class="st1" d="M37.2,23.1l2.3,0c2.5,0,5,0.2,4.2,1.6c-0.8,1.4-3.4,1.7-5.9,1.6l-2.3,0L37.2,23.1z M21.6,33L32,33l2-3.7l7.5,0&#xA;		c5.4,0,10.7-1.3,12.6-4.7c1.9-3.5-3.3-4.5-7.5-4.5l-17.9-0.1L21.6,33z"/>
	<path class="st1" d="M78.7,23.6l-9.8,0l-3.1,5.5c-0.3,0.6-0.7,1.3-2.5,1.3c-1.7,0-1.3-0.8-1-1.3l3.1-5.5l-9.8,0L52,30.2&#xA;		c-1,1.9,0.2,3.2,5.4,3.2c2.8,0,5.7-0.5,7.6-1.9h0.1l-0.9,1.7l9.2,0L78.7,23.6z"/>
	<path class="st1" d="M92.6,19.4l-9.8,0L81,22.6l9.8,0L92.6,19.4z M75.2,33.2l9.8,0l5.3-9.6l-9.8,0L75.2,33.2z"/>
	<path class="st1" d="M98.9,28.4c0.4-0.8,1.3-1.9,3.5-1.9c2.3,0,1.9,1.1,1.4,2c-0.5,0.8-1.3,1.9-3.6,1.9&#xA;		C98.1,30.3,98.4,29.3,98.9,28.4 M85.1,36.8c2.5,0.4,5.9,0.6,10.2,0.6c10.2,0,14.3-2.4,15.7-5l4.8-8.7l-9.2,0l-1.1,2h-0.1&#xA;		c0.2-1.4-2.3-2.2-5.6-2.2c-6.3,0-10,2.3-11.5,5c-1.4,2.5-0.1,4.8,6,4.8c2.8,0,5.4-0.6,7.5-1.6l0.1,0c-1.1,2.1-3.8,2.9-8,2.9&#xA;		c-2.9,0-5.5-0.4-7.1-1L85.1,36.8z"/>
	<polygon points="22.4,34.7 24.3,34.7 23.4,36.1 25.6,36.1 26.5,34.7 28.4,34.7 26,38.6 24.1,38.6 25.1,36.9 22.9,36.9 21.9,38.6 &#xA;		20,38.6"/>
	<path d="M29.9,34.5h1.8l-0.5,0.7h-1.8L29.9,34.5z M29.1,35.7h1.8l-1.8,2.9h-1.8L29.1,35.7z"/>
	<polygon points="31.2,36.6 33.9,36.6 33.5,37.3 30.8,37.3"/>
	<polygon points="35,34.7 40.4,34.7 39.9,35.4 38.2,35.4 36.2,38.6 34.3,38.6 36.3,35.4 34.6,35.4"/>
	<path d="M42.3,36.8C42.3,36.8,42.3,36.8,42.3,36.8c0-0.1,0.1-0.1,0.1-0.1c0-0.2,0-0.3-0.2-0.4c-0.1-0.1-0.3-0.1-0.6-0.1&#xA;		c-0.3,0-0.5,0.1-0.8,0.2c-0.2,0.1-0.4,0.3-0.6,0.5H42.3z M43.5,37.4h-3.7c0,0.2,0.1,0.4,0.3,0.5C40.3,38,40.6,38,41,38&#xA;		c0.3,0,0.6,0,0.9-0.1c0.3,0,0.6-0.1,0.9-0.2l-0.4,0.7c-0.3,0.1-0.6,0.1-1,0.1c-0.3,0-0.7,0-1,0c-0.8,0-1.4-0.1-1.8-0.4&#xA;		c-0.4-0.2-0.6-0.6-0.5-1c0.1-0.2,0.2-0.5,0.4-0.7c0.2-0.2,0.5-0.4,0.8-0.6c0.3-0.2,0.7-0.3,1.1-0.3c0.4-0.1,0.9-0.1,1.3-0.1&#xA;		c0.7,0,1.2,0.1,1.6,0.3c0.3,0.2,0.4,0.5,0.3,0.9c0,0.1-0.1,0.2-0.1,0.3C43.6,37.2,43.6,37.3,43.5,37.4"/>
	<path d="M49.5,35.8l-0.6,0.7c-0.2,0-0.4-0.1-0.5-0.1c-0.2,0-0.4,0-0.5,0c-0.5,0-0.9,0.1-1.2,0.2c-0.3,0.2-0.5,0.4-0.6,0.6&#xA;		c-0.1,0.2,0,0.4,0.2,0.5c0.2,0.1,0.5,0.2,0.9,0.2c0.2,0,0.3,0,0.5,0c0.2,0,0.4-0.1,0.6-0.1l-0.4,0.8c-0.3,0-0.6,0.1-0.8,0.1&#xA;		c-0.2,0-0.5,0-0.7,0c-0.8,0-1.4-0.1-1.8-0.4c-0.4-0.2-0.6-0.6-0.5-1c0.1-0.5,0.5-0.9,1.2-1.2c0.7-0.3,1.5-0.5,2.5-0.5&#xA;		c0.3,0,0.6,0,0.9,0C48.9,35.7,49.2,35.7,49.5,35.8"/>
	<path d="M51.1,34.4h1.8l-1,1.7c0.3-0.1,0.6-0.2,0.9-0.3c0.3-0.1,0.6-0.1,0.9-0.1c0.5,0,0.9,0.1,1.2,0.3c0.3,0.2,0.3,0.4,0.3,0.7&#xA;		c0,0.1-0.1,0.2-0.1,0.3c-0.1,0.1-0.1,0.3-0.3,0.5L54,38.6h-1.8l0.9-1.4c0-0.1,0.1-0.1,0.1-0.2c0,0,0-0.1,0-0.1c0-0.1,0-0.2-0.1-0.3&#xA;		c-0.1-0.1-0.2-0.1-0.5-0.1c-0.4,0-0.7,0.1-1,0.2c-0.3,0.2-0.5,0.4-0.7,0.7l-0.8,1.2h-1.8L51.1,34.4z"/>
	<path d="M60.6,34.7h2.1c1,0,1.7,0.1,2.1,0.3c0.4,0.2,0.6,0.4,0.5,0.8c-0.1,0.4-0.5,0.8-1.1,1.1c-0.6,0.3-1.4,0.4-2.3,0.4&#xA;		c-0.1,0-0.3,0-0.4,0c-0.2,0-0.4,0-0.6,0L60,38.6h-1.8L60.6,34.7z M62,35.4l-0.6,1h0.5c0.4,0,0.8-0.1,1.1-0.2&#xA;		c0.3-0.1,0.4-0.2,0.5-0.4c0-0.1,0-0.3-0.2-0.3c-0.2-0.1-0.4-0.1-0.8-0.1H62z"/>
	<path d="M69.9,37l-0.5,0.8c-0.1,0.2-0.2,0.3-0.2,0.4c-0.1,0.1-0.1,0.2-0.1,0.3h-1.5l0.2-0.4c-0.2,0.2-0.5,0.3-0.8,0.4&#xA;		c-0.3,0.1-0.7,0.1-1.1,0.1c-0.5,0-0.9-0.1-1.2-0.2c-0.3-0.2-0.4-0.4-0.3-0.6c0.1-0.3,0.4-0.6,1-0.8c0.6-0.2,1.4-0.3,2.3-0.3&#xA;		c0.1,0,0.2,0,0.4,0c0.1,0,0.3,0,0.5,0c0,0,0,0,0,0c0,0,0,0,0-0.1c0-0.1,0-0.3-0.2-0.3c-0.2-0.1-0.4-0.1-0.7-0.1&#xA;		c-0.3,0-0.6,0-0.9,0.1c-0.3,0-0.6,0.1-0.9,0.2l0.4-0.7c0.3-0.1,0.6-0.1,0.9-0.1c0.3,0,0.6,0,0.9,0c0.8,0,1.3,0.1,1.7,0.2&#xA;		c0.4,0.2,0.5,0.4,0.5,0.7c0,0.1,0,0.1-0.1,0.2C70,36.8,69.9,36.9,69.9,37 M68.1,37.2c-0.1,0-0.1,0-0.2,0c-0.1,0-0.2,0-0.3,0&#xA;		c-0.5,0-0.9,0-1.1,0.1c-0.3,0.1-0.4,0.2-0.5,0.3c0,0.1,0,0.2,0.1,0.2c0.1,0.1,0.3,0.1,0.5,0.1c0.3,0,0.6-0.1,0.9-0.2&#xA;		C67.7,37.7,67.9,37.5,68.1,37.2"/>
	<path d="M75.6,35.7L75,36.5c-0.2,0-0.3,0-0.4-0.1c-0.1,0-0.2,0-0.3,0c-0.4,0-0.7,0.1-0.9,0.2c-0.2,0.1-0.5,0.4-0.7,0.7l-0.8,1.2H70&#xA;		l1.8-2.9h1.6L73,36.2c0.3-0.2,0.6-0.4,0.9-0.5c0.3-0.1,0.6-0.1,0.9-0.1c0.1,0,0.2,0,0.3,0C75.3,35.6,75.4,35.6,75.6,35.7"/>
	<path d="M78.9,34.7l-0.6,1h1.3l-0.4,0.7h-1.3l-0.6,1c0,0.1-0.1,0.1-0.1,0.2c0,0,0,0.1,0,0.1c0,0.1,0,0.2,0.1,0.2&#xA;		c0.1,0,0.2,0.1,0.4,0.1c0.1,0,0.2,0,0.3,0c0.1,0,0.2,0,0.3,0l-0.4,0.7c-0.2,0-0.4,0-0.6,0c-0.2,0-0.3,0-0.4,0&#xA;		c-0.5,0-0.9-0.1-1.2-0.2c-0.3-0.2-0.3-0.4-0.3-0.6c0,0,0-0.1,0-0.1c0,0,0-0.1,0.1-0.1l0.7-1.1h-1.1l0.4-0.7h1.1L77,35L78.9,34.7z"/>
	<path d="M84.1,35.8l-0.6,0.6c-0.3-0.1-0.6-0.1-0.8-0.1c-0.2,0-0.4,0-0.6,0c-0.3,0-0.5,0-0.6,0.1c-0.2,0-0.2,0.1-0.3,0.2&#xA;		c0,0.1,0.2,0.2,0.6,0.3c0.2,0,0.3,0.1,0.4,0.1c0.3,0.1,0.6,0.2,0.7,0.3c0.1,0.1,0.2,0.3,0.2,0.4c-0.1,0.3-0.4,0.6-0.9,0.8&#xA;		c-0.5,0.2-1.1,0.3-1.8,0.3c-0.4,0-0.7,0-1.1,0c-0.3,0-0.7-0.1-1-0.1l0.5-0.7c0.2,0.1,0.5,0.1,0.7,0.1c0.2,0,0.5,0,0.7,0&#xA;		c0.3,0,0.5,0,0.7-0.1c0.2,0,0.3-0.1,0.3-0.2c0-0.1-0.1-0.2-0.5-0.3c-0.1,0-0.1,0-0.1,0c-0.5-0.1-0.8-0.2-0.9-0.4&#xA;		c-0.1-0.1-0.2-0.3-0.2-0.5c0.1-0.3,0.3-0.5,0.8-0.7c0.5-0.2,1.1-0.3,1.8-0.3c0.3,0,0.6,0,0.9,0C83.5,35.7,83.8,35.7,84.1,35.8"/>
</g>
</svg>