<?xml version="1.0" encoding="utf-8"?>
<svg xmlns="http://www.w3.org/2000/svg" id="Layer_1" style="enable-background:new 0 0 160 60;" version="1.1" viewBox="0 0 160 60" x="0px" y="0px">
<style type="text/css">
	.st0{clip-path:url(#SVGID_2_);fill:#E82E29;}
	.st1{fill:#FFFFFF;}
	.st2{clip-path:url(#SVGID_4_);fill:#231F20;}
	.st3{clip-path:url(#SVGID_6_);fill:#231F20;}
	.st4{clip-path:url(#SVGID_8_);fill:#231F20;}
	.st5{clip-path:url(#SVGID_10_);fill:#231F20;}
	.st6{clip-path:url(#SVGID_12_);fill:#231F20;}
	.st7{clip-path:url(#SVGID_14_);fill:#231F20;}
	.st8{clip-path:url(#SVGID_16_);fill:#231F20;}
	.st9{clip-path:url(#SVGID_18_);fill:#231F20;}
	.st10{clip-path:url(#SVGID_20_);fill:#231F20;}
	.st11{clip-path:url(#SVGID_22_);fill:#231F20;}
	.st12{clip-path:url(#SVGID_24_);fill:#231F20;}
	.st13{clip-path:url(#SVGID_26_);fill:#231F20;}
	.st14{clip-path:url(#SVGID_28_);fill:#231F20;}
	.st15{clip-path:url(#SVGID_30_);fill:#231F20;}
	.st16{clip-path:url(#SVGID_32_);fill:#231F20;}
	.st17{clip-path:url(#SVGID_34_);fill:#231F20;}
	.st18{clip-path:url(#SVGID_36_);fill:#231F20;}
	.st19{clip-path:url(#SVGID_38_);fill:#231F20;}
	.st20{clip-path:url(#SVGID_40_);fill:#231F20;}
	.st21{clip-path:url(#SVGID_42_);fill:#231F20;}
	.st22{clip-path:url(#SVGID_44_);fill:#231F20;}
	.st23{clip-path:url(#SVGID_46_);fill:#231F20;}
	.st24{clip-path:url(#SVGID_48_);fill:#231F20;}
</style>
<title>Asset 17</title>
<g>
	<g>
		<defs>
			<rect height="14.1" id="SVGID_1_" width="24.6" x="10" y="23.1"/>
		</defs>
		<clipPath id="SVGID_2_">
			<use href="#SVGID_1_" style="overflow:visible;"/>
		</clipPath>
		<rect class="st0" height="14.1" width="24.6" x="10" y="23.1"/>
	</g>
	<polygon class="st1" points="20,25.3 17.5,24.5 17,26.3 19.5,26.9"/>
	<polygon class="st1" points="33.2,26.5 33.2,24.5 28,24.5 27.9,24.5 27.9,26.5 28,26.5"/>
	<polygon class="st1" points="17.1,29.5 19.5,30.2 20,28.5 17.6,27.7"/>
	<polygon class="st1" points="27.3,30.4 25.2,30.4 25.4,32.7 24.2,32.7 25.4,24.5 23.1,24.5 21.4,35.8 25.9,35.1 25.9,35.7 28,35.7 &#xA;		28,35.7 28,35"/>
	<polygon class="st1" points="28,27.9 27.8,27.9 27.8,30 28,29.9 30.6,29.9 28.6,35.7 31.1,35.7 33.2,29.8 33.2,27.9"/>
	<polygon class="st1" points="11.4,27 14.1,27 14.1,28.8 11.4,28.8 11.4,31.1 14.1,31.1 14.1,33.1 11.3,33.1 11.3,35.7 16.3,35.7 &#xA;		16.3,24.5 11.4,24.5"/>
	<polygon class="st1" points="16.8,35.7 21.2,33.6 21.2,31.1 16.8,33.1"/>
	<g>
		<path class="st1" d="M33.3,34.8c-0.1-0.1-0.1-0.2-0.2-0.2c-0.1-0.1-0.2-0.1-0.3-0.1l0,0c-0.1,0-0.2,0-0.3,0.1&#xA;			c-0.1,0.1-0.2,0.1-0.2,0.2c-0.1,0.1-0.1,0.2-0.1,0.3c0,0.1,0,0.2,0.1,0.3c0.1,0.1,0.1,0.2,0.2,0.2c0.1,0,0.2,0.1,0.3,0.1h0&#xA;			c0.1,0,0.2,0,0.3-0.1c0.1-0.1,0.2-0.1,0.2-0.2c0.1-0.1,0.1-0.2,0.1-0.3C33.4,35,33.3,34.9,33.3,34.8 M33.1,35.4&#xA;			c-0.1,0.1-0.2,0.1-0.4,0.1l0,0c-0.1,0-0.2,0-0.3-0.1c-0.1-0.1-0.2-0.2-0.2-0.3c0-0.1,0.1-0.2,0.2-0.3c0.1-0.1,0.2-0.1,0.3-0.1h0&#xA;			c0.1,0,0.3,0,0.4,0.1c0.1,0.1,0.2,0.2,0.2,0.3C33.2,35.2,33.2,35.4,33.1,35.4"/>
		<path class="st1" d="M32.9,35.2C32.8,35.2,32.8,35.2,32.9,35.2C32.9,35.1,32.9,35.1,32.9,35.2C33,35.1,33,35,33,35&#xA;			c0-0.1,0-0.1-0.1-0.1c0,0-0.1,0-0.2,0h0h-0.3v0.6h0.2v-0.2c0,0,0,0,0,0c0,0,0,0,0.1,0c0,0,0,0,0,0c0,0,0.1,0.1,0.1,0.2H33&#xA;			C32.9,35.3,32.9,35.3,32.9,35.2C32.9,35.2,32.9,35.2,32.9,35.2 M32.7,35.1C32.7,35.1,32.7,35.1,32.7,35.1l-0.1,0v-0.2h0.1&#xA;			c0,0,0,0,0,0c0,0,0.1,0,0.1,0c0,0,0,0,0,0.1C32.8,35,32.8,35,32.7,35.1C32.8,35.1,32.7,35.1,32.7,35.1"/>
	</g>
	<g>
		<defs>
			<path d="M51.6,30.3c0-3.1,2.5-5.7,5.6-5.7c3.1,0,5.6,2.5,5.6,5.7c0,3.1-2.5,5.7-5.6,5.7&#xA;				C54.1,35.9,51.6,33.4,51.6,30.3 M50,30.3c0,4,3.2,7.3,7.2,7.3c4,0,7.2-3.3,7.2-7.3c0-4-3.2-7.3-7.2-7.3C53.2,23,50,26.2,50,30.3" id="SVGID_3_"/>
		</defs>
		<use href="#SVGID_3_" style="overflow:visible;fill:#231F20;"/>
		<clipPath id="SVGID_4_">
			<use href="#SVGID_3_" style="overflow:visible;"/>
		</clipPath>
		<rect class="st2" height="14.5" width="14.4" x="50" y="23"/>
	</g>
	<g>
		<defs>
			<rect height="14.1" id="SVGID_5_" width="1.7" x="77.1" y="23.1"/>
		</defs>
		<use href="#SVGID_5_" style="overflow:visible;fill:#231F20;"/>
		<clipPath id="SVGID_6_">
			<use href="#SVGID_5_" style="overflow:visible;"/>
		</clipPath>
		<rect class="st3" height="14.1" width="1.7" x="77.1" y="23.1"/>
	</g>
	<g>
		<defs>
			<path d="M70.6,25.6h-1.4c-2.9,0-3.1,4.2,0,4.2l1.4,0l1.4,0c4.1,0,3.8,5.7,0,5.7l-1.4,0l-5.6,0v1.7l5.6,0l1.5,0&#xA;				c5.7,0,6.2-9.1,0-9.1l-1.5,0l-1.4,0c-0.6,0-0.6-0.8,0-0.8h1.4h5.6v-1.7H70.6z" id="SVGID_7_"/>
		</defs>
		<use href="#SVGID_7_" style="overflow:visible;fill:#231F20;"/>
		<clipPath id="SVGID_8_">
			<use href="#SVGID_7_" style="overflow:visible;"/>
		</clipPath>
		<rect class="st4" height="11.6" width="13.4" x="65" y="25.6"/>
	</g>
	<g>
		<defs>
			<path d="M54,30.3c0-1.8,1.4-3.2,3.2-3.2c1.7,0,3.2,1.4,3.2,3.2c0,1.8-1.4,3.2-3.2,3.2C55.4,33.4,54,32,54,30.3&#xA;				 M52.4,30.3c0,2.7,2.1,4.8,4.8,4.8c2.6,0,4.8-2.2,4.8-4.8c0-2.7-2.1-4.8-4.8-4.8C54.5,25.4,52.4,27.6,52.4,30.3" id="SVGID_9_"/>
		</defs>
		<use href="#SVGID_9_" style="overflow:visible;fill:#231F20;"/>
		<clipPath id="SVGID_10_">
			<use href="#SVGID_9_" style="overflow:visible;"/>
		</clipPath>
		<rect class="st5" height="9.7" width="9.6" x="52.4" y="25.4"/>
	</g>
	<g>
		<defs>
			<path d="M69.1,23.1c-5.7,0-6.2,9.1,0,9.1l1.5,0l1.4,0c0.6,0,0.6,0.8,0,0.8h-1.4H65v1.7h5.6H72&#xA;				c2.9,0,3.1-4.2,0-4.2l-1.4,0h-1.4c-4.1,0-3.8-5.7,0-5.7l1.4,0l5.6,0v-1.7l-5.6,0H69.1z" id="SVGID_11_"/>
		</defs>
		<use href="#SVGID_11_" style="overflow:visible;fill:#231F20;"/>
		<clipPath id="SVGID_12_">
			<use href="#SVGID_11_" style="overflow:visible;"/>
		</clipPath>
		<rect class="st6" height="11.6" width="13.4" x="62.9" y="23.1"/>
	</g>
	<g>
		<defs>
			<path d="M142.5,22.5c-1.7,0-3.4,1-4,3l-3.5,11.7h2.2l3.2-11.2c0.4-1.3,1.3-1.9,2.1-1.9c0.8,0,1.7,0.5,2,1.6&#xA;				l3.3,11.6h2.2l-3.5-11.7C145.9,23.5,144.2,22.5,142.5,22.5C142.6,22.5,142.5,22.5,142.5,22.5" id="SVGID_13_"/>
		</defs>
		<use href="#SVGID_13_" style="overflow:visible;fill:#231F20;"/>
		<clipPath id="SVGID_14_">
			<use href="#SVGID_13_" style="overflow:visible;"/>
		</clipPath>
		<rect class="st7" height="14.7" width="14.9" x="135.1" y="22.5"/>
	</g>
	<g>
		<defs>
			<path d="M142.5,27L142.5,27l0.8,3.3h-0.8h-0.8L142.5,27z M142.5,24.9c-0.5,0-1.1,0.4-1.3,1.1l-1.8,6.3h3.1h3.2&#xA;				l-1.9-6.3C143.6,25.2,143.1,24.9,142.5,24.9C142.5,24.9,142.5,24.9,142.5,24.9" id="SVGID_15_"/>
		</defs>
		<use href="#SVGID_15_" style="overflow:visible;fill:#231F20;"/>
		<clipPath id="SVGID_16_">
			<use href="#SVGID_15_" style="overflow:visible;"/>
		</clipPath>
		<rect class="st8" height="7.4" width="6.3" x="139.4" y="24.9"/>
	</g>
	<g>
		<defs>
			<path d="M118.3,23.1v8.3c0,0.9-0.6,1.3-1.2,1.3c-0.6,0-1.2-0.4-1.2-1.3v-8.3h-1.7v9c0,1.8,1.4,2.6,2.9,2.6&#xA;				c1.4,0,2.9-0.9,2.9-2.6v-9H118.3z" id="SVGID_17_"/>
		</defs>
		<use href="#SVGID_17_" style="overflow:visible;fill:#231F20;"/>
		<clipPath id="SVGID_18_">
			<use href="#SVGID_17_" style="overflow:visible;"/>
		</clipPath>
		<rect class="st9" height="11.5" width="5.8" x="114.2" y="23.1"/>
	</g>
	<g>
		<defs>
			<path d="M44.8,23.1v4.3l-2.2,0c-0.3,0-0.5,0-0.7-0.1c-0.5-0.1-0.7-0.5-0.7-1.2v-3.1h-1.7v3.1c0,1.8,1,2.7,2.4,2.9&#xA;				c0.2,0,0.3,0,0.5,0l4.5,0v-1.7v-4.3H44.8z" id="SVGID_19_"/>
		</defs>
		<use href="#SVGID_19_" style="overflow:visible;fill:#231F20;"/>
		<clipPath id="SVGID_20_">
			<use href="#SVGID_19_" style="overflow:visible;"/>
		</clipPath>
		<rect class="st10" height="6" width="7.3" x="39.5" y="23.1"/>
	</g>
	<g>
		<defs>
			<path d="M36.9,23.1v3.6c0,3,2,4.8,4.9,5c0.2,0,0.4,0,0.6,0h1.6c0.8,0,0.7,1.1,0.1,1.1h-2.4h-5v1.7h5h2.6&#xA;				c2.3,0,2.3-1.7,2.3-2.3l0-2.3h-4.4c-0.2,0-0.3,0-0.5,0c-1.6-0.2-3.2-1.2-3.2-3.3v-3.5H36.9z" id="SVGID_21_"/>
		</defs>
		<use href="#SVGID_21_" style="overflow:visible;fill:#231F20;"/>
		<clipPath id="SVGID_22_">
			<use href="#SVGID_21_" style="overflow:visible;"/>
		</clipPath>
		<rect class="st11" height="11.5" width="9.9" x="36.9" y="23.1"/>
	</g>
	<g>
		<defs>
			<path d="M47.6,23.1l0,9.4c0,2.1-1.3,3-3.3,3h-2.4h-5v1.7h5h2.6c2.4,0,4.8-1.2,4.8-4.3v-9.8H47.6z" id="SVGID_23_"/>
		</defs>
		<use href="#SVGID_23_" style="overflow:visible;fill:#231F20;"/>
		<clipPath id="SVGID_24_">
			<use href="#SVGID_23_" style="overflow:visible;"/>
		</clipPath>
		<rect class="st12" height="14.1" width="12.4" x="36.9" y="23.1"/>
	</g>
	<g>
		<defs>
			<path d="M120.7,23.1v9c0,2.3-1.8,3.5-3.6,3.5c-1.8,0-3.7-1.1-3.7-3.5l0-9h-1.5h-0.2l0,9c0,0.5,0.1,1,0.2,1.4&#xA;				c0.6,2.5,2.9,3.8,5.2,3.8c2.7,0,5.3-1.7,5.3-5.2l0-9H120.7z" id="SVGID_25_"/>
		</defs>
		<use href="#SVGID_25_" style="overflow:visible;fill:#231F20;"/>
		<clipPath id="SVGID_26_">
			<use href="#SVGID_25_" style="overflow:visible;"/>
		</clipPath>
		<rect class="st13" height="14.2" width="10.7" x="111.7" y="23.1"/>
	</g>
	<g>
		<defs>
			<path d="M125.8,28l0,9.2h1.7c0-3,0-6.1,0-9.1c0-1.5,2.3-1.7,2.5-0.2c0.1,0.5-0.7,1.3-1.3,2.4&#xA;				c-1,1.8-0.9,4.1,0.6,5.6c0.3,0.2,0.5,0.4,0.8,0.6c1.2,0.7,2.7,0.8,4.3,0.8v-1.7c-1.7,0-2.8-0.3-3.4-0.6c-0.4-0.2-0.7-0.5-0.9-0.8&#xA;				c-0.6-0.9-0.6-2.2,0-3.2c0.1-0.1,0.1-0.2,0.2-0.3c0.4-0.5,0.8-1,1.1-1.7c0.3-0.9,0.3-1.8-0.3-2.7c-0.1-0.2-0.3-0.4-0.5-0.5&#xA;				c-0.2-0.1-0.4-0.3-0.5-0.4c-0.4-0.2-0.9-0.3-1.3-0.3C127.3,25.1,125.9,26.3,125.8,28" id="SVGID_27_"/>
		</defs>
		<use href="#SVGID_27_" style="overflow:visible;fill:#231F20;"/>
		<clipPath id="SVGID_28_">
			<use href="#SVGID_27_" style="overflow:visible;"/>
		</clipPath>
		<rect class="st14" height="12.1" width="8.6" x="125.8" y="25.1"/>
	</g>
	<g>
		<defs>
			<polygon id="SVGID_29_" points="142.5,32.9 139.2,32.9 137.9,37.2 140.2,37.2 140.7,34.9 142.5,34.9 144.4,34.9 144.9,37.2 &#xA;				147.2,37.2 145.9,32.9"/>
		</defs>
		<use href="#SVGID_29_" style="overflow:visible;fill:#231F20;"/>
		<clipPath id="SVGID_30_">
			<use href="#SVGID_29_" style="overflow:visible;"/>
		</clipPath>
		<rect class="st15" height="4.3" width="9.2" x="137.9" y="32.9"/>
	</g>
	<g>
		<defs>
			<path d="M96.3,25.6l-2.7,11.7h1.7l2.8-11.5c0.3-1.2,1.8-1.4,2.2,0l2.4,9c0,0.1,0.1,0.1,0.1,0.1&#xA;				c0.1,0,0.1,0,0.2-0.1l2.4-9c0.4-1.4,2-1.2,2.2,0l2.8,11.5h1.5h0.2l-0.2-0.7l-2.6-10.9c-0.8-3.3-4.9-3.3-5.8-0.4l-0.7,2.3&#xA;				c0,0.1-0.1,0.1-0.1,0.1c0,0,0,0-0.1-0.1l-0.7-2.3c-0.4-1.4-1.6-2.1-2.8-2.1C98,23,96.7,23.9,96.3,25.6" id="SVGID_31_"/>
		</defs>
		<use href="#SVGID_31_" style="overflow:visible;fill:#231F20;"/>
		<clipPath id="SVGID_32_">
			<use href="#SVGID_31_" style="overflow:visible;"/>
		</clipPath>
		<rect class="st16" height="15" width="18.5" x="93.5" y="22.3"/>
	</g>
	<g>
		<defs>
			<path d="M128.2,22.7c-2.6,0.1-5.1,2.3-5.1,4.7v9.9h2l0-9.2c0-2.4,2-3.7,3.9-3.6c0.4,0,0.8,0.1,1.1,0.3&#xA;				c1.9,0.8,3,3,1.8,5.1c-0.3,0.5-0.6,0.9-0.9,1.3c-0.8,1-0.8,2.5,0.4,3.1c0.6,0.3,1.6,0.6,3,0.5v-1.7c-0.5,0-2.1,0.1-2.1-0.8&#xA;				c0-0.4,0.5-0.9,1-1.4c1.8-1.9,1.7-4.6-0.2-6.4c-0.8-0.8-1.8-1.3-3-1.6c-0.5-0.1-1.1-0.2-1.6-0.2&#xA;				C128.4,22.6,128.3,22.6,128.2,22.7" id="SVGID_33_"/>
		</defs>
		<use href="#SVGID_33_" style="overflow:visible;fill:#231F20;"/>
		<clipPath id="SVGID_34_">
			<use href="#SVGID_33_" style="overflow:visible;"/>
		</clipPath>
		<rect class="st17" height="14.6" width="12" x="123.1" y="22.6"/>
	</g>
	<g>
		<defs>
			<polygon id="SVGID_35_" points="79.5,30.5 79.5,37.2 81.2,37.2 81.2,32.3 83.9,32.3 83.9,37.2 85.6,37.2 85.6,30.5"/>
		</defs>
		<use href="#SVGID_35_" style="overflow:visible;fill:#231F20;"/>
		<clipPath id="SVGID_36_">
			<use href="#SVGID_35_" style="overflow:visible;"/>
		</clipPath>
		<rect class="st18" height="6.7" width="6.1" x="79.5" y="30.5"/>
	</g>
	<g>
		<defs>
			<path d="M98.7,25.8l-2.8,11.4H98l1.3-5.1l0.6,2.2c0.5,2,1.7,2.9,2.8,2.9h0.1h0.1c1.4,0,2.2-1.3,2.7-2.9l0.6-2.2&#xA;				l1.3,5.1l2.1,0l-2.8-11.4c-0.1-0.5-0.7-0.6-0.9,0l-2.3,8.9c-0.1,0.6-0.5,0.9-0.9,0.8c-0.3,0-0.7-0.3-0.9-0.8l-2.3-8.9&#xA;				c-0.1-0.3-0.3-0.4-0.4-0.4C99,25.4,98.8,25.5,98.7,25.8" id="SVGID_37_"/>
		</defs>
		<use href="#SVGID_37_" style="overflow:visible;fill:#231F20;"/>
		<clipPath id="SVGID_38_">
			<use href="#SVGID_37_" style="overflow:visible;"/>
		</clipPath>
		<rect class="st19" height="12" width="13.7" x="95.9" y="25.2"/>
	</g>
	<g>
		<defs>
			<rect height="14.1" id="SVGID_39_" width="1.7" x="86.4" y="23.1"/>
		</defs>
		<use href="#SVGID_39_" style="overflow:visible;fill:#231F20;"/>
		<clipPath id="SVGID_40_">
			<use href="#SVGID_39_" style="overflow:visible;"/>
		</clipPath>
		<rect class="st20" height="14.1" width="1.7" x="86.4" y="23.1"/>
	</g>
	<g>
		<defs>
			<polygon id="SVGID_41_" points="83.9,23.1 83.9,28.1 81.2,28.1 81.2,23.1 79.5,23.1 79.5,29.8 85.6,29.8 85.6,23.1"/>
		</defs>
		<use href="#SVGID_41_" style="overflow:visible;fill:#231F20;"/>
		<clipPath id="SVGID_42_">
			<use href="#SVGID_41_" style="overflow:visible;"/>
		</clipPath>
		<rect class="st21" height="6.7" width="6.1" x="79.5" y="23.1"/>
	</g>
	<g>
		<defs>
			<rect height="14.1" id="SVGID_43_" width="1.5" x="91.6" y="23.1"/>
		</defs>
		<use href="#SVGID_43_" style="overflow:visible;fill:#231F20;"/>
		<clipPath id="SVGID_44_">
			<use href="#SVGID_43_" style="overflow:visible;"/>
		</clipPath>
		<rect class="st22" height="14.1" width="1.5" x="91.6" y="23.1"/>
	</g>
	<g>
		<defs>
			<rect height="14.1" id="SVGID_45_" width="1.7" x="89.1" y="23.1"/>
		</defs>
		<use href="#SVGID_45_" style="overflow:visible;fill:#231F20;"/>
		<clipPath id="SVGID_46_">
			<use href="#SVGID_45_" style="overflow:visible;"/>
		</clipPath>
		<rect class="st23" height="14.1" width="1.7" x="89.1" y="23.1"/>
	</g>
	<g>
		<defs>
			<path d="M147,22.9v1h0.3v-0.4c0,0,0,0,0,0c0,0,0.1,0,0.1,0.1c0,0,0,0,0,0v-0.3c0,0,0,0,0,0h-0.1v-0.3h0.1&#xA;				c0,0,0,0,0,0v-0.2H147z M147.5,22.9v0.2c0.1,0,0.1,0,0.1,0c0,0,0,0.1,0,0.1c0,0,0,0.1-0.1,0.1c0,0-0.1,0-0.1,0v0.3&#xA;				c0,0.1,0.1,0.2,0.2,0.3h0.3c-0.1-0.2-0.2-0.3-0.2-0.3c0,0-0.1-0.1-0.1-0.1c0,0-0.1,0-0.1,0c0.1,0,0.2-0.1,0.2-0.1&#xA;				c0-0.1,0.1-0.1,0.1-0.2c0-0.1,0-0.2-0.1-0.2C147.8,23,147.7,22.9,147.5,22.9L147.5,22.9z M147,22.6c-0.2,0.1-0.3,0.2-0.4,0.4&#xA;				c-0.1,0.2-0.1,0.3-0.1,0.5c0,0.2,0,0.3,0.1,0.5c0.1,0.1,0.2,0.3,0.4,0.4c0.2,0.1,0.3,0.1,0.5,0.1v-0.2c-0.2,0-0.4-0.1-0.6-0.2&#xA;				c-0.2-0.2-0.2-0.3-0.2-0.6c0-0.2,0.1-0.4,0.2-0.6c0.2-0.1,0.4-0.2,0.6-0.2v-0.2C147.3,22.5,147.1,22.5,147,22.6 M147.5,22.5v0.2&#xA;				h0c0.2,0,0.4,0.1,0.6,0.2c0.2,0.2,0.3,0.3,0.3,0.6c0,0.2-0.1,0.4-0.3,0.6c-0.2,0.2-0.4,0.2-0.6,0.2h0v0.2l0,0&#xA;				c0.2,0,0.4,0,0.5-0.1c0.2-0.1,0.3-0.2,0.4-0.4c0.1-0.2,0.1-0.3,0.1-0.5c0-0.2,0-0.3-0.1-0.5c-0.1-0.1-0.2-0.3-0.4-0.4&#xA;				C147.9,22.5,147.7,22.5,147.5,22.5L147.5,22.5z" id="SVGID_47_"/>
		</defs>
		<use href="#SVGID_47_" style="overflow:visible;fill:#231F20;"/>
		<clipPath id="SVGID_48_">
			<use href="#SVGID_47_" style="overflow:visible;"/>
		</clipPath>
		<rect class="st24" height="1.9" width="2.1" x="146.4" y="22.5"/>
	</g>
</g>
</svg>